G04 #@! TF.FileFunction,Copper,L1,Top,Signal*
%FSLAX46Y46*%
G04 Gerber Fmt 4.6, Leading zero omitted, Abs format (unit mm)*
G04 Created by KiCad (PCBNEW 4.0.6) date 11/03/19 16:58:40*
%MOMM*%
%LPD*%
G01*
G04 APERTURE LIST*
%ADD10C,0.100000*%
%ADD11C,1.800000*%
%ADD12R,1.800000X1.800000*%
%ADD13O,3.500120X1.800860*%
%ADD14R,1.700000X1.700000*%
%ADD15O,1.700000X1.700000*%
%ADD16C,1.750000*%
%ADD17R,1.980000X3.960000*%
%ADD18O,1.980000X3.960000*%
%ADD19R,2.500000X2.500000*%
%ADD20C,2.500000*%
%ADD21C,1.000000*%
%ADD22C,0.250000*%
G04 APERTURE END LIST*
D10*
D11*
X119380000Y-60960000D03*
X119380000Y-50800000D03*
D12*
X111760000Y-60960000D03*
D11*
X111760000Y-50800000D03*
D12*
X129540000Y-111760000D03*
D11*
X132080000Y-111760000D03*
D12*
X121920000Y-111760000D03*
D11*
X124460000Y-111760000D03*
D12*
X114300000Y-111760000D03*
D11*
X116840000Y-111760000D03*
D13*
X109220000Y-114300000D03*
X109220000Y-111760000D03*
X109220000Y-109220000D03*
X109220000Y-106680000D03*
X27940000Y-157480000D03*
X27940000Y-154940000D03*
X27940000Y-152400000D03*
X53340000Y-157480000D03*
X53340000Y-154940000D03*
X53340000Y-152400000D03*
X78740000Y-157480000D03*
X78740000Y-154940000D03*
X78740000Y-152400000D03*
X104140000Y-157480000D03*
X104140000Y-154940000D03*
X104140000Y-152400000D03*
X129540000Y-157480000D03*
X129540000Y-154940000D03*
X129540000Y-152400000D03*
X116840000Y-10160000D03*
X116840000Y-7620000D03*
X116840000Y-5080000D03*
X116840000Y-2540000D03*
X91440000Y-10160000D03*
X91440000Y-7620000D03*
X91440000Y-5080000D03*
X91440000Y-2540000D03*
D14*
X119380000Y-66040000D03*
D15*
X119380000Y-68580000D03*
X116840000Y-66040000D03*
X116840000Y-68580000D03*
X114300000Y-66040000D03*
X114300000Y-68580000D03*
X111760000Y-66040000D03*
X111760000Y-68580000D03*
D16*
X30600000Y-157440000D03*
X30600000Y-154940000D03*
X30600000Y-152440000D03*
X45100000Y-157440000D03*
X45100000Y-152440000D03*
X56000000Y-157440000D03*
X56000000Y-154940000D03*
X56000000Y-152440000D03*
X70500000Y-157440000D03*
X70500000Y-152440000D03*
X81400000Y-157440000D03*
X81400000Y-154940000D03*
X81400000Y-152440000D03*
X95900000Y-157440000D03*
X95900000Y-152440000D03*
X106800000Y-157440000D03*
X106800000Y-154940000D03*
X106800000Y-152440000D03*
X121300000Y-157440000D03*
X121300000Y-152440000D03*
X132200000Y-157440000D03*
X132200000Y-154940000D03*
X132200000Y-152440000D03*
X146700000Y-157440000D03*
X146700000Y-152440000D03*
X119500000Y-10120000D03*
X119500000Y-7620000D03*
X119500000Y-5120000D03*
X134000000Y-10120000D03*
X134000000Y-5120000D03*
X94100000Y-10120000D03*
X94100000Y-7620000D03*
X94100000Y-5120000D03*
X108600000Y-10120000D03*
X108600000Y-5120000D03*
D11*
X132080000Y-48260000D03*
X132080000Y-38100000D03*
D12*
X124460000Y-48260000D03*
D11*
X124460000Y-38100000D03*
X106680000Y-48260000D03*
X106680000Y-38100000D03*
D12*
X99060000Y-48260000D03*
D11*
X99060000Y-38100000D03*
X119380000Y-48260000D03*
X119380000Y-38100000D03*
D12*
X111760000Y-48260000D03*
D11*
X111760000Y-38100000D03*
X132080000Y-60960000D03*
X132080000Y-50800000D03*
D12*
X124460000Y-60960000D03*
D11*
X124460000Y-50800000D03*
X106680000Y-60960000D03*
X106680000Y-50800000D03*
D12*
X99060000Y-60960000D03*
D11*
X99060000Y-50800000D03*
D17*
X187960000Y-96520000D03*
D18*
X192960000Y-96520000D03*
D17*
X228600000Y-96520000D03*
D18*
X233600000Y-96520000D03*
D19*
X187960000Y-106680000D03*
D20*
X187960000Y-127000000D03*
X233680000Y-116840000D03*
X233680000Y-106680000D03*
D21*
X27940000Y-157480000D02*
X30560000Y-157480000D01*
D22*
X30560000Y-157480000D02*
X30600000Y-157440000D01*
D21*
X27940000Y-154940000D02*
X30600000Y-154940000D01*
X27940000Y-152400000D02*
X30560000Y-152400000D01*
D22*
X30560000Y-152400000D02*
X30600000Y-152440000D01*
D21*
X53340000Y-157480000D02*
X55960000Y-157480000D01*
D22*
X55960000Y-157480000D02*
X56000000Y-157440000D01*
D21*
X53340000Y-154940000D02*
X56000000Y-154940000D01*
X53340000Y-152400000D02*
X55960000Y-152400000D01*
D22*
X55960000Y-152400000D02*
X56000000Y-152440000D01*
D21*
X78740000Y-157480000D02*
X81360000Y-157480000D01*
D22*
X81360000Y-157480000D02*
X81400000Y-157440000D01*
D21*
X78740000Y-154940000D02*
X81400000Y-154940000D01*
X78740000Y-152400000D02*
X81360000Y-152400000D01*
D22*
X81360000Y-152400000D02*
X81400000Y-152440000D01*
D21*
X104140000Y-157480000D02*
X106760000Y-157480000D01*
D22*
X106760000Y-157480000D02*
X106800000Y-157440000D01*
D21*
X104140000Y-154940000D02*
X106800000Y-154940000D01*
X104140000Y-152400000D02*
X106760000Y-152400000D01*
D22*
X106760000Y-152400000D02*
X106800000Y-152440000D01*
D21*
X129540000Y-157480000D02*
X132160000Y-157480000D01*
D22*
X132160000Y-157480000D02*
X132200000Y-157440000D01*
D21*
X129540000Y-154940000D02*
X132200000Y-154940000D01*
X129540000Y-152400000D02*
X132160000Y-152400000D01*
D22*
X132160000Y-152400000D02*
X132200000Y-152440000D01*
D21*
X119500000Y-10120000D02*
X134000000Y-10120000D01*
X116840000Y-10160000D02*
X119460000Y-10160000D01*
D22*
X119460000Y-10160000D02*
X119500000Y-10120000D01*
D21*
X116840000Y-7620000D02*
X119500000Y-7620000D01*
X116840000Y-5080000D02*
X119460000Y-5080000D01*
D22*
X119460000Y-5080000D02*
X119500000Y-5120000D01*
D21*
X116840000Y-2540000D02*
X120650000Y-2540000D01*
X123230000Y-5120000D02*
X134000000Y-5120000D01*
X120650000Y-2540000D02*
X123230000Y-5120000D01*
X108600000Y-10120000D02*
X94100000Y-10120000D01*
X91440000Y-10160000D02*
X94060000Y-10160000D01*
D22*
X94060000Y-10160000D02*
X94100000Y-10120000D01*
D21*
X91440000Y-7620000D02*
X94100000Y-7620000D01*
X91440000Y-5080000D02*
X94060000Y-5080000D01*
D22*
X94060000Y-5080000D02*
X94100000Y-5120000D01*
D21*
X91440000Y-2540000D02*
X95250000Y-2540000D01*
X97830000Y-5120000D02*
X108600000Y-5120000D01*
X95250000Y-2540000D02*
X97830000Y-5120000D01*
X116840000Y-66040000D02*
X116840000Y-45720000D01*
X124460000Y-45720000D02*
X124460000Y-48260000D01*
X116840000Y-45720000D02*
X124460000Y-45720000D01*
D22*
X116840000Y-68580000D02*
X118110000Y-67310000D01*
D21*
X111760000Y-44450000D02*
X111760000Y-48260000D01*
X127000000Y-44450000D02*
X111760000Y-44450000D01*
X127000000Y-49530000D02*
X127000000Y-44450000D01*
D22*
X123190000Y-49530000D02*
X127000000Y-49530000D01*
X121920000Y-50800000D02*
X123190000Y-49530000D01*
D21*
X121920000Y-66040000D02*
X121920000Y-50800000D01*
D22*
X120650000Y-67310000D02*
X121920000Y-66040000D01*
X118110000Y-67310000D02*
X120650000Y-67310000D01*
D21*
X114300000Y-66040000D02*
X114300000Y-63500000D01*
X101600000Y-48260000D02*
X99060000Y-48260000D01*
X101600000Y-63500000D02*
X101600000Y-48260000D01*
X114300000Y-63500000D02*
X101600000Y-63500000D01*
D22*
X114300000Y-68580000D02*
X115570000Y-67310000D01*
D21*
X115570000Y-60960000D02*
X111760000Y-60960000D01*
D22*
X115570000Y-64770000D02*
X115570000Y-60960000D01*
X115570000Y-67310000D02*
X115570000Y-64770000D01*
D21*
X111760000Y-66040000D02*
X99060000Y-66040000D01*
X99060000Y-66040000D02*
X99060000Y-60960000D01*
D22*
X111760000Y-68580000D02*
X113030000Y-69850000D01*
D21*
X124460000Y-68580000D02*
X124460000Y-60960000D01*
X123190000Y-69850000D02*
X124460000Y-68580000D01*
D22*
X113030000Y-69850000D02*
X123190000Y-69850000D01*
D21*
X187960000Y-96520000D02*
X187960000Y-106680000D01*
X187960000Y-127000000D02*
X190500000Y-127000000D01*
X192960000Y-124540000D02*
X192960000Y-96520000D01*
X190500000Y-127000000D02*
X192960000Y-124540000D01*
X233680000Y-116840000D02*
X231140000Y-116840000D01*
X228600000Y-114300000D02*
X228600000Y-96520000D01*
X231140000Y-116840000D02*
X228600000Y-114300000D01*
X233600000Y-96520000D02*
X233600000Y-106600000D01*
X233600000Y-106600000D02*
X233680000Y-106680000D01*
M02*
