M48
INCH,TZ
T1C0.035
T2C0.039
T3C0.047
T4C0.049
T5C0.052
T6C0.124
T7C0.126
%
G90
G05
T1
X3.9Y-1.5
X3.9Y-1.9
X3.9Y-2.
X3.9Y-2.4
X4.2Y-1.5
X4.2Y-1.9
X4.2Y-2.
X4.2Y-2.4
X4.4Y-1.5
X4.4Y-1.9
X4.4Y-2.
X4.4Y-2.4
X4.5Y-4.4
X4.6Y-4.4
X4.7Y-1.5
X4.7Y-1.9
X4.7Y-2.
X4.7Y-2.4
X4.8Y-4.4
X4.9Y-1.5
X4.9Y-1.9
X4.9Y-2.
X4.9Y-2.4
X4.9Y-4.4
X5.1Y-4.4
X5.2Y-1.5
X5.2Y-1.9
X5.2Y-2.
X5.2Y-2.4
X5.2Y-4.4
T2
X1.2047Y-6.0016
X1.2047Y-6.1
X1.2047Y-6.1984
X1.7756Y-6.0016
X1.7756Y-6.1984
X2.2047Y-6.0016
X2.2047Y-6.1
X2.2047Y-6.1984
X2.7756Y-6.0016
X2.7756Y-6.1984
X3.2047Y-6.0016
X3.2047Y-6.1
X3.2047Y-6.1984
X3.7047Y-0.2016
X3.7047Y-0.3
X3.7047Y-0.3984
X3.7756Y-6.0016
X3.7756Y-6.1984
X4.2047Y-6.0016
X4.2047Y-6.1
X4.2047Y-6.1984
X4.2756Y-0.2016
X4.2756Y-0.3984
X4.4Y-2.6
X4.4Y-2.7
X4.5Y-2.6
X4.5Y-2.7
X4.6Y-2.6
X4.6Y-2.7
X4.7Y-2.6
X4.7Y-2.7
X4.7047Y-0.2016
X4.7047Y-0.3
X4.7047Y-0.3984
X4.7756Y-6.0016
X4.7756Y-6.1984
X5.2047Y-6.0016
X5.2047Y-6.1
X5.2047Y-6.1984
X5.2756Y-0.2016
X5.2756Y-0.3984
X5.7756Y-6.0016
X5.7756Y-6.1984
T3
X1.1Y-6.
X1.1Y-6.1
X1.1Y-6.2
X2.1Y-6.
X2.1Y-6.1
X2.1Y-6.2
X3.1Y-6.
X3.1Y-6.1
X3.1Y-6.2
X3.6Y-0.1
X3.6Y-0.2
X3.6Y-0.3
X3.6Y-0.4
X4.1Y-6.
X4.1Y-6.1
X4.1Y-6.2
X4.3Y-4.2
X4.3Y-4.3
X4.3Y-4.4
X4.3Y-4.5
X4.6Y-0.1
X4.6Y-0.2
X4.6Y-0.3
X4.6Y-0.4
X5.1Y-6.
X5.1Y-6.1
X5.1Y-6.2
T4
X7.4Y-4.2
X7.4Y-5.
X9.2Y-4.2
X9.2Y-4.6
T5
X7.4Y-3.8
X7.5969Y-3.8
X9.Y-3.8
X9.1969Y-3.8
T6
X1.5Y-5.8756
X1.5Y-6.3244
X2.5Y-5.8756
X2.5Y-6.3244
X3.5Y-5.8756
X3.5Y-6.3244
X4.Y-0.0756
X4.Y-0.5244
X4.5Y-5.8756
X4.5Y-6.3244
X5.Y-0.0756
X5.Y-0.5244
X5.5Y-5.8756
X5.5Y-6.3244
T7
X3.7Y-1.6
X3.7Y-2.6
X4.Y-4.4
X5.4Y-1.6
X5.4Y-2.6
X5.5Y-4.4
X7.5Y-5.3
X8.3Y-3.8
X9.1Y-5.3
T0
M30
