G04 #@! TF.FileFunction,Legend,Top*
%FSLAX46Y46*%
G04 Gerber Fmt 4.6, Leading zero omitted, Abs format (unit mm)*
G04 Created by KiCad (PCBNEW 4.0.6) date 11/03/19 16:58:40*
%MOMM*%
%LPD*%
G01*
G04 APERTURE LIST*
%ADD10C,0.100000*%
%ADD11C,0.150000*%
%ADD12C,0.120000*%
G04 APERTURE END LIST*
D10*
D11*
X219139286Y-96020000D02*
X219044048Y-95972381D01*
X218901191Y-95972381D01*
X218758333Y-96020000D01*
X218663095Y-96115238D01*
X218615476Y-96210476D01*
X218567857Y-96400952D01*
X218567857Y-96543810D01*
X218615476Y-96734286D01*
X218663095Y-96829524D01*
X218758333Y-96924762D01*
X218901191Y-96972381D01*
X218996429Y-96972381D01*
X219139286Y-96924762D01*
X219186905Y-96877143D01*
X219186905Y-96543810D01*
X218996429Y-96543810D01*
X219615476Y-96972381D02*
X219615476Y-95972381D01*
X220186905Y-96972381D01*
X220186905Y-95972381D01*
X220663095Y-96972381D02*
X220663095Y-95972381D01*
X220901190Y-95972381D01*
X221044048Y-96020000D01*
X221139286Y-96115238D01*
X221186905Y-96210476D01*
X221234524Y-96400952D01*
X221234524Y-96543810D01*
X221186905Y-96734286D01*
X221139286Y-96829524D01*
X221044048Y-96924762D01*
X220901190Y-96972381D01*
X220663095Y-96972381D01*
X221901190Y-97305714D02*
X221901190Y-95877143D01*
X222615476Y-96591429D02*
X223377381Y-96591429D01*
X222996429Y-96972381D02*
X222996429Y-96210476D01*
X224329762Y-95972381D02*
X223853571Y-95972381D01*
X223805952Y-96448571D01*
X223853571Y-96400952D01*
X223948809Y-96353333D01*
X224186905Y-96353333D01*
X224282143Y-96400952D01*
X224329762Y-96448571D01*
X224377381Y-96543810D01*
X224377381Y-96781905D01*
X224329762Y-96877143D01*
X224282143Y-96924762D01*
X224186905Y-96972381D01*
X223948809Y-96972381D01*
X223853571Y-96924762D01*
X223805952Y-96877143D01*
X224663095Y-95972381D02*
X224996428Y-96972381D01*
X225329762Y-95972381D01*
X106680000Y-105410000D02*
X106680000Y-115570000D01*
X111125000Y-105410000D02*
X112395000Y-105410000D01*
X107315000Y-115570000D02*
X106045000Y-115570000D01*
X106045000Y-115570000D02*
X106045000Y-105410000D01*
X106045000Y-105410000D02*
X107315000Y-105410000D01*
X112395000Y-105410000D02*
X112395000Y-115570000D01*
X112395000Y-115570000D02*
X111125000Y-115570000D01*
X25400000Y-151130000D02*
X25400000Y-158750000D01*
X29845000Y-151130000D02*
X31115000Y-151130000D01*
X26035000Y-158750000D02*
X24765000Y-158750000D01*
X24765000Y-158750000D02*
X24765000Y-151130000D01*
X24765000Y-151130000D02*
X26035000Y-151130000D01*
X31115000Y-151130000D02*
X31115000Y-158750000D01*
X31115000Y-158750000D02*
X29845000Y-158750000D01*
X50800000Y-151130000D02*
X50800000Y-158750000D01*
X55245000Y-151130000D02*
X56515000Y-151130000D01*
X51435000Y-158750000D02*
X50165000Y-158750000D01*
X50165000Y-158750000D02*
X50165000Y-151130000D01*
X50165000Y-151130000D02*
X51435000Y-151130000D01*
X56515000Y-151130000D02*
X56515000Y-158750000D01*
X56515000Y-158750000D02*
X55245000Y-158750000D01*
X76200000Y-151130000D02*
X76200000Y-158750000D01*
X80645000Y-151130000D02*
X81915000Y-151130000D01*
X76835000Y-158750000D02*
X75565000Y-158750000D01*
X75565000Y-158750000D02*
X75565000Y-151130000D01*
X75565000Y-151130000D02*
X76835000Y-151130000D01*
X81915000Y-151130000D02*
X81915000Y-158750000D01*
X81915000Y-158750000D02*
X80645000Y-158750000D01*
X101600000Y-151130000D02*
X101600000Y-158750000D01*
X106045000Y-151130000D02*
X107315000Y-151130000D01*
X102235000Y-158750000D02*
X100965000Y-158750000D01*
X100965000Y-158750000D02*
X100965000Y-151130000D01*
X100965000Y-151130000D02*
X102235000Y-151130000D01*
X107315000Y-151130000D02*
X107315000Y-158750000D01*
X107315000Y-158750000D02*
X106045000Y-158750000D01*
X127000000Y-151130000D02*
X127000000Y-158750000D01*
X131445000Y-151130000D02*
X132715000Y-151130000D01*
X127635000Y-158750000D02*
X126365000Y-158750000D01*
X126365000Y-158750000D02*
X126365000Y-151130000D01*
X126365000Y-151130000D02*
X127635000Y-151130000D01*
X132715000Y-151130000D02*
X132715000Y-158750000D01*
X132715000Y-158750000D02*
X131445000Y-158750000D01*
X114300000Y-1270000D02*
X114300000Y-11430000D01*
X118745000Y-1270000D02*
X120015000Y-1270000D01*
X114935000Y-11430000D02*
X113665000Y-11430000D01*
X113665000Y-11430000D02*
X113665000Y-1270000D01*
X113665000Y-1270000D02*
X114935000Y-1270000D01*
X120015000Y-1270000D02*
X120015000Y-11430000D01*
X120015000Y-11430000D02*
X118745000Y-11430000D01*
X88900000Y-1270000D02*
X88900000Y-11430000D01*
X93345000Y-1270000D02*
X94615000Y-1270000D01*
X89535000Y-11430000D02*
X88265000Y-11430000D01*
X88265000Y-11430000D02*
X88265000Y-1270000D01*
X88265000Y-1270000D02*
X89535000Y-1270000D01*
X94615000Y-1270000D02*
X94615000Y-11430000D01*
X94615000Y-11430000D02*
X93345000Y-11430000D01*
D12*
X110430000Y-64710000D02*
X110430000Y-69910000D01*
X118110000Y-64710000D02*
X110430000Y-64710000D01*
X120710000Y-69910000D02*
X110430000Y-69910000D01*
X118110000Y-64710000D02*
X118110000Y-67310000D01*
X118110000Y-67310000D02*
X120710000Y-67310000D01*
X120710000Y-67310000D02*
X120710000Y-69910000D01*
X119380000Y-64710000D02*
X120710000Y-64710000D01*
X120710000Y-64710000D02*
X120710000Y-66040000D01*
X185310000Y-90220000D02*
X185310000Y-102820000D01*
X185310000Y-102820000D02*
X195660000Y-102820000D01*
X195660000Y-102820000D02*
X195660000Y-101870000D01*
X195660000Y-101870000D02*
X196160000Y-102120000D01*
X196160000Y-102120000D02*
X196160000Y-100220000D01*
X196160000Y-100220000D02*
X196160000Y-100170000D01*
X196160000Y-100170000D02*
X195660000Y-100420000D01*
X195660000Y-100420000D02*
X195660000Y-95020000D01*
X195660000Y-95020000D02*
X196160000Y-95320000D01*
X196160000Y-95320000D02*
X196160000Y-90220000D01*
X196160000Y-90220000D02*
X185310000Y-90220000D01*
X225950000Y-90220000D02*
X225950000Y-102820000D01*
X225950000Y-102820000D02*
X236300000Y-102820000D01*
X236300000Y-102820000D02*
X236300000Y-101870000D01*
X236300000Y-101870000D02*
X236800000Y-102120000D01*
X236800000Y-102120000D02*
X236800000Y-100220000D01*
X236800000Y-100220000D02*
X236800000Y-100170000D01*
X236800000Y-100170000D02*
X236300000Y-100420000D01*
X236300000Y-100420000D02*
X236300000Y-95020000D01*
X236300000Y-95020000D02*
X236800000Y-95320000D01*
X236800000Y-95320000D02*
X236800000Y-90220000D01*
X236800000Y-90220000D02*
X225950000Y-90220000D01*
X184570000Y-103140000D02*
X237070000Y-103140000D01*
X237070000Y-103140000D02*
X237070000Y-130540000D01*
X237070000Y-130540000D02*
X184570000Y-130540000D01*
X184570000Y-130540000D02*
X184570000Y-103140000D01*
D11*
X104592381Y-112180476D02*
X103592381Y-112180476D01*
X103592381Y-111799523D01*
X103640000Y-111704285D01*
X103687619Y-111656666D01*
X103782857Y-111609047D01*
X103925714Y-111609047D01*
X104020952Y-111656666D01*
X104068571Y-111704285D01*
X104116190Y-111799523D01*
X104116190Y-112180476D01*
X104592381Y-110656666D02*
X104592381Y-111228095D01*
X104592381Y-110942381D02*
X103592381Y-110942381D01*
X103735238Y-111037619D01*
X103830476Y-111132857D01*
X103878095Y-111228095D01*
X103592381Y-110037619D02*
X103592381Y-109942380D01*
X103640000Y-109847142D01*
X103687619Y-109799523D01*
X103782857Y-109751904D01*
X103973333Y-109704285D01*
X104211429Y-109704285D01*
X104401905Y-109751904D01*
X104497143Y-109799523D01*
X104544762Y-109847142D01*
X104592381Y-109942380D01*
X104592381Y-110037619D01*
X104544762Y-110132857D01*
X104497143Y-110180476D01*
X104401905Y-110228095D01*
X104211429Y-110275714D01*
X103973333Y-110275714D01*
X103782857Y-110228095D01*
X103687619Y-110180476D01*
X103640000Y-110132857D01*
X103592381Y-110037619D01*
X103592381Y-109085238D02*
X103592381Y-108989999D01*
X103640000Y-108894761D01*
X103687619Y-108847142D01*
X103782857Y-108799523D01*
X103973333Y-108751904D01*
X104211429Y-108751904D01*
X104401905Y-108799523D01*
X104497143Y-108847142D01*
X104544762Y-108894761D01*
X104592381Y-108989999D01*
X104592381Y-109085238D01*
X104544762Y-109180476D01*
X104497143Y-109228095D01*
X104401905Y-109275714D01*
X104211429Y-109323333D01*
X103973333Y-109323333D01*
X103782857Y-109275714D01*
X103687619Y-109228095D01*
X103640000Y-109180476D01*
X103592381Y-109085238D01*
X23312381Y-156630476D02*
X22312381Y-156630476D01*
X22312381Y-156249523D01*
X22360000Y-156154285D01*
X22407619Y-156106666D01*
X22502857Y-156059047D01*
X22645714Y-156059047D01*
X22740952Y-156106666D01*
X22788571Y-156154285D01*
X22836190Y-156249523D01*
X22836190Y-156630476D01*
X22407619Y-155678095D02*
X22360000Y-155630476D01*
X22312381Y-155535238D01*
X22312381Y-155297142D01*
X22360000Y-155201904D01*
X22407619Y-155154285D01*
X22502857Y-155106666D01*
X22598095Y-155106666D01*
X22740952Y-155154285D01*
X23312381Y-155725714D01*
X23312381Y-155106666D01*
X22312381Y-154487619D02*
X22312381Y-154392380D01*
X22360000Y-154297142D01*
X22407619Y-154249523D01*
X22502857Y-154201904D01*
X22693333Y-154154285D01*
X22931429Y-154154285D01*
X23121905Y-154201904D01*
X23217143Y-154249523D01*
X23264762Y-154297142D01*
X23312381Y-154392380D01*
X23312381Y-154487619D01*
X23264762Y-154582857D01*
X23217143Y-154630476D01*
X23121905Y-154678095D01*
X22931429Y-154725714D01*
X22693333Y-154725714D01*
X22502857Y-154678095D01*
X22407619Y-154630476D01*
X22360000Y-154582857D01*
X22312381Y-154487619D01*
X22312381Y-153535238D02*
X22312381Y-153439999D01*
X22360000Y-153344761D01*
X22407619Y-153297142D01*
X22502857Y-153249523D01*
X22693333Y-153201904D01*
X22931429Y-153201904D01*
X23121905Y-153249523D01*
X23217143Y-153297142D01*
X23264762Y-153344761D01*
X23312381Y-153439999D01*
X23312381Y-153535238D01*
X23264762Y-153630476D01*
X23217143Y-153678095D01*
X23121905Y-153725714D01*
X22931429Y-153773333D01*
X22693333Y-153773333D01*
X22502857Y-153725714D01*
X22407619Y-153678095D01*
X22360000Y-153630476D01*
X22312381Y-153535238D01*
X48712381Y-156630476D02*
X47712381Y-156630476D01*
X47712381Y-156249523D01*
X47760000Y-156154285D01*
X47807619Y-156106666D01*
X47902857Y-156059047D01*
X48045714Y-156059047D01*
X48140952Y-156106666D01*
X48188571Y-156154285D01*
X48236190Y-156249523D01*
X48236190Y-156630476D01*
X47807619Y-155678095D02*
X47760000Y-155630476D01*
X47712381Y-155535238D01*
X47712381Y-155297142D01*
X47760000Y-155201904D01*
X47807619Y-155154285D01*
X47902857Y-155106666D01*
X47998095Y-155106666D01*
X48140952Y-155154285D01*
X48712381Y-155725714D01*
X48712381Y-155106666D01*
X47712381Y-154487619D02*
X47712381Y-154392380D01*
X47760000Y-154297142D01*
X47807619Y-154249523D01*
X47902857Y-154201904D01*
X48093333Y-154154285D01*
X48331429Y-154154285D01*
X48521905Y-154201904D01*
X48617143Y-154249523D01*
X48664762Y-154297142D01*
X48712381Y-154392380D01*
X48712381Y-154487619D01*
X48664762Y-154582857D01*
X48617143Y-154630476D01*
X48521905Y-154678095D01*
X48331429Y-154725714D01*
X48093333Y-154725714D01*
X47902857Y-154678095D01*
X47807619Y-154630476D01*
X47760000Y-154582857D01*
X47712381Y-154487619D01*
X48712381Y-153201904D02*
X48712381Y-153773333D01*
X48712381Y-153487619D02*
X47712381Y-153487619D01*
X47855238Y-153582857D01*
X47950476Y-153678095D01*
X47998095Y-153773333D01*
X74112381Y-156630476D02*
X73112381Y-156630476D01*
X73112381Y-156249523D01*
X73160000Y-156154285D01*
X73207619Y-156106666D01*
X73302857Y-156059047D01*
X73445714Y-156059047D01*
X73540952Y-156106666D01*
X73588571Y-156154285D01*
X73636190Y-156249523D01*
X73636190Y-156630476D01*
X73207619Y-155678095D02*
X73160000Y-155630476D01*
X73112381Y-155535238D01*
X73112381Y-155297142D01*
X73160000Y-155201904D01*
X73207619Y-155154285D01*
X73302857Y-155106666D01*
X73398095Y-155106666D01*
X73540952Y-155154285D01*
X74112381Y-155725714D01*
X74112381Y-155106666D01*
X73112381Y-154487619D02*
X73112381Y-154392380D01*
X73160000Y-154297142D01*
X73207619Y-154249523D01*
X73302857Y-154201904D01*
X73493333Y-154154285D01*
X73731429Y-154154285D01*
X73921905Y-154201904D01*
X74017143Y-154249523D01*
X74064762Y-154297142D01*
X74112381Y-154392380D01*
X74112381Y-154487619D01*
X74064762Y-154582857D01*
X74017143Y-154630476D01*
X73921905Y-154678095D01*
X73731429Y-154725714D01*
X73493333Y-154725714D01*
X73302857Y-154678095D01*
X73207619Y-154630476D01*
X73160000Y-154582857D01*
X73112381Y-154487619D01*
X73207619Y-153773333D02*
X73160000Y-153725714D01*
X73112381Y-153630476D01*
X73112381Y-153392380D01*
X73160000Y-153297142D01*
X73207619Y-153249523D01*
X73302857Y-153201904D01*
X73398095Y-153201904D01*
X73540952Y-153249523D01*
X74112381Y-153820952D01*
X74112381Y-153201904D01*
X99512381Y-156630476D02*
X98512381Y-156630476D01*
X98512381Y-156249523D01*
X98560000Y-156154285D01*
X98607619Y-156106666D01*
X98702857Y-156059047D01*
X98845714Y-156059047D01*
X98940952Y-156106666D01*
X98988571Y-156154285D01*
X99036190Y-156249523D01*
X99036190Y-156630476D01*
X98607619Y-155678095D02*
X98560000Y-155630476D01*
X98512381Y-155535238D01*
X98512381Y-155297142D01*
X98560000Y-155201904D01*
X98607619Y-155154285D01*
X98702857Y-155106666D01*
X98798095Y-155106666D01*
X98940952Y-155154285D01*
X99512381Y-155725714D01*
X99512381Y-155106666D01*
X98512381Y-154487619D02*
X98512381Y-154392380D01*
X98560000Y-154297142D01*
X98607619Y-154249523D01*
X98702857Y-154201904D01*
X98893333Y-154154285D01*
X99131429Y-154154285D01*
X99321905Y-154201904D01*
X99417143Y-154249523D01*
X99464762Y-154297142D01*
X99512381Y-154392380D01*
X99512381Y-154487619D01*
X99464762Y-154582857D01*
X99417143Y-154630476D01*
X99321905Y-154678095D01*
X99131429Y-154725714D01*
X98893333Y-154725714D01*
X98702857Y-154678095D01*
X98607619Y-154630476D01*
X98560000Y-154582857D01*
X98512381Y-154487619D01*
X98512381Y-153820952D02*
X98512381Y-153201904D01*
X98893333Y-153535238D01*
X98893333Y-153392380D01*
X98940952Y-153297142D01*
X98988571Y-153249523D01*
X99083810Y-153201904D01*
X99321905Y-153201904D01*
X99417143Y-153249523D01*
X99464762Y-153297142D01*
X99512381Y-153392380D01*
X99512381Y-153678095D01*
X99464762Y-153773333D01*
X99417143Y-153820952D01*
X124912381Y-156630476D02*
X123912381Y-156630476D01*
X123912381Y-156249523D01*
X123960000Y-156154285D01*
X124007619Y-156106666D01*
X124102857Y-156059047D01*
X124245714Y-156059047D01*
X124340952Y-156106666D01*
X124388571Y-156154285D01*
X124436190Y-156249523D01*
X124436190Y-156630476D01*
X124007619Y-155678095D02*
X123960000Y-155630476D01*
X123912381Y-155535238D01*
X123912381Y-155297142D01*
X123960000Y-155201904D01*
X124007619Y-155154285D01*
X124102857Y-155106666D01*
X124198095Y-155106666D01*
X124340952Y-155154285D01*
X124912381Y-155725714D01*
X124912381Y-155106666D01*
X123912381Y-154487619D02*
X123912381Y-154392380D01*
X123960000Y-154297142D01*
X124007619Y-154249523D01*
X124102857Y-154201904D01*
X124293333Y-154154285D01*
X124531429Y-154154285D01*
X124721905Y-154201904D01*
X124817143Y-154249523D01*
X124864762Y-154297142D01*
X124912381Y-154392380D01*
X124912381Y-154487619D01*
X124864762Y-154582857D01*
X124817143Y-154630476D01*
X124721905Y-154678095D01*
X124531429Y-154725714D01*
X124293333Y-154725714D01*
X124102857Y-154678095D01*
X124007619Y-154630476D01*
X123960000Y-154582857D01*
X123912381Y-154487619D01*
X124245714Y-153297142D02*
X124912381Y-153297142D01*
X123864762Y-153535238D02*
X124579048Y-153773333D01*
X124579048Y-153154285D01*
X112212381Y-8040476D02*
X111212381Y-8040476D01*
X111212381Y-7659523D01*
X111260000Y-7564285D01*
X111307619Y-7516666D01*
X111402857Y-7469047D01*
X111545714Y-7469047D01*
X111640952Y-7516666D01*
X111688571Y-7564285D01*
X111736190Y-7659523D01*
X111736190Y-8040476D01*
X111212381Y-7135714D02*
X111212381Y-6516666D01*
X111593333Y-6850000D01*
X111593333Y-6707142D01*
X111640952Y-6611904D01*
X111688571Y-6564285D01*
X111783810Y-6516666D01*
X112021905Y-6516666D01*
X112117143Y-6564285D01*
X112164762Y-6611904D01*
X112212381Y-6707142D01*
X112212381Y-6992857D01*
X112164762Y-7088095D01*
X112117143Y-7135714D01*
X111212381Y-5897619D02*
X111212381Y-5802380D01*
X111260000Y-5707142D01*
X111307619Y-5659523D01*
X111402857Y-5611904D01*
X111593333Y-5564285D01*
X111831429Y-5564285D01*
X112021905Y-5611904D01*
X112117143Y-5659523D01*
X112164762Y-5707142D01*
X112212381Y-5802380D01*
X112212381Y-5897619D01*
X112164762Y-5992857D01*
X112117143Y-6040476D01*
X112021905Y-6088095D01*
X111831429Y-6135714D01*
X111593333Y-6135714D01*
X111402857Y-6088095D01*
X111307619Y-6040476D01*
X111260000Y-5992857D01*
X111212381Y-5897619D01*
X111212381Y-4945238D02*
X111212381Y-4849999D01*
X111260000Y-4754761D01*
X111307619Y-4707142D01*
X111402857Y-4659523D01*
X111593333Y-4611904D01*
X111831429Y-4611904D01*
X112021905Y-4659523D01*
X112117143Y-4707142D01*
X112164762Y-4754761D01*
X112212381Y-4849999D01*
X112212381Y-4945238D01*
X112164762Y-5040476D01*
X112117143Y-5088095D01*
X112021905Y-5135714D01*
X111831429Y-5183333D01*
X111593333Y-5183333D01*
X111402857Y-5135714D01*
X111307619Y-5088095D01*
X111260000Y-5040476D01*
X111212381Y-4945238D01*
X86812381Y-8040476D02*
X85812381Y-8040476D01*
X85812381Y-7659523D01*
X85860000Y-7564285D01*
X85907619Y-7516666D01*
X86002857Y-7469047D01*
X86145714Y-7469047D01*
X86240952Y-7516666D01*
X86288571Y-7564285D01*
X86336190Y-7659523D01*
X86336190Y-8040476D01*
X85812381Y-7135714D02*
X85812381Y-6516666D01*
X86193333Y-6850000D01*
X86193333Y-6707142D01*
X86240952Y-6611904D01*
X86288571Y-6564285D01*
X86383810Y-6516666D01*
X86621905Y-6516666D01*
X86717143Y-6564285D01*
X86764762Y-6611904D01*
X86812381Y-6707142D01*
X86812381Y-6992857D01*
X86764762Y-7088095D01*
X86717143Y-7135714D01*
X85812381Y-5897619D02*
X85812381Y-5802380D01*
X85860000Y-5707142D01*
X85907619Y-5659523D01*
X86002857Y-5611904D01*
X86193333Y-5564285D01*
X86431429Y-5564285D01*
X86621905Y-5611904D01*
X86717143Y-5659523D01*
X86764762Y-5707142D01*
X86812381Y-5802380D01*
X86812381Y-5897619D01*
X86764762Y-5992857D01*
X86717143Y-6040476D01*
X86621905Y-6088095D01*
X86431429Y-6135714D01*
X86193333Y-6135714D01*
X86002857Y-6088095D01*
X85907619Y-6040476D01*
X85860000Y-5992857D01*
X85812381Y-5897619D01*
X86812381Y-4611904D02*
X86812381Y-5183333D01*
X86812381Y-4897619D02*
X85812381Y-4897619D01*
X85955238Y-4992857D01*
X86050476Y-5088095D01*
X86098095Y-5183333D01*
X122162381Y-69000476D02*
X121162381Y-69000476D01*
X121162381Y-68619523D01*
X121210000Y-68524285D01*
X121257619Y-68476666D01*
X121352857Y-68429047D01*
X121495714Y-68429047D01*
X121590952Y-68476666D01*
X121638571Y-68524285D01*
X121686190Y-68619523D01*
X121686190Y-69000476D01*
X121495714Y-67571904D02*
X122162381Y-67571904D01*
X121114762Y-67810000D02*
X121829048Y-68048095D01*
X121829048Y-67429047D01*
X121162381Y-66857619D02*
X121162381Y-66762380D01*
X121210000Y-66667142D01*
X121257619Y-66619523D01*
X121352857Y-66571904D01*
X121543333Y-66524285D01*
X121781429Y-66524285D01*
X121971905Y-66571904D01*
X122067143Y-66619523D01*
X122114762Y-66667142D01*
X122162381Y-66762380D01*
X122162381Y-66857619D01*
X122114762Y-66952857D01*
X122067143Y-67000476D01*
X121971905Y-67048095D01*
X121781429Y-67095714D01*
X121543333Y-67095714D01*
X121352857Y-67048095D01*
X121257619Y-67000476D01*
X121210000Y-66952857D01*
X121162381Y-66857619D01*
X121162381Y-65905238D02*
X121162381Y-65809999D01*
X121210000Y-65714761D01*
X121257619Y-65667142D01*
X121352857Y-65619523D01*
X121543333Y-65571904D01*
X121781429Y-65571904D01*
X121971905Y-65619523D01*
X122067143Y-65667142D01*
X122114762Y-65714761D01*
X122162381Y-65809999D01*
X122162381Y-65905238D01*
X122114762Y-66000476D01*
X122067143Y-66048095D01*
X121971905Y-66095714D01*
X121781429Y-66143333D01*
X121543333Y-66143333D01*
X121352857Y-66095714D01*
X121257619Y-66048095D01*
X121210000Y-66000476D01*
X121162381Y-65905238D01*
X91718095Y-36892381D02*
X91718095Y-35892381D01*
X92051429Y-36606667D01*
X92384762Y-35892381D01*
X92384762Y-36892381D01*
X92860952Y-36892381D02*
X92860952Y-35892381D01*
X93432381Y-36892381D02*
X93003809Y-36320952D01*
X93432381Y-35892381D02*
X92860952Y-36463810D01*
X94289524Y-36225714D02*
X94289524Y-36892381D01*
X94051428Y-35844762D02*
X93813333Y-36559048D01*
X94432381Y-36559048D01*
X95003809Y-35892381D02*
X95099048Y-35892381D01*
X95194286Y-35940000D01*
X95241905Y-35987619D01*
X95289524Y-36082857D01*
X95337143Y-36273333D01*
X95337143Y-36511429D01*
X95289524Y-36701905D01*
X95241905Y-36797143D01*
X95194286Y-36844762D01*
X95099048Y-36892381D01*
X95003809Y-36892381D01*
X94908571Y-36844762D01*
X94860952Y-36797143D01*
X94813333Y-36701905D01*
X94765714Y-36511429D01*
X94765714Y-36273333D01*
X94813333Y-36082857D01*
X94860952Y-35987619D01*
X94908571Y-35940000D01*
X95003809Y-35892381D01*
X96289524Y-36892381D02*
X95718095Y-36892381D01*
X96003809Y-36892381D02*
X96003809Y-35892381D01*
X95908571Y-36035238D01*
X95813333Y-36130476D01*
X95718095Y-36178095D01*
X134898095Y-36892381D02*
X134898095Y-35892381D01*
X135231429Y-36606667D01*
X135564762Y-35892381D01*
X135564762Y-36892381D01*
X136040952Y-36892381D02*
X136040952Y-35892381D01*
X136612381Y-36892381D02*
X136183809Y-36320952D01*
X136612381Y-35892381D02*
X136040952Y-36463810D01*
X137469524Y-36225714D02*
X137469524Y-36892381D01*
X137231428Y-35844762D02*
X136993333Y-36559048D01*
X137612381Y-36559048D01*
X138183809Y-35892381D02*
X138279048Y-35892381D01*
X138374286Y-35940000D01*
X138421905Y-35987619D01*
X138469524Y-36082857D01*
X138517143Y-36273333D01*
X138517143Y-36511429D01*
X138469524Y-36701905D01*
X138421905Y-36797143D01*
X138374286Y-36844762D01*
X138279048Y-36892381D01*
X138183809Y-36892381D01*
X138088571Y-36844762D01*
X138040952Y-36797143D01*
X137993333Y-36701905D01*
X137945714Y-36511429D01*
X137945714Y-36273333D01*
X137993333Y-36082857D01*
X138040952Y-35987619D01*
X138088571Y-35940000D01*
X138183809Y-35892381D01*
X138898095Y-35987619D02*
X138945714Y-35940000D01*
X139040952Y-35892381D01*
X139279048Y-35892381D01*
X139374286Y-35940000D01*
X139421905Y-35987619D01*
X139469524Y-36082857D01*
X139469524Y-36178095D01*
X139421905Y-36320952D01*
X138850476Y-36892381D01*
X139469524Y-36892381D01*
X91718095Y-62292381D02*
X91718095Y-61292381D01*
X92051429Y-62006667D01*
X92384762Y-61292381D01*
X92384762Y-62292381D01*
X92860952Y-62292381D02*
X92860952Y-61292381D01*
X93432381Y-62292381D02*
X93003809Y-61720952D01*
X93432381Y-61292381D02*
X92860952Y-61863810D01*
X94289524Y-61625714D02*
X94289524Y-62292381D01*
X94051428Y-61244762D02*
X93813333Y-61959048D01*
X94432381Y-61959048D01*
X95003809Y-61292381D02*
X95099048Y-61292381D01*
X95194286Y-61340000D01*
X95241905Y-61387619D01*
X95289524Y-61482857D01*
X95337143Y-61673333D01*
X95337143Y-61911429D01*
X95289524Y-62101905D01*
X95241905Y-62197143D01*
X95194286Y-62244762D01*
X95099048Y-62292381D01*
X95003809Y-62292381D01*
X94908571Y-62244762D01*
X94860952Y-62197143D01*
X94813333Y-62101905D01*
X94765714Y-61911429D01*
X94765714Y-61673333D01*
X94813333Y-61482857D01*
X94860952Y-61387619D01*
X94908571Y-61340000D01*
X95003809Y-61292381D01*
X95670476Y-61292381D02*
X96289524Y-61292381D01*
X95956190Y-61673333D01*
X96099048Y-61673333D01*
X96194286Y-61720952D01*
X96241905Y-61768571D01*
X96289524Y-61863810D01*
X96289524Y-62101905D01*
X96241905Y-62197143D01*
X96194286Y-62244762D01*
X96099048Y-62292381D01*
X95813333Y-62292381D01*
X95718095Y-62244762D01*
X95670476Y-62197143D01*
X134898095Y-62292381D02*
X134898095Y-61292381D01*
X135231429Y-62006667D01*
X135564762Y-61292381D01*
X135564762Y-62292381D01*
X136040952Y-62292381D02*
X136040952Y-61292381D01*
X136612381Y-62292381D02*
X136183809Y-61720952D01*
X136612381Y-61292381D02*
X136040952Y-61863810D01*
X137469524Y-61625714D02*
X137469524Y-62292381D01*
X137231428Y-61244762D02*
X136993333Y-61959048D01*
X137612381Y-61959048D01*
X138183809Y-61292381D02*
X138279048Y-61292381D01*
X138374286Y-61340000D01*
X138421905Y-61387619D01*
X138469524Y-61482857D01*
X138517143Y-61673333D01*
X138517143Y-61911429D01*
X138469524Y-62101905D01*
X138421905Y-62197143D01*
X138374286Y-62244762D01*
X138279048Y-62292381D01*
X138183809Y-62292381D01*
X138088571Y-62244762D01*
X138040952Y-62197143D01*
X137993333Y-62101905D01*
X137945714Y-61911429D01*
X137945714Y-61673333D01*
X137993333Y-61482857D01*
X138040952Y-61387619D01*
X138088571Y-61340000D01*
X138183809Y-61292381D01*
X139374286Y-61625714D02*
X139374286Y-62292381D01*
X139136190Y-61244762D02*
X138898095Y-61959048D01*
X139517143Y-61959048D01*
X99338095Y-108012381D02*
X99338095Y-107012381D01*
X99671429Y-107726667D01*
X100004762Y-107012381D01*
X100004762Y-108012381D01*
X100480952Y-108012381D02*
X100480952Y-107012381D01*
X101052381Y-108012381D02*
X100623809Y-107440952D01*
X101052381Y-107012381D02*
X100480952Y-107583810D01*
X102004762Y-108012381D02*
X101433333Y-108012381D01*
X101719047Y-108012381D02*
X101719047Y-107012381D01*
X101623809Y-107155238D01*
X101528571Y-107250476D01*
X101433333Y-107298095D01*
X102623809Y-107012381D02*
X102719048Y-107012381D01*
X102814286Y-107060000D01*
X102861905Y-107107619D01*
X102909524Y-107202857D01*
X102957143Y-107393333D01*
X102957143Y-107631429D01*
X102909524Y-107821905D01*
X102861905Y-107917143D01*
X102814286Y-107964762D01*
X102719048Y-108012381D01*
X102623809Y-108012381D01*
X102528571Y-107964762D01*
X102480952Y-107917143D01*
X102433333Y-107821905D01*
X102385714Y-107631429D01*
X102385714Y-107393333D01*
X102433333Y-107202857D01*
X102480952Y-107107619D01*
X102528571Y-107060000D01*
X102623809Y-107012381D01*
X103909524Y-108012381D02*
X103338095Y-108012381D01*
X103623809Y-108012381D02*
X103623809Y-107012381D01*
X103528571Y-107155238D01*
X103433333Y-107250476D01*
X103338095Y-107298095D01*
X137438095Y-108012381D02*
X137438095Y-107012381D01*
X137771429Y-107726667D01*
X138104762Y-107012381D01*
X138104762Y-108012381D01*
X138580952Y-108012381D02*
X138580952Y-107012381D01*
X139152381Y-108012381D02*
X138723809Y-107440952D01*
X139152381Y-107012381D02*
X138580952Y-107583810D01*
X140104762Y-108012381D02*
X139533333Y-108012381D01*
X139819047Y-108012381D02*
X139819047Y-107012381D01*
X139723809Y-107155238D01*
X139628571Y-107250476D01*
X139533333Y-107298095D01*
X140723809Y-107012381D02*
X140819048Y-107012381D01*
X140914286Y-107060000D01*
X140961905Y-107107619D01*
X141009524Y-107202857D01*
X141057143Y-107393333D01*
X141057143Y-107631429D01*
X141009524Y-107821905D01*
X140961905Y-107917143D01*
X140914286Y-107964762D01*
X140819048Y-108012381D01*
X140723809Y-108012381D01*
X140628571Y-107964762D01*
X140580952Y-107917143D01*
X140533333Y-107821905D01*
X140485714Y-107631429D01*
X140485714Y-107393333D01*
X140533333Y-107202857D01*
X140580952Y-107107619D01*
X140628571Y-107060000D01*
X140723809Y-107012381D01*
X141438095Y-107107619D02*
X141485714Y-107060000D01*
X141580952Y-107012381D01*
X141819048Y-107012381D01*
X141914286Y-107060000D01*
X141961905Y-107107619D01*
X142009524Y-107202857D01*
X142009524Y-107298095D01*
X141961905Y-107440952D01*
X141390476Y-108012381D01*
X142009524Y-108012381D01*
X197469286Y-94067381D02*
X197469286Y-94781667D01*
X197421666Y-94924524D01*
X197326428Y-95019762D01*
X197183571Y-95067381D01*
X197088333Y-95067381D01*
X198421667Y-94067381D02*
X197945476Y-94067381D01*
X197897857Y-94543571D01*
X197945476Y-94495952D01*
X198040714Y-94448333D01*
X198278810Y-94448333D01*
X198374048Y-94495952D01*
X198421667Y-94543571D01*
X198469286Y-94638810D01*
X198469286Y-94876905D01*
X198421667Y-94972143D01*
X198374048Y-95019762D01*
X198278810Y-95067381D01*
X198040714Y-95067381D01*
X197945476Y-95019762D01*
X197897857Y-94972143D01*
X199088333Y-94067381D02*
X199183572Y-94067381D01*
X199278810Y-94115000D01*
X199326429Y-94162619D01*
X199374048Y-94257857D01*
X199421667Y-94448333D01*
X199421667Y-94686429D01*
X199374048Y-94876905D01*
X199326429Y-94972143D01*
X199278810Y-95019762D01*
X199183572Y-95067381D01*
X199088333Y-95067381D01*
X198993095Y-95019762D01*
X198945476Y-94972143D01*
X198897857Y-94876905D01*
X198850238Y-94686429D01*
X198850238Y-94448333D01*
X198897857Y-94257857D01*
X198945476Y-94162619D01*
X198993095Y-94115000D01*
X199088333Y-94067381D01*
X200374048Y-95067381D02*
X199802619Y-95067381D01*
X200088333Y-95067381D02*
X200088333Y-94067381D01*
X199993095Y-94210238D01*
X199897857Y-94305476D01*
X199802619Y-94353095D01*
X197429762Y-92257619D02*
X197477381Y-92210000D01*
X197572619Y-92162381D01*
X197810715Y-92162381D01*
X197905953Y-92210000D01*
X197953572Y-92257619D01*
X198001191Y-92352857D01*
X198001191Y-92448095D01*
X197953572Y-92590952D01*
X197382143Y-93162381D01*
X198001191Y-93162381D01*
X198334524Y-92162381D02*
X198953572Y-92162381D01*
X198620238Y-92543333D01*
X198763096Y-92543333D01*
X198858334Y-92590952D01*
X198905953Y-92638571D01*
X198953572Y-92733810D01*
X198953572Y-92971905D01*
X198905953Y-93067143D01*
X198858334Y-93114762D01*
X198763096Y-93162381D01*
X198477381Y-93162381D01*
X198382143Y-93114762D01*
X198334524Y-93067143D01*
X199572619Y-92162381D02*
X199667858Y-92162381D01*
X199763096Y-92210000D01*
X199810715Y-92257619D01*
X199858334Y-92352857D01*
X199905953Y-92543333D01*
X199905953Y-92781429D01*
X199858334Y-92971905D01*
X199810715Y-93067143D01*
X199763096Y-93114762D01*
X199667858Y-93162381D01*
X199572619Y-93162381D01*
X199477381Y-93114762D01*
X199429762Y-93067143D01*
X199382143Y-92971905D01*
X199334524Y-92781429D01*
X199334524Y-92543333D01*
X199382143Y-92352857D01*
X199429762Y-92257619D01*
X199477381Y-92210000D01*
X199572619Y-92162381D01*
X200191667Y-92162381D02*
X200525000Y-93162381D01*
X200858334Y-92162381D01*
X201144048Y-92876667D02*
X201620239Y-92876667D01*
X201048810Y-93162381D02*
X201382143Y-92162381D01*
X201715477Y-93162381D01*
X202620239Y-93067143D02*
X202572620Y-93114762D01*
X202429763Y-93162381D01*
X202334525Y-93162381D01*
X202191667Y-93114762D01*
X202096429Y-93019524D01*
X202048810Y-92924286D01*
X202001191Y-92733810D01*
X202001191Y-92590952D01*
X202048810Y-92400476D01*
X202096429Y-92305238D01*
X202191667Y-92210000D01*
X202334525Y-92162381D01*
X202429763Y-92162381D01*
X202572620Y-92210000D01*
X202620239Y-92257619D01*
X222234286Y-94067381D02*
X222234286Y-94781667D01*
X222186666Y-94924524D01*
X222091428Y-95019762D01*
X221948571Y-95067381D01*
X221853333Y-95067381D01*
X223186667Y-94067381D02*
X222710476Y-94067381D01*
X222662857Y-94543571D01*
X222710476Y-94495952D01*
X222805714Y-94448333D01*
X223043810Y-94448333D01*
X223139048Y-94495952D01*
X223186667Y-94543571D01*
X223234286Y-94638810D01*
X223234286Y-94876905D01*
X223186667Y-94972143D01*
X223139048Y-95019762D01*
X223043810Y-95067381D01*
X222805714Y-95067381D01*
X222710476Y-95019762D01*
X222662857Y-94972143D01*
X223853333Y-94067381D02*
X223948572Y-94067381D01*
X224043810Y-94115000D01*
X224091429Y-94162619D01*
X224139048Y-94257857D01*
X224186667Y-94448333D01*
X224186667Y-94686429D01*
X224139048Y-94876905D01*
X224091429Y-94972143D01*
X224043810Y-95019762D01*
X223948572Y-95067381D01*
X223853333Y-95067381D01*
X223758095Y-95019762D01*
X223710476Y-94972143D01*
X223662857Y-94876905D01*
X223615238Y-94686429D01*
X223615238Y-94448333D01*
X223662857Y-94257857D01*
X223710476Y-94162619D01*
X223758095Y-94115000D01*
X223853333Y-94067381D01*
X224567619Y-94162619D02*
X224615238Y-94115000D01*
X224710476Y-94067381D01*
X224948572Y-94067381D01*
X225043810Y-94115000D01*
X225091429Y-94162619D01*
X225139048Y-94257857D01*
X225139048Y-94353095D01*
X225091429Y-94495952D01*
X224520000Y-95067381D01*
X225139048Y-95067381D01*
X222329524Y-92162381D02*
X221853333Y-92162381D01*
X221805714Y-92638571D01*
X221853333Y-92590952D01*
X221948571Y-92543333D01*
X222186667Y-92543333D01*
X222281905Y-92590952D01*
X222329524Y-92638571D01*
X222377143Y-92733810D01*
X222377143Y-92971905D01*
X222329524Y-93067143D01*
X222281905Y-93114762D01*
X222186667Y-93162381D01*
X221948571Y-93162381D01*
X221853333Y-93114762D01*
X221805714Y-93067143D01*
X222662857Y-92162381D02*
X222996190Y-93162381D01*
X223329524Y-92162381D01*
X223662857Y-93162381D02*
X223662857Y-92162381D01*
X223900952Y-92162381D01*
X224043810Y-92210000D01*
X224139048Y-92305238D01*
X224186667Y-92400476D01*
X224234286Y-92590952D01*
X224234286Y-92733810D01*
X224186667Y-92924286D01*
X224139048Y-93019524D01*
X224043810Y-93114762D01*
X223900952Y-93162381D01*
X223662857Y-93162381D01*
X225234286Y-93067143D02*
X225186667Y-93114762D01*
X225043810Y-93162381D01*
X224948572Y-93162381D01*
X224805714Y-93114762D01*
X224710476Y-93019524D01*
X224662857Y-92924286D01*
X224615238Y-92733810D01*
X224615238Y-92590952D01*
X224662857Y-92400476D01*
X224710476Y-92305238D01*
X224805714Y-92210000D01*
X224948572Y-92162381D01*
X225043810Y-92162381D01*
X225186667Y-92210000D01*
X225234286Y-92257619D01*
X196405714Y-131532381D02*
X196405714Y-132341905D01*
X196453333Y-132437143D01*
X196500952Y-132484762D01*
X196596190Y-132532381D01*
X196786667Y-132532381D01*
X196881905Y-132484762D01*
X196929524Y-132437143D01*
X196977143Y-132341905D01*
X196977143Y-131532381D01*
X197929524Y-131532381D02*
X197453333Y-131532381D01*
X197405714Y-132008571D01*
X197453333Y-131960952D01*
X197548571Y-131913333D01*
X197786667Y-131913333D01*
X197881905Y-131960952D01*
X197929524Y-132008571D01*
X197977143Y-132103810D01*
X197977143Y-132341905D01*
X197929524Y-132437143D01*
X197881905Y-132484762D01*
X197786667Y-132532381D01*
X197548571Y-132532381D01*
X197453333Y-132484762D01*
X197405714Y-132437143D01*
X198596190Y-131532381D02*
X198691429Y-131532381D01*
X198786667Y-131580000D01*
X198834286Y-131627619D01*
X198881905Y-131722857D01*
X198929524Y-131913333D01*
X198929524Y-132151429D01*
X198881905Y-132341905D01*
X198834286Y-132437143D01*
X198786667Y-132484762D01*
X198691429Y-132532381D01*
X198596190Y-132532381D01*
X198500952Y-132484762D01*
X198453333Y-132437143D01*
X198405714Y-132341905D01*
X198358095Y-132151429D01*
X198358095Y-131913333D01*
X198405714Y-131722857D01*
X198453333Y-131627619D01*
X198500952Y-131580000D01*
X198596190Y-131532381D01*
X199881905Y-132532381D02*
X199310476Y-132532381D01*
X199596190Y-132532381D02*
X199596190Y-131532381D01*
X199500952Y-131675238D01*
X199405714Y-131770476D01*
X199310476Y-131818095D01*
X216860953Y-132532381D02*
X216527619Y-132056190D01*
X216289524Y-132532381D02*
X216289524Y-131532381D01*
X216670477Y-131532381D01*
X216765715Y-131580000D01*
X216813334Y-131627619D01*
X216860953Y-131722857D01*
X216860953Y-131865714D01*
X216813334Y-131960952D01*
X216765715Y-132008571D01*
X216670477Y-132056190D01*
X216289524Y-132056190D01*
X217241905Y-132246667D02*
X217718096Y-132246667D01*
X217146667Y-132532381D02*
X217480000Y-131532381D01*
X217813334Y-132532381D01*
X218718096Y-132437143D02*
X218670477Y-132484762D01*
X218527620Y-132532381D01*
X218432382Y-132532381D01*
X218289524Y-132484762D01*
X218194286Y-132389524D01*
X218146667Y-132294286D01*
X218099048Y-132103810D01*
X218099048Y-131960952D01*
X218146667Y-131770476D01*
X218194286Y-131675238D01*
X218289524Y-131580000D01*
X218432382Y-131532381D01*
X218527620Y-131532381D01*
X218670477Y-131580000D01*
X218718096Y-131627619D01*
X219670477Y-132532381D02*
X219099048Y-132532381D01*
X219384762Y-132532381D02*
X219384762Y-131532381D01*
X219289524Y-131675238D01*
X219194286Y-131770476D01*
X219099048Y-131818095D01*
X220575239Y-131532381D02*
X220099048Y-131532381D01*
X220051429Y-132008571D01*
X220099048Y-131960952D01*
X220194286Y-131913333D01*
X220432382Y-131913333D01*
X220527620Y-131960952D01*
X220575239Y-132008571D01*
X220622858Y-132103810D01*
X220622858Y-132341905D01*
X220575239Y-132437143D01*
X220527620Y-132484762D01*
X220432382Y-132532381D01*
X220194286Y-132532381D01*
X220099048Y-132484762D01*
X220051429Y-132437143D01*
X221051429Y-132151429D02*
X221813334Y-132151429D01*
X222480000Y-131532381D02*
X222575239Y-131532381D01*
X222670477Y-131580000D01*
X222718096Y-131627619D01*
X222765715Y-131722857D01*
X222813334Y-131913333D01*
X222813334Y-132151429D01*
X222765715Y-132341905D01*
X222718096Y-132437143D01*
X222670477Y-132484762D01*
X222575239Y-132532381D01*
X222480000Y-132532381D01*
X222384762Y-132484762D01*
X222337143Y-132437143D01*
X222289524Y-132341905D01*
X222241905Y-132151429D01*
X222241905Y-131913333D01*
X222289524Y-131722857D01*
X222337143Y-131627619D01*
X222384762Y-131580000D01*
X222480000Y-131532381D01*
X223718096Y-131532381D02*
X223241905Y-131532381D01*
X223194286Y-132008571D01*
X223241905Y-131960952D01*
X223337143Y-131913333D01*
X223575239Y-131913333D01*
X223670477Y-131960952D01*
X223718096Y-132008571D01*
X223765715Y-132103810D01*
X223765715Y-132341905D01*
X223718096Y-132437143D01*
X223670477Y-132484762D01*
X223575239Y-132532381D01*
X223337143Y-132532381D01*
X223241905Y-132484762D01*
X223194286Y-132437143D01*
X224146667Y-132484762D02*
X224289524Y-132532381D01*
X224527620Y-132532381D01*
X224622858Y-132484762D01*
X224670477Y-132437143D01*
X224718096Y-132341905D01*
X224718096Y-132246667D01*
X224670477Y-132151429D01*
X224622858Y-132103810D01*
X224527620Y-132056190D01*
X224337143Y-132008571D01*
X224241905Y-131960952D01*
X224194286Y-131913333D01*
X224146667Y-131818095D01*
X224146667Y-131722857D01*
X224194286Y-131627619D01*
X224241905Y-131580000D01*
X224337143Y-131532381D01*
X224575239Y-131532381D01*
X224718096Y-131580000D01*
X225146667Y-132532381D02*
X225146667Y-131532381D01*
X225718096Y-132532381D02*
X225289524Y-131960952D01*
X225718096Y-131532381D02*
X225146667Y-132103810D01*
M02*
