G04 #@! TF.FileFunction,Profile,NP*
%FSLAX46Y46*%
G04 Gerber Fmt 4.6, Leading zero omitted, Abs format (unit mm)*
G04 Created by KiCad (PCBNEW 4.0.6) date 11/03/19 16:58:40*
%MOMM*%
%LPD*%
G01*
G04 APERTURE LIST*
%ADD10C,0.100000*%
G04 APERTURE END LIST*
D10*
X137160000Y-15240000D02*
X88900000Y-15240000D01*
X137160000Y0D02*
X137160000Y-15240000D01*
X88900000Y0D02*
X137160000Y0D01*
X185420000Y-139700000D02*
X185420000Y-91440000D01*
X236220000Y-139700000D02*
X185420000Y-139700000D01*
X236220000Y-91440000D02*
X236220000Y-139700000D01*
X185420000Y-91440000D02*
X236220000Y-91440000D01*
X96520000Y-116840000D02*
X96520000Y-104140000D01*
X144780000Y-116840000D02*
X96520000Y-116840000D01*
X144780000Y-104140000D02*
X144780000Y-116840000D01*
X96520000Y-104140000D02*
X144780000Y-104140000D01*
X25400000Y-160020000D02*
X25400000Y-149860000D01*
X149860000Y-160020000D02*
X25400000Y-160020000D01*
X149860000Y-149860000D02*
X149860000Y-160020000D01*
X25400000Y-149860000D02*
X149860000Y-149860000D01*
X88900000Y0D02*
X88900000Y-15240000D01*
X88900000Y-71120000D02*
X88900000Y-35560000D01*
X142240000Y-71120000D02*
X88900000Y-71120000D01*
X142240000Y-35560000D02*
X142240000Y-71120000D01*
X88900000Y-35560000D02*
X142240000Y-35560000D01*
M02*
