M48
;DRILL file {KiCad 4.0.5} date 01/10/17 22:43:56
;FORMAT={-:-/ absolute / inch / decimal}
FMAT,2
INCH,TZ
T1C0.016
T2C0.031
T3C0.032
T4C0.039
T5C0.039
T6C0.040
T7C0.043
T8C0.126
%
G90
G05
M72
T1
X0.725Y-1.475
X0.775Y-1.125
X0.775Y-1.425
X0.825Y-1.175
X0.825Y-1.425
X0.825Y-1.525
X0.85Y-4.675
X0.925Y-4.85
X1.025Y-0.8
X1.125Y-0.9
X1.225Y-1.125
X1.325Y-1.525
X1.325Y-4.525
X1.35Y-2.75
X1.425Y-6.075
X1.45Y-1.125
X1.5Y-1.075
X1.525Y-2.675
X1.525Y-4.575
X1.6Y-6.125
X1.625Y-2.675
X1.65Y-1.125
X1.65Y-1.175
X1.75Y-2.575
X1.8Y-4.05
X1.825Y-4.375
X1.825Y-4.65
X1.875Y-2.05
X1.875Y-2.575
X1.875Y-4.325
X1.925Y-2.675
X1.925Y-2.925
X1.975Y-2.625
X2.025Y-1.625
X2.025Y-2.05
X2.05Y-2.825
X2.05Y-6.125
X2.075Y-1.475
X2.075Y-2.05
X2.225Y-4.175
X2.225Y-6.075
X2.275Y-2.775
X2.275Y-4.175
X2.325Y-1.625
X2.5Y-4.65
X2.55Y-4.65
X2.65Y-4.575
X2.7Y-4.525
X2.75Y-4.475
X2.8Y-4.425
X2.85Y-4.375
X2.9Y-4.325
X3.075Y-5.75
X3.125Y-5.775
T2
X0.8Y-5.15
X0.825Y-1.8
X0.825Y-1.9
X0.825Y-2.
X0.825Y-2.1
X0.825Y-2.2
X0.825Y-2.3
X0.825Y-2.4
X0.825Y-2.5
X0.825Y-2.6
X0.825Y-4.95
X1.Y-5.15
X1.025Y-4.95
X1.225Y-4.95
X1.3Y-5.15
X1.3Y-5.45
X1.325Y-5.7
X1.4Y-5.15
X1.4Y-5.45
X1.425Y-4.95
X1.45Y-2.85
X1.45Y-3.05
X1.45Y-3.25
X1.45Y-3.45
X1.45Y-3.65
X1.45Y-3.85
X1.45Y-4.05
X1.45Y-4.25
X1.5Y-5.15
X1.5Y-5.45
X1.525Y-5.7
X1.6Y-5.15
X1.6Y-5.45
X1.625Y-4.95
X1.7Y-2.95
X1.7Y-3.05
X1.7Y-3.15
X1.7Y-3.25
X1.7Y-3.35
X1.7Y-3.45
X1.7Y-3.55
X1.7Y-3.65
X1.7Y-3.75
X1.7Y-3.85
X1.7Y-3.95
X1.7Y-4.05
X1.7Y-4.15
X1.7Y-4.25
X1.7Y-5.15
X1.7Y-5.45
X1.725Y-5.7
X1.8Y-3.75
X1.8Y-5.15
X1.8Y-5.45
X1.825Y-4.95
X1.9Y-5.15
X1.9Y-5.45
X1.925Y-5.7
X2.Y-2.95
X2.Y-3.05
X2.Y-3.15
X2.Y-3.25
X2.Y-3.35
X2.Y-3.45
X2.Y-3.55
X2.Y-3.65
X2.Y-3.75
X2.Y-3.85
X2.Y-3.95
X2.Y-4.05
X2.Y-4.15
X2.Y-4.25
X2.Y-5.15
X2.Y-5.45
X2.025Y-4.95
X2.1Y-5.15
X2.1Y-5.35
X2.1Y-5.45
X2.125Y-0.7
X2.125Y-1.
X2.125Y-2.4
X2.125Y-2.5
X2.125Y-5.7
X2.2Y-5.15
X2.2Y-5.45
X2.225Y-0.7
X2.225Y-0.8
X2.225Y-1.
X2.225Y-1.8
X2.225Y-1.9
X2.225Y-2.
X2.225Y-2.1
X2.225Y-2.2
X2.225Y-2.3
X2.225Y-2.4
X2.225Y-2.5
X2.225Y-4.95
X2.3Y-5.15
X2.3Y-5.45
X2.325Y-0.7
X2.325Y-1.
X2.325Y-5.7
X2.35Y-2.75
X2.35Y-2.95
X2.35Y-3.15
X2.35Y-3.35
X2.35Y-3.55
X2.35Y-3.75
X2.35Y-3.95
X2.35Y-4.15
X2.4Y-5.15
X2.4Y-5.45
X2.425Y-0.7
X2.425Y-1.
X2.425Y-2.1
X2.425Y-2.2
X2.425Y-2.3
X2.5Y-5.15
X2.5Y-5.45
X2.525Y-0.7
X2.525Y-1.
X2.525Y-1.8
X2.525Y-1.9
X2.525Y-2.
X2.525Y-2.1
X2.525Y-2.2
X2.525Y-2.3
X2.525Y-2.4
X2.525Y-2.5
X2.525Y-5.7
X2.6Y-5.15
X2.6Y-5.45
X2.625Y-0.7
X2.625Y-1.
X2.725Y-0.7
X2.725Y-1.
X2.725Y-5.7
T3
X0.8Y-5.2484
X0.825Y-4.8516
X1.Y-5.2484
X1.025Y-4.8516
X1.225Y-4.8516
X1.325Y-5.7984
X1.3516Y-2.85
X1.3516Y-3.05
X1.3516Y-3.25
X1.3516Y-3.45
X1.3516Y-3.65
X1.3516Y-3.85
X1.3516Y-4.05
X1.3516Y-4.25
X1.425Y-4.8516
X1.525Y-5.7984
X1.625Y-4.8516
X1.725Y-5.7984
X1.8Y-3.8484
X1.825Y-4.8516
X1.925Y-5.7984
X2.025Y-4.8516
X2.125Y-2.3016
X2.125Y-2.5984
X2.125Y-5.7984
X2.1984Y-5.35
X2.225Y-4.8516
X2.3234Y-0.8
X2.325Y-5.7984
X2.3266Y-2.1
X2.3266Y-2.2
X2.3266Y-2.3
X2.4484Y-2.75
X2.4484Y-2.95
X2.4484Y-3.15
X2.4484Y-3.35
X2.4484Y-3.55
X2.4484Y-3.75
X2.4484Y-3.95
X2.4484Y-4.15
X2.525Y-5.7984
X2.725Y-5.7984
T4
X0.9Y-5.8
X0.9Y-5.9
X0.9Y-6.
X0.9Y-6.1
X1.Y-5.8
X1.Y-5.9
X1.Y-6.
X1.Y-6.1
X1.325Y-0.8
X1.325Y-0.9
X1.425Y-0.8
X1.425Y-0.9
X1.525Y-0.8
X1.525Y-0.9
X1.625Y-0.8
X1.625Y-0.9
X2.8Y-4.65
X2.8Y-4.75
X2.8Y-4.85
X2.8Y-4.95
X2.8Y-5.05
X2.8Y-5.15
X2.8Y-5.25
X2.8Y-5.35
X2.9Y-4.65
X2.9Y-4.75
X2.9Y-4.85
X2.9Y-4.95
X2.9Y-5.05
X2.9Y-5.15
X2.9Y-5.25
X2.9Y-5.35
T5
X0.7Y-5.15
X0.7Y-5.45
X0.8Y-5.35
X0.8Y-5.65
X0.825Y-4.45
X0.825Y-4.75
X0.9Y-5.15
X0.9Y-5.45
X0.925Y-2.
X0.925Y-2.3
X0.925Y-2.6
X0.925Y-4.65
X0.925Y-4.95
X0.95Y-2.85
X0.95Y-3.05
X0.95Y-3.25
X0.95Y-3.45
X0.95Y-3.65
X0.95Y-3.85
X0.95Y-4.05
X0.95Y-4.25
X1.Y-5.35
X1.Y-5.65
X1.025Y-4.45
X1.025Y-4.75
X1.125Y-4.65
X1.125Y-4.95
X1.15Y-2.75
X1.15Y-2.95
X1.15Y-3.15
X1.15Y-3.35
X1.15Y-3.55
X1.15Y-3.75
X1.15Y-3.95
X1.15Y-4.15
X1.225Y-2.
X1.225Y-2.3
X1.225Y-2.6
X1.225Y-4.45
X1.225Y-4.75
X1.225Y-5.7
X1.225Y-6.
X1.25Y-2.85
X1.25Y-3.05
X1.25Y-3.25
X1.25Y-3.45
X1.25Y-3.65
X1.25Y-3.85
X1.25Y-4.05
X1.25Y-4.25
X1.325Y-4.65
X1.325Y-4.95
X1.325Y-5.9
X1.325Y-6.2
X1.425Y-1.6
X1.425Y-1.9
X1.425Y-4.45
X1.425Y-4.75
X1.425Y-5.7
X1.425Y-6.
X1.45Y-2.75
X1.45Y-2.95
X1.45Y-3.15
X1.45Y-3.35
X1.45Y-3.55
X1.45Y-3.75
X1.45Y-3.95
X1.45Y-4.15
X1.525Y-1.6
X1.525Y-1.9
X1.525Y-4.65
X1.525Y-4.95
X1.525Y-5.9
X1.525Y-6.2
X1.625Y-1.6
X1.625Y-1.9
X1.625Y-4.45
X1.625Y-4.75
X1.625Y-5.7
X1.625Y-6.
X1.725Y-4.65
X1.725Y-4.95
X1.725Y-5.9
X1.725Y-6.2
X1.825Y-4.45
X1.825Y-4.75
X1.825Y-5.7
X1.825Y-6.
X1.925Y-4.65
X1.925Y-4.95
X1.925Y-5.9
X1.925Y-6.2
X2.025Y-2.2
X2.025Y-2.5
X2.025Y-4.45
X2.025Y-4.75
X2.025Y-5.7
X2.025Y-6.
X2.125Y-4.65
X2.125Y-4.95
X2.125Y-5.9
X2.125Y-6.2
X2.225Y-4.45
X2.225Y-4.75
X2.225Y-5.7
X2.225Y-6.
X2.325Y-4.65
X2.325Y-4.95
X2.325Y-5.9
X2.325Y-6.2
X2.35Y-2.85
X2.35Y-3.05
X2.35Y-3.25
X2.35Y-3.45
X2.35Y-3.65
X2.35Y-3.85
X2.35Y-4.05
X2.425Y-5.7
X2.425Y-6.
X2.45Y-4.25
X2.525Y-5.9
X2.525Y-6.2
X2.55Y-2.75
X2.55Y-2.95
X2.55Y-3.15
X2.55Y-3.35
X2.55Y-3.55
X2.55Y-3.75
X2.55Y-3.95
X2.55Y-4.15
X2.625Y-1.8
X2.625Y-2.1
X2.625Y-2.3
X2.625Y-2.6
X2.625Y-5.7
X2.625Y-6.
X2.65Y-2.85
X2.65Y-3.05
X2.65Y-3.25
X2.65Y-3.45
X2.65Y-3.65
X2.65Y-3.85
X2.65Y-4.05
X2.725Y-2.2
X2.725Y-2.5
X2.725Y-5.9
X2.725Y-6.2
X2.75Y-4.25
X2.85Y-2.75
X2.85Y-2.95
X2.85Y-3.15
X2.85Y-3.35
X2.85Y-3.55
X2.85Y-3.75
X2.85Y-3.95
X2.85Y-4.15
T6
X0.925Y-1.3
X0.925Y-1.4
X1.025Y-1.3
X1.025Y-1.4
X1.125Y-1.3
X1.125Y-1.4
X1.225Y-1.3
X1.225Y-1.4
X1.325Y-1.3
X1.325Y-1.4
X1.425Y-1.3
X1.425Y-1.4
X1.525Y-1.3
X1.525Y-1.4
X1.625Y-1.3
X1.625Y-1.4
X1.725Y-1.3
X1.725Y-1.4
X1.825Y-1.3
X1.825Y-1.4
X1.925Y-1.3
X1.925Y-1.4
X2.025Y-1.3
X2.025Y-1.4
X2.125Y-1.3
X2.125Y-1.4
X2.225Y-1.3
X2.225Y-1.4
X2.325Y-1.3
X2.325Y-1.4
X2.425Y-1.3
X2.425Y-1.4
X2.525Y-1.3
X2.525Y-1.4
X2.625Y-1.3
X2.625Y-1.4
X2.725Y-1.3
X2.725Y-1.4
X2.825Y-1.3
X2.825Y-1.4
T7
X0.75Y-2.75
X0.75Y-2.85
X0.75Y-2.95
X0.75Y-3.25
X0.75Y-3.35
X0.75Y-3.45
X0.75Y-3.55
X0.75Y-3.85
X0.75Y-3.95
X0.75Y-4.05
X0.75Y-4.15
X1.525Y-2.2
X1.525Y-2.3
X1.525Y-2.4
X1.525Y-2.5
X2.825Y-1.9
X2.825Y-2.2
X2.825Y-2.5
X2.925Y-1.9
X2.925Y-2.2
X2.925Y-2.5
X3.025Y-1.9
X3.025Y-2.2
X3.025Y-2.5
X3.05Y-2.75
X3.05Y-2.85
X3.05Y-2.95
X3.05Y-3.15
X3.05Y-3.25
X3.05Y-3.35
X3.05Y-3.55
X3.05Y-3.65
X3.05Y-3.75
X3.05Y-3.95
X3.05Y-4.05
X3.05Y-4.15
T8
X0.7283Y-0.7283
X0.7283Y-6.1614
X3.0118Y-0.7283
X3.0118Y-6.1614
T0
M30
