999
dxfrw 0.6.3
  0
SECTION
  2
HEADER
  9
$ACADVER
  1
AC1021
  9
$DWGCODEPAGE
  3
ANSI_1252
  9
$INSBASE
 10
0
 20
0
 30
0
  9
$EXTMIN
 10
5
 20
-210
 30
0
  9
$EXTMAX
 10
297.584334007928
 20
230
 30
0
  9
$LIMMIN
 10
0
 20
0
  9
$LIMMAX
 10
420
 20
297
  9
$ORTHOMODE
 70
    0
  9
$REGENMODE
 70
    1
  9
$FILLMODE
 70
    1
  9
$QTEXTMODE
 70
    0
  9
$MIRRTEXT
 70
    0
  9
$LTSCALE
 40
1
  9
$ATTMODE
 70
    0
  9
$TEXTSIZE
 40
2.5
  9
$TRACEWID
 40
15.68
  9
$TEXTSTYLE
  7
STANDARD
  9
$CLAYER
  8
Ground path
  9
$CELTYPE
  6
BYLAYER
  9
$CECOLOR
 62
  256
  9
$CELTSCALE
 40
1
  9
$DISPSILH
 70
    0
  9
$DIMSCALE
 40
2.5
  9
$DIMASZ
 40
2.5
  9
$DIMEXO
 40
0.625
  9
$DIMDLI
 40
3.75
  9
$DIMRND
 40
0
  9
$DIMDLE
 40
0
  9
$DIMEXE
 40
1.25
  9
$DIMTP
 40
0
  9
$DIMTM
 40
0
  9
$DIMTXT
 40
2.5
  9
$DIMCEN
 40
2.5
  9
$DIMTSZ
 40
0
  9
$DIMTOL
 70
    0
  9
$DIMLIM
 70
    0
  9
$DIMTIH
 70
    0
  9
$DIMTOH
 70
    0
  9
$DIMSE1
 70
    0
  9
$DIMSE2
 70
    0
  9
$DIMTAD
 70
    1
  9
$DIMZIN
 70
    8
  9
$DIMBLK
  1

  9
$DIMASO
 70
    1
  9
$DIMSHO
 70
    1
  9
$DIMPOST
  1

  9
$DIMAPOST
  1

  9
$DIMALT
 70
    0
  9
$DIMALTD
 70
    3
  9
$DIMALTF
 40
0.03937
  9
$DIMLFAC
 40
1
  9
$DIMTOFL
 70
    1
  9
$DIMTVP
 40
0
  9
$DIMTIX
 70
    0
  9
$DIMSOXD
 70
    0
  9
$DIMSAH
 70
    0
  9
$DIMBLK1
  1

  9
$DIMBLK2
  1

  9
$DIMSTYLE
  2
STANDARD
  9
$DIMCLRD
 70
    0
  9
$DIMCLRE
 70
    0
  9
$DIMCLRT
 70
    0
  9
$DIMTFAC
 40
1
  9
$DIMGAP
 40
0.625
  9
$DIMJUST
 70
    0
  9
$DIMSD1
 70
    0
  9
$DIMSD2
 70
    0
  9
$DIMTOLJ
 70
    0
  9
$DIMTZIN
 70
    8
  9
$DIMALTZ
 70
    0
  9
$DIMALTTZ
 70
    0
  9
$DIMUPT
 70
    0
  9
$DIMDEC
 70
    2
  9
$DIMTDEC
 70
    2
  9
$DIMALTU
 70
    2
  9
$DIMALTTD
 70
    3
  9
$DIMTXSTY
  7
STANDARD
  9
$DIMAUNIT
 70
    0
  9
$DIMADEC
 70
    0
  9
$DIMALTRND
 40
0
  9
$DIMAZIN
 70
    0
  9
$DIMDSEP
 70
   44
  9
$DIMATFIT
 70
    3
  9
$DIMFRAC
 70
    0
  9
$DIMLDRBLK
  1
STANDARD
  9
$DIMLUNIT
 70
    2
  9
$DIMLWD
 70
   -2
  9
$DIMLWE
 70
   -2
  9
$DIMTMOVE
 70
    0
  9
$DIMFXL
 40
1
  9
$DIMFXLON
 70
    0
  9
$DIMJOGANG
 40
0.7854
  9
$DIMTFILL
 70
    0
  9
$DIMTFILLCLR
 70
    0
  9
$DIMARCSYM
 70
    0
  9
$DIMLTYPE
  6

  9
$DIMLTEX1
  6

  9
$DIMLTEX2
  6

  9
$LUNITS
 70
    2
  9
$LUPREC
 70
    4
  9
$SKETCHINC
 40
1
  9
$FILLETRAD
 40
0
  9
$AUNITS
 70
    0
  9
$AUPREC
 70
    2
  9
$MENU
  1
.
  9
$ELEVATION
 40
0
  9
$PELEVATION
 40
0
  9
$THICKNESS
 40
0
  9
$LIMCHECK
 70
    0
  9
$CHAMFERA
 40
0
  9
$CHAMFERB
 40
0
  9
$CHAMFERC
 40
0
  9
$CHAMFERD
 40
0
  9
$SKPOLY
 70
    0
  9
$USRTIMER
 70
    1
  9
$ANGBASE
 50
0
  9
$ANGDIR
 70
    0
  9
$PDMODE
 70
   34
  9
$PDSIZE
 40
0
  9
$PLINEWID
 40
0
  9
$SPLFRAME
 70
    0
  9
$SPLINETYPE
 70
    2
  9
$SPLINESEGS
 70
    8
  9
$HANDSEED
  5
20000
  9
$SURFTAB1
 70
    6
  9
$SURFTAB2
 70
    6
  9
$SURFTYPE
 70
    6
  9
$SURFU
 70
    6
  9
$SURFV
 70
    6
  9
$UCSBASE
  2

  9
$UCSNAME
  2

  9
$UCSORG
 10
0
 20
0
 30
0
  9
$UCSXDIR
 10
1
 20
0
 30
0
  9
$UCSYDIR
 10
0
 20
1
 30
0
  9
$UCSORTHOREF
  2

  9
$UCSORTHOVIEW
 70
    0
  9
$UCSORGTOP
 10
0
 20
0
 30
0
  9
$UCSORGBOTTOM
 10
0
 20
0
 30
0
  9
$UCSORGLEFT
 10
0
 20
0
 30
0
  9
$UCSORGRIGHT
 10
0
 20
0
 30
0
  9
$UCSORGFRONT
 10
0
 20
0
 30
0
  9
$UCSORGBACK
 10
0
 20
0
 30
0
  9
$PUCSBASE
  2

  9
$PUCSNAME
  2

  9
$PUCSORG
 10
0
 20
0
 30
0
  9
$PUCSXDIR
 10
1
 20
0
 30
0
  9
$PUCSYDIR
 10
0
 20
1
 30
0
  9
$PUCSORTHOREF
  2

  9
$PUCSORTHOVIEW
 70
    0
  9
$PUCSORGTOP
 10
0
 20
0
 30
0
  9
$PUCSORGBOTTOM
 10
0
 20
0
 30
0
  9
$PUCSORGLEFT
 10
0
 20
0
 30
0
  9
$PUCSORGRIGHT
 10
0
 20
0
 30
0
  9
$PUCSORGFRONT
 10
0
 20
0
 30
0
  9
$PUCSORGBACK
 10
0
 20
0
 30
0
  9
$USERI1
 70
    0
  9
$USERI2
 70
    0
  9
$USERI3
 70
    0
  9
$USERI4
 70
    0
  9
$USERI5
 70
    0
  9
$USERR1
 40
0
  9
$USERR2
 40
0
  9
$USERR3
 40
0
  9
$USERR4
 40
0
  9
$USERR5
 40
0
  9
$WORLDVIEW
 70
    1
  9
$SHADEDGE
 70
    3
  9
$SHADEDIF
 70
   70
  9
$TILEMODE
 70
    1
  9
$MAXACTVP
 70
   64
  9
$PINSBASE
 10
0
 20
0
 30
0
  9
$PLIMCHECK
 70
    0
  9
$PEXTMIN
 10
0
 20
0
 30
0
  9
$PEXTMAX
 10
0
 20
0
 30
0
  9
$GRIDMODE
 70
    1
  9
$SNAPSTYLE
 70
    0
  9
$PLIMMIN
 10
0
 20
0
  9
$PLIMMAX
 10
297
 20
210
  9
$UNITMODE
 70
    0
  9
$VISRETAIN
 70
    1
  9
$PLINEGEN
 70
    0
  9
$PSLTSCALE
 70
    1
  9
$TREEDEPTH
 70
 3020
  9
$CMLSTYLE
  2
Standard
  9
$CMLJUST
 70
    0
  9
$CMLSCALE
 40
20
  9
$PROXYGRAPHICS
 70
    1
  9
$MEASUREMENT
 70
    1
  9
$CELWEIGHT
370
   -1
  9
$ENDCAPS
280
    0
  9
$JOINSTYLE
280
    0
  9
$LWDISPLAY
290
    0
  9
$INSUNITS
 70
    4
  9
$HYPERLINKBASE
  1

  9
$STYLESHEET
  1

  9
$XEDIT
290
    1
  9
$CEPSNTYPE
380
    0
  9
$PSTYLEMODE
290
    1
  9
$EXTNAMES
290
    1
  9
$PSVPSCALE
 40
1
  9
$OLESTARTUP
290
    0
  9
$SORTENTS
280
  127
  9
$INDEXCTL
280
    0
  9
$HIDETEXT
280
    1
  9
$XCLIPFRAME
290
    0
  9
$HALOGAP
280
    0
  9
$OBSCOLOR
 70
  257
  9
$OBSLTYPE
280
    0
  9
$INTERSECTIONDISPLAY
280
    0
  9
$INTERSECTIONCOLOR
 70
  257
  9
$DIMASSOC
280
    1
  9
$PROJECTNAME
  1

  9
$CAMERADISPLAY
290
    0
  9
$LENSLENGTH
 40
50
  9
$CAMERAHEIGHT
 40
0
  9
$STEPSPERSEC
 40
2
  9
$STEPSIZE
 40
50
  9
$3DDWFPREC
 40
2
  9
$PSOLWIDTH
 40
5
  9
$PSOLHEIGHT
 40
80
  9
$LOFTANG1
 40
1.570796326794897
  9
$LOFTANG2
 40
1.570796326794897
  9
$LOFTMAG1
 40
0
  9
$LOFTMAG2
 40
0
  9
$LOFTPARAM
 70
    7
  9
$LOFTNORMALS
280
    1
  9
$LATITUDE
 40
1
  9
$LONGITUDE
 40
1
  9
$NORTHDIRECTION
 40
0
  9
$TIMEZONE
 70
-8000
  9
$LIGHTGLYPHDISPLAY
280
    1
  9
$TILEMODELIGHTSYNCH
280
    1
  9
$SOLIDHIST
280
    1
  9
$SHOWHIST
280
    1
  9
$DWFFRAME
280
    2
  9
$DGNFRAME
280
    0
  9
$REALWORLDSCALE
290
    1
  9
$INTERFERECOLOR
 62
    1
  9
$CSHADOW
280
    0
  9
$SHADOWPLANELOCATION
 40
0
  0
ENDSEC
  0
SECTION
  2
CLASSES
  0
ENDSEC
  0
SECTION
  2
TABLES
  0
TABLE
  2
VPORT
  5
8
330
0
100
AcDbSymbolTable
 70
    1
  0
VPORT
  5
31
330
2
100
AcDbSymbolTableRecord
100
AcDbViewportTableRecord
  2
*ACTIVE
 70
    0
 10
0
 20
0
 11
1
 21
1
 12
357.1653866456351
 22
157.1108738910418
 13
0
 23
0
 14
10
 24
10
 15
10
 25
10
 16
0
 26
0
 36
1
 17
0
 27
0
 37
0
 40
699.6670917281064
 41
1.600798403193613
 42
50
 43
0
 44
0
 50
0
 51
0
 71
    0
 72
  100
 73
    1
 74
    3
 75
    0
 76
    1
 77
    0
 78
    0
281
    0
 65
    1
110
0
120
0
130
0
111
1
121
0
131
0
112
0
122
1
132
0
 79
    0
146
0
348
10020
 60
    7
 61
    5
292
1
282
    1
141
0
142
0
 63
  250
421
3358443
  0
ENDTAB
  0
TABLE
  2
LTYPE
  5
5
330
0
100
AcDbSymbolTable
 70
    4
  0
LTYPE
  5
14
330
5
100
AcDbSymbolTableRecord
100
AcDbLinetypeTableRecord
  2
ByBlock
 70
    0
  3

 72
   65
 73
    0
 40
0
  0
LTYPE
  5
15
330
5
100
AcDbSymbolTableRecord
100
AcDbLinetypeTableRecord
  2
ByLayer
 70
    0
  3

 72
   65
 73
    0
 40
0
  0
LTYPE
  5
16
330
5
100
AcDbSymbolTableRecord
100
AcDbLinetypeTableRecord
  2
Continuous
 70
    0
  3
Solid line
 72
   65
 73
    0
 40
0
  0
LTYPE
  5
32
330
5
100
AcDbSymbolTableRecord
100
AcDbLinetypeTableRecord
  2
DOT
 70
    0
  3
Dot . . . . . . . . . . . . . . . . . . . . . .
 72
   65
 73
    2
 40
6.35
 49
0
 74
    0
 49
-6.35
 74
    0
  0
LTYPE
  5
33
330
5
100
AcDbSymbolTableRecord
100
AcDbLinetypeTableRecord
  2
DOTTINY
 70
    0
  3
Dot (.15x) .....................................
 72
   65
 73
    2
 40
0.9525
 49
0
 74
    0
 49
-0.9525
 74
    0
  0
LTYPE
  5
34
330
5
100
AcDbSymbolTableRecord
100
AcDbLinetypeTableRecord
  2
DOT2
 70
    0
  3
Dot (.5x) .....................................
 72
   65
 73
    2
 40
3.175
 49
0
 74
    0
 49
-3.175
 74
    0
  0
LTYPE
  5
35
330
5
100
AcDbSymbolTableRecord
100
AcDbLinetypeTableRecord
  2
DOTX2
 70
    0
  3
Dot (2x) .  .  .  .  .  .  .  .  .  .  .  .  .
 72
   65
 73
    2
 40
12.7
 49
0
 74
    0
 49
-12.7
 74
    0
  0
LTYPE
  5
36
330
5
100
AcDbSymbolTableRecord
100
AcDbLinetypeTableRecord
  2
DASHED
 70
    0
  3
Dashed _ _ _ _ _ _ _ _ _ _ _ _ _ _ _ _ _
 72
   65
 73
    2
 40
19.05
 49
12.7
 74
    0
 49
-6.35
 74
    0
  0
LTYPE
  5
37
330
5
100
AcDbSymbolTableRecord
100
AcDbLinetypeTableRecord
  2
DASHEDTINY
 70
    0
  3
Dashed (.15x) _ _ _ _ _ _ _ _ _ _ _ _ _ _ _ _ _
 72
   65
 73
    2
 40
2.8575
 49
1.905
 74
    0
 49
-0.9525
 74
    0
  0
LTYPE
  5
38
330
5
100
AcDbSymbolTableRecord
100
AcDbLinetypeTableRecord
  2
DASHED2
 70
    0
  3
Dashed (.5x) _ _ _ _ _ _ _ _ _ _ _ _ _ _ _ _ _
 72
   65
 73
    2
 40
9.524999999999999
 49
6.35
 74
    0
 49
-3.175
 74
    0
  0
LTYPE
  5
39
330
5
100
AcDbSymbolTableRecord
100
AcDbLinetypeTableRecord
  2
DASHEDX2
 70
    0
  3
Dashed (2x) ____  ____  ____  ____  ____  ___
 72
   65
 73
    2
 40
38.09999999999999
 49
25.4
 74
    0
 49
-12.7
 74
    0
  0
LTYPE
  5
3A
330
5
100
AcDbSymbolTableRecord
100
AcDbLinetypeTableRecord
  2
DASHDOT
 70
    0
  3
Dash dot __ . __ . __ . __ . __ . __ . __ . __
 72
   65
 73
    4
 40
25.4
 49
12.7
 74
    0
 49
-6.35
 74
    0
 49
0
 74
    0
 49
-6.35
 74
    0
  0
LTYPE
  5
3B
330
5
100
AcDbSymbolTableRecord
100
AcDbLinetypeTableRecord
  2
DASHDOTTINY
 70
    0
  3
Dash dot (.15x) _._._._._._._._._._._._._._._.
 72
   65
 73
    4
 40
3.81
 49
1.905
 74
    0
 49
-0.9525
 74
    0
 49
0
 74
    0
 49
-0.9525
 74
    0
  0
LTYPE
  5
3C
330
5
100
AcDbSymbolTableRecord
100
AcDbLinetypeTableRecord
  2
DASHDOT2
 70
    0
  3
Dash dot (.5x) _._._._._._._._._._._._._._._.
 72
   65
 73
    4
 40
12.7
 49
6.35
 74
    0
 49
-3.175
 74
    0
 49
0
 74
    0
 49
-3.175
 74
    0
  0
LTYPE
  5
3D
330
5
100
AcDbSymbolTableRecord
100
AcDbLinetypeTableRecord
  2
DASHDOTX2
 70
    0
  3
Dash dot (2x) ____  .  ____  .  ____  .  ___
 72
   65
 73
    4
 40
50.8
 49
25.4
 74
    0
 49
-12.7
 74
    0
 49
0
 74
    0
 49
-12.7
 74
    0
  0
LTYPE
  5
3E
330
5
100
AcDbSymbolTableRecord
100
AcDbLinetypeTableRecord
  2
DIVIDE
 70
    0
  3
Divide ____ . . ____ . . ____ . . ____ . . ____
 72
   65
 73
    6
 40
31.75
 49
12.7
 74
    0
 49
-6.35
 74
    0
 49
0
 74
    0
 49
-6.35
 74
    0
 49
0
 74
    0
 49
-6.35
 74
    0
  0
LTYPE
  5
3F
330
5
100
AcDbSymbolTableRecord
100
AcDbLinetypeTableRecord
  2
DIVIDETINY
 70
    0
  3
Divide (.15x) __..__..__..__..__..__..__..__.._
 72
   65
 73
    6
 40
4.7625
 49
1.905
 74
    0
 49
-0.9525
 74
    0
 49
0
 74
    0
 49
-0.9525
 74
    0
 49
0
 74
    0
 49
-0.9525
 74
    0
  0
LTYPE
  5
40
330
5
100
AcDbSymbolTableRecord
100
AcDbLinetypeTableRecord
  2
DIVIDE2
 70
    0
  3
Divide (.5x) __..__..__..__..__..__..__..__.._
 72
   65
 73
    6
 40
15.875
 49
6.35
 74
    0
 49
-3.175
 74
    0
 49
0
 74
    0
 49
-3.175
 74
    0
 49
0
 74
    0
 49
-3.175
 74
    0
  0
LTYPE
  5
41
330
5
100
AcDbSymbolTableRecord
100
AcDbLinetypeTableRecord
  2
DIVIDEX2
 70
    0
  3
Divide (2x) ________  .  .  ________  .  .  _
 72
   65
 73
    6
 40
63.5
 49
25.4
 74
    0
 49
-12.7
 74
    0
 49
0
 74
    0
 49
-12.7
 74
    0
 49
0
 74
    0
 49
-12.7
 74
    0
  0
LTYPE
  5
42
330
5
100
AcDbSymbolTableRecord
100
AcDbLinetypeTableRecord
  2
BORDER
 70
    0
  3
Border __ __ . __ __ . __ __ . __ __ . __ __ .
 72
   65
 73
    6
 40
44.45
 49
12.7
 74
    0
 49
-6.35
 74
    0
 49
12.7
 74
    0
 49
-6.35
 74
    0
 49
0
 74
    0
 49
-6.35
 74
    0
  0
LTYPE
  5
43
330
5
100
AcDbSymbolTableRecord
100
AcDbLinetypeTableRecord
  2
BORDERTINY
 70
    0
  3
Border (.15x) __.__.__.__.__.__.__.__.__.__.__.
 72
   65
 73
    6
 40
6.6675
 49
1.905
 74
    0
 49
-0.9525
 74
    0
 49
1.905
 74
    0
 49
-0.9525
 74
    0
 49
0
 74
    0
 49
-0.9525
 74
    0
  0
LTYPE
  5
44
330
5
100
AcDbSymbolTableRecord
100
AcDbLinetypeTableRecord
  2
BORDER2
 70
    0
  3
Border (.5x) __.__.__.__.__.__.__.__.__.__.__.
 72
   65
 73
    6
 40
22.225
 49
6.35
 74
    0
 49
-3.175
 74
    0
 49
6.35
 74
    0
 49
-3.175
 74
    0
 49
0
 74
    0
 49
-3.175
 74
    0
  0
LTYPE
  5
45
330
5
100
AcDbSymbolTableRecord
100
AcDbLinetypeTableRecord
  2
BORDERX2
 70
    0
  3
Border (2x) ____  ____  .  ____  ____  .  ___
 72
   65
 73
    6
 40
88.89999999999999
 49
25.4
 74
    0
 49
-12.7
 74
    0
 49
25.4
 74
    0
 49
-12.7
 74
    0
 49
0
 74
    0
 49
-12.7
 74
    0
  0
LTYPE
  5
46
330
5
100
AcDbSymbolTableRecord
100
AcDbLinetypeTableRecord
  2
CENTER
 70
    0
  3
Center ____ _ ____ _ ____ _ ____ _ ____ _ ____
 72
   65
 73
    4
 40
50.8
 49
31.75
 74
    0
 49
-6.35
 74
    0
 49
6.35
 74
    0
 49
-6.35
 74
    0
  0
LTYPE
  5
47
330
5
100
AcDbSymbolTableRecord
100
AcDbLinetypeTableRecord
  2
CENTERTINY
 70
    0
  3
Center (.15x) ___ _ ___ _ ___ _ ___ _ ___ _ ___
 72
   65
 73
    4
 40
7.62
 49
4.7625
 74
    0
 49
-0.9525
 74
    0
 49
0.9525
 74
    0
 49
-0.9525
 74
    0
  0
LTYPE
  5
48
330
5
100
AcDbSymbolTableRecord
100
AcDbLinetypeTableRecord
  2
CENTER2
 70
    0
  3
Center (.5x) ___ _ ___ _ ___ _ ___ _ ___ _ ___
 72
   65
 73
    4
 40
28.575
 49
19.05
 74
    0
 49
-3.175
 74
    0
 49
3.175
 74
    0
 49
-3.175
 74
    0
  0
LTYPE
  5
49
330
5
100
AcDbSymbolTableRecord
100
AcDbLinetypeTableRecord
  2
CENTERX2
 70
    0
  3
Center (2x) ________  __  ________  __  _____
 72
   65
 73
    4
 40
101.6
 49
63.5
 74
    0
 49
-12.7
 74
    0
 49
12.7
 74
    0
 49
-12.7
 74
    0
  0
ENDTAB
  0
TABLE
  2
LAYER
  5
2
330
0
100
AcDbSymbolTable
 70
    1
  0
LAYER
  5
10
330
2
100
AcDbSymbolTableRecord
100
AcDbLayerTableRecord
  2
0
 70
    0
 62
    7
  6
CONTINUOUS
370
    0
390
F
  0
LAYER
  5
4A
330
2
100
AcDbSymbolTableRecord
100
AcDbLayerTableRecord
  2
Ground path
 70
    0
 62
    7
  6
CONTINUOUS
370
   50
390
F
  0
LAYER
  5
4B
330
2
100
AcDbSymbolTableRecord
100
AcDbLayerTableRecord
  2
Other elements
 70
    0
 62
  253
420
10526884
  6
CONTINUOUS
370
   25
390
F
  0
ENDTAB
  0
TABLE
  2
STYLE
  5
3
330
0
100
AcDbSymbolTable
 70
    3
  0
STYLE
  5
4C
330
2
100
AcDbSymbolTableRecord
100
AcDbTextStyleTableRecord
  2
unicode
 70
    0
 40
0
 41
1
 50
0
 71
    0
 42
1
  3
unicode
  4

  0
STYLE
  5
4D
330
2
100
AcDbSymbolTableRecord
100
AcDbTextStyleTableRecord
  2
Standard
 70
    0
 40
0
 41
1
 50
0
 71
    0
 42
1
  3
txt
  4

  0
ENDTAB
  0
TABLE
  2
VIEW
  5
6
330
0
100
AcDbSymbolTable
 70
    0
  0
ENDTAB
  0
TABLE
  2
UCS
  5
7
330
0
100
AcDbSymbolTable
 70
    0
  0
ENDTAB
  0
TABLE
  2
APPID
  5
9
330
0
100
AcDbSymbolTable
 70
    1
  0
APPID
  5
12
330
9
100
AcDbSymbolTableRecord
100
AcDbRegAppTableRecord
  2
ACAD
 70
    0
  0
APPID
  5
4E
330
9
100
AcDbSymbolTableRecord
100
AcDbRegAppTableRecord
  2
LibreCad
 70
    0
  0
ENDTAB
  0
TABLE
  2
DIMSTYLE
  5
A
330
0
100
AcDbSymbolTable
 70
    1
100
AcDbDimStyleTable
 71
    1
  0
DIMSTYLE
105
4F
330
A
100
AcDbSymbolTableRecord
100
AcDbDimStyleTableRecord
  2
Standard
 70
    0
 40
2.5
 41
2.5
 42
0.625
 43
0.38
 44
1.25
 45
0
 46
0
 47
0
 48
0
 49
1
140
2.5
141
0.09
142
0
143
25.4
144
1
145
0
146
1
147
0.625
148
0
 71
    0
 72
    0
 73
    0
 74
    1
 75
    0
 76
    0
 77
    0
 78
    8
 79
    0
170
    0
171
    2
172
    0
173
    0
174
    0
175
    0
176
    0
177
    0
178
    0
179
    0
271
    2
272
    4
273
    2
274
    2
275
    0
276
    0
277
    2
278
   44
279
    0
280
    0
281
    0
282
    0
283
    1
284
    0
285
    0
286
    0
288
    0
289
    3
340
STANDARD
341

371
   -2
372
   -2
  0
ENDTAB
  0
TABLE
  2
BLOCK_RECORD
  5
1
330
0
100
AcDbSymbolTable
 70
    2
  0
BLOCK_RECORD
  5
1F
330
1
100
AcDbSymbolTableRecord
100
AcDbBlockTableRecord
  2
*Model_Space
 70
    0
280
    1
281
    0
  0
BLOCK_RECORD
  5
1E
330
1
100
AcDbSymbolTableRecord
100
AcDbBlockTableRecord
  2
*Paper_Space
 70
    0
280
    1
281
    0
  0
BLOCK_RECORD
  5
50
330
1
100
AcDbSymbolTableRecord
100
AcDbBlockTableRecord
  2
NCJ9FI
 70
    0
280
    1
281
    0
  0
BLOCK_RECORD
  5
53
330
1
100
AcDbSymbolTableRecord
100
AcDbBlockTableRecord
  2
Shield
 70
    0
280
    1
281
    0
  0
BLOCK_RECORD
  5
56
330
1
100
AcDbSymbolTableRecord
100
AcDbBlockTableRecord
  2
TRS
 70
    0
280
    1
281
    0
  0
BLOCK_RECORD
  5
59
330
1
100
AcDbSymbolTableRecord
100
AcDbBlockTableRecord
  2
Transformer
 70
    0
280
    1
281
    0
  0
ENDTAB
  0
ENDSEC
  0
SECTION
  2
BLOCKS
  0
BLOCK
  5
20
330
1F
100
AcDbEntity
  8
0
100
AcDbBlockBegin
  2
*Model_Space
 70
    0
 10
0
 20
0
 30
0
  3
*Model_Space
  1

  0
ENDBLK
  5
21
330
1F
100
AcDbEntity
  8
0
100
AcDbBlockEnd
  0
BLOCK
  5
1C
330
1B
100
AcDbEntity
  8
0
100
AcDbBlockBegin
  2
*Paper_Space
 70
    0
 10
0
 20
0
 30
0
  3
*Paper_Space
  1

  0
ENDBLK
  5
1D
330
1F
100
AcDbEntity
  8
0
100
AcDbBlockEnd
  0
BLOCK
  5
51
330
50
100
AcDbEntity
  8
0
100
AcDbBlockBegin
  2
NCJ9FI
 70
    0
 10
0
 20
0
  3
NCJ9FI
  1

  0
LINE
  5
5C
100
AcDbEntity
  8
Other elements
  6
ByLayer
 62
  256
370
   -1
100
AcDbLine
 10
-40
 20
10
 11
-40
 21
0
  0
LINE
  5
5D
100
AcDbEntity
  8
Other elements
  6
ByLayer
 62
  256
370
   -1
100
AcDbLine
 10
-40
 20
8
 11
-42
 21
8
  0
LINE
  5
5E
100
AcDbEntity
  8
Other elements
  6
ByLayer
 62
  256
370
   -1
100
AcDbLine
 10
-42
 20
8
 11
-42
 21
2
  0
LINE
  5
5F
100
AcDbEntity
  8
Other elements
  6
ByLayer
 62
  256
370
   -1
100
AcDbLine
 10
-42
 20
2
 11
-40
 21
2
  0
LINE
  5
60
100
AcDbEntity
  8
Other elements
  6
ByLayer
 62
  256
370
   -1
100
AcDbLine
 10
-40
 20
0
 11
0
 21
0
  0
LINE
  5
61
100
AcDbEntity
  8
Other elements
  6
ByLayer
 62
  256
370
   -1
100
AcDbLine
 10
-35
 20
-8
 11
0
 21
-8
  0
LINE
  5
62
100
AcDbEntity
  8
Other elements
  6
ByLayer
 62
  256
370
   -1
100
AcDbLine
 10
-35
 20
-12
 11
0
 21
-12
  0
LINE
  5
63
100
AcDbEntity
  8
Ground path
  6
ByLayer
 62
  256
370
   -1
100
AcDbLine
 10
-30
 20
-16
 11
-28
 21
-14
  0
LINE
  5
64
100
AcDbEntity
  8
Ground path
  6
ByLayer
 62
  256
370
   -1
100
AcDbLine
 10
-28
 20
-14
 11
-26
 21
-16
  0
LINE
  5
65
100
AcDbEntity
  8
Ground path
  6
ByLayer
 62
  256
370
   -1
100
AcDbLine
 10
-26
 20
-16
 11
0
 21
-16
  0
LINE
  5
66
100
AcDbEntity
  8
Ground path
  6
ByLayer
 62
  256
370
   -1
100
AcDbLine
 10
-35
 20
-4
 11
0
 21
-4
  0
LINE
  5
67
100
AcDbEntity
  8
Other elements
  6
ByLayer
 62
  256
370
   -1
100
AcDbLine
 10
0
 20
6
 11
-10
 21
6
  0
LINE
  5
68
100
AcDbEntity
  8
Other elements
  6
ByLayer
 62
  256
370
   -1
100
AcDbLine
 10
-10
 20
6
 11
-10
 21
10
  0
LINE
  5
69
100
AcDbEntity
  8
Other elements
  6
ByLayer
 62
  256
370
   -1
100
AcDbLine
 10
-11
 20
8
 11
-10
 21
10
  0
LINE
  5
6A
100
AcDbEntity
  8
Other elements
  6
ByLayer
 62
  256
370
   -1
100
AcDbLine
 10
-10
 20
10
 11
-9
 21
8
  0
LINE
  5
6B
100
AcDbEntity
  8
Other elements
  6
ByLayer
 62
  256
370
   -1
100
AcDbLine
 10
-20
 20
10
 11
-18
 21
8
  0
LINE
  5
6C
100
AcDbEntity
  8
Other elements
  6
ByLayer
 62
  256
370
   -1
100
AcDbLine
 10
-18
 20
8
 11
-16
 21
10
  0
LINE
  5
6D
100
AcDbEntity
  8
Other elements
  6
ByLayer
 62
  256
370
   -1
100
AcDbLine
 10
-16
 20
10
 11
0
 21
10
  0
LINE
  5
6E
100
AcDbEntity
  8
Other elements
  6
ByLayer
 62
  256
370
   -1
100
AcDbLine
 10
0
 20
14
 11
-10
 21
14
  0
LINE
  5
6F
100
AcDbEntity
  8
Other elements
  6
ByLayer
 62
  256
370
   -1
100
AcDbLine
 10
-10
 20
14
 11
-10
 21
18
  0
LINE
  5
70
100
AcDbEntity
  8
Other elements
  6
ByLayer
 62
  256
370
   -1
100
AcDbLine
 10
-11
 20
16
 11
-10
 21
18
  0
LINE
  5
71
100
AcDbEntity
  8
Other elements
  6
ByLayer
 62
  256
370
   -1
100
AcDbLine
 10
-10
 20
18
 11
-9
 21
16
  0
LINE
  5
72
100
AcDbEntity
  8
Other elements
  6
ByLayer
 62
  256
370
   -1
100
AcDbLine
 10
0
 20
18
 11
-16
 21
18
  0
LINE
  5
73
100
AcDbEntity
  8
Other elements
  6
ByLayer
 62
  256
370
   -1
100
AcDbLine
 10
-16
 20
18
 11
-26
 21
8
  0
LINE
  5
74
100
AcDbEntity
  8
Other elements
  6
ByLayer
 62
  256
370
   -1
100
AcDbLine
 10
-26
 20
8
 11
-28
 21
10
  0
LINE
  5
75
100
AcDbEntity
  8
Ground path
  6
ByLayer
 62
  256
370
   -1
100
AcDbLine
 10
0
 20
22
 11
-10
 21
22
  0
LINE
  5
76
100
AcDbEntity
  8
Ground path
  6
ByLayer
 62
  256
370
   -1
100
AcDbLine
 10
-10
 20
22
 11
-10
 21
26
  0
LINE
  5
77
100
AcDbEntity
  8
Ground path
  6
ByLayer
 62
  256
370
   -1
100
AcDbLine
 10
-11
 20
24
 11
-10
 21
26
  0
LINE
  5
78
100
AcDbEntity
  8
Ground path
  6
ByLayer
 62
  256
370
   -1
100
AcDbLine
 10
-10
 20
26
 11
-9
 21
24
  0
LINE
  5
79
100
AcDbEntity
  8
Ground path
  6
ByLayer
 62
  256
370
   -1
100
AcDbLine
 10
0
 20
26
 11
-16
 21
26
  0
LINE
  5
7A
100
AcDbEntity
  8
Ground path
  6
ByLayer
 62
  256
370
   -1
100
AcDbLine
 10
-16
 20
26
 11
-34
 21
8
  0
LINE
  5
7B
100
AcDbEntity
  8
Ground path
  6
ByLayer
 62
  256
370
   -1
100
AcDbLine
 10
-34
 20
8
 11
-36
 21
10
  0
MTEXT
  5
7C
100
AcDbEntity
  8
Ground path
  6
ByLayer
 62
  256
370
   -1
100
AcDbMText
 10
0
 20
27
 30
0
 40
2
 41
1.112713025334326
 71
    9
 72
    1
  1
S
  7
unicode
210
0
220
0
230
1
 50
0
 73
    2
 44
1
  0
MTEXT
  5
7D
100
AcDbEntity
  8
Ground path
  6
ByLayer
 62
  256
370
   -1
100
AcDbMText
 10
0
 20
23
 30
0
 40
2
 41
2.890490803112104
 71
    9
 72
    1
  1
SN
  7
unicode
210
0
220
0
230
1
 50
0
 73
    2
 44
1
  0
MTEXT
  5
7E
100
AcDbEntity
  8
Other elements
  6
ByLayer
 62
  256
370
   -1
100
AcDbMText
 10
0
 20
19
 30
0
 40
2
 41
1.111111111111111
 71
    9
 72
    1
  1
R
  7
unicode
210
0
220
0
230
1
 50
0
 73
    2
 44
1
  0
MTEXT
  5
7F
100
AcDbEntity
  8
Other elements
  6
ByLayer
 62
  256
370
   -1
100
AcDbMText
 10
0
 20
15
 30
0
 40
2
 41
2.888888888888889
 71
    9
 72
    1
  1
RN
  7
unicode
210
0
220
0
230
1
 50
0
 73
    2
 44
1
  0
MTEXT
  5
80
100
AcDbEntity
  8
Other elements
  6
ByLayer
 62
  256
370
   -1
100
AcDbMText
 10
0
 20
11
 30
0
 40
2
 41
1.111111111111111
 71
    9
 72
    1
  1
T
  7
unicode
210
0
220
0
230
1
 50
0
 73
    2
 44
1
  0
MTEXT
  5
81
100
AcDbEntity
  8
Other elements
  6
ByLayer
 62
  256
370
   -1
100
AcDbMText
 10
0
 20
7
 30
0
 40
2
 41
2.888888888888889
 71
    9
 72
    1
  1
TN
  7
unicode
210
0
220
0
230
1
 50
0
 73
    2
 44
1
  0
MTEXT
  5
82
100
AcDbEntity
  8
Ground path
  6
ByLayer
 62
  256
370
   -1
100
AcDbMText
 10
0
 20
-3
 30
0
 40
2
 41
0.4444444444444444
 71
    9
 72
    1
  1
1
  7
unicode
210
0
220
0
230
1
 50
0
 73
    2
 44
1
  0
MTEXT
  5
83
100
AcDbEntity
  8
Other elements
  6
ByLayer
 62
  256
370
   -1
100
AcDbMText
 10
0
 20
-7
 30
0
 40
2
 41
0.8888888888888888
 71
    9
 72
    1
  1
2
  7
unicode
210
0
220
0
230
1
 50
0
 73
    2
 44
1
  0
MTEXT
  5
84
100
AcDbEntity
  8
Other elements
  6
ByLayer
 62
  256
370
   -1
100
AcDbMText
 10
0
 20
-11
 30
0
 40
2
 41
0.8888888888888888
 71
    9
 72
    1
  1
3
  7
unicode
210
0
220
0
230
1
 50
0
 73
    2
 44
1
  0
MTEXT
  5
85
100
AcDbEntity
  8
Ground path
  6
ByLayer
 62
  256
370
   -1
100
AcDbMText
 10
0
 20
-15
 30
0
 40
2
 41
1.111111111111111
 71
    9
 72
    1
  1
G
  7
unicode
210
0
220
0
230
1
 50
0
 73
    2
 44
1
  0
ARC
  5
86
100
AcDbEntity
  8
Ground path
  6
ByLayer
 62
  256
370
   -1
100
AcDbCircle
 10
-36
 20
-4
 40
1
100
AcDbArc
 50
270
 51
90
  0
ARC
  5
87
100
AcDbEntity
  8
Other elements
  6
ByLayer
 62
  256
370
   -1
100
AcDbCircle
 10
-36
 20
-8
 40
1
100
AcDbArc
 50
270
 51
90
  0
ARC
  5
88
100
AcDbEntity
  8
Other elements
  6
ByLayer
 62
  256
370
   -1
100
AcDbCircle
 10
-36
 20
-12
 40
1
100
AcDbArc
 50
270
 51
90
  0
ENDBLK
  5
52
330
50
100
AcDbEntity
  8
0
100
AcDbBlockEnd
  0
BLOCK
  5
54
330
53
100
AcDbEntity
  8
0
100
AcDbBlockBegin
  2
Shield
 70
    0
 10
0
 20
0
  3
Shield
  1

  0
ELLIPSE
  5
89
100
AcDbEntity
  8
Ground path
  6
ByLayer
 62
  256
370
   -1
100
AcDbEllipse
 10
0
 20
0
 30
0
 11
0
 21
4
 31
0
 40
0.5
 41
0
 42
6.283185307179586
  0
ELLIPSE
  5
8A
100
AcDbEntity
  8
Ground path
  6
ByLayer
 62
  256
370
   -1
100
AcDbEllipse
 10
40
 20
0
 30
0
 11
0
 21
4
 31
0
 40
0.5
 41
3.141592653589793
 42
1.22514845490862e-016
  0
LINE
  5
8B
100
AcDbEntity
  8
Ground path
  6
ByLayer
 62
  256
370
   -1
100
AcDbLine
 10
0
 20
-4
 11
40
 21
-4
  0
LINE
  5
8C
100
AcDbEntity
  8
Ground path
  6
ByLayer
 62
  256
370
   -1
100
AcDbLine
 10
0
 20
4
 11
40
 21
4
  0
ENDBLK
  5
55
330
53
100
AcDbEntity
  8
0
100
AcDbBlockEnd
  0
BLOCK
  5
57
330
56
100
AcDbEntity
  8
0
100
AcDbBlockBegin
  2
TRS
 70
    0
 10
0
 20
0
  3
TRS
  1

  0
LINE
  5
8D
100
AcDbEntity
  8
Ground path
  6
ByLayer
 62
  256
370
   -1
100
AcDbLine
 10
-40
 20
10
 11
-40
 21
0
  0
LINE
  5
8E
100
AcDbEntity
  8
Ground path
  6
ByLayer
 62
  256
370
   -1
100
AcDbLine
 10
-40
 20
0
 11
0
 21
0
  0
LINE
  5
8F
100
AcDbEntity
  8
Ground path
  6
ByLayer
 62
  256
370
   -1
100
AcDbLine
 10
-40
 20
8
 11
-42
 21
8
  0
LINE
  5
90
100
AcDbEntity
  8
Ground path
  6
ByLayer
 62
  256
370
   -1
100
AcDbLine
 10
-42
 20
8
 11
-42
 21
2
  0
LINE
  5
91
100
AcDbEntity
  8
Ground path
  6
ByLayer
 62
  256
370
   -1
100
AcDbLine
 10
-42
 20
2
 11
-40
 21
2
  0
LINE
  5
92
100
AcDbEntity
  8
Other elements
  6
ByLayer
 62
  256
370
   -1
100
AcDbLine
 10
-20
 20
10
 11
-18
 21
8
  0
LINE
  5
93
100
AcDbEntity
  8
Other elements
  6
ByLayer
 62
  256
370
   -1
100
AcDbLine
 10
-18
 20
8
 11
-16
 21
10
  0
LINE
  5
94
100
AcDbEntity
  8
Other elements
  6
ByLayer
 62
  256
370
   -1
100
AcDbLine
 10
-16
 20
10
 11
0
 21
10
  0
LINE
  5
95
100
AcDbEntity
  8
Other elements
  6
ByLayer
 62
  256
370
   -1
100
AcDbLine
 10
-28
 20
10
 11
-26
 21
8
  0
LINE
  5
96
100
AcDbEntity
  8
Other elements
  6
ByLayer
 62
  256
370
   -1
100
AcDbLine
 10
-26
 20
8
 11
-20
 21
14
  0
LINE
  5
97
100
AcDbEntity
  8
Other elements
  6
ByLayer
 62
  256
370
   -1
100
AcDbLine
 10
-20
 20
14
 11
0
 21
14
  0
MTEXT
  5
98
100
AcDbEntity
  8
Other elements
  6
ByLayer
 62
  256
370
   -1
100
AcDbMText
 10
0
 20
11
 30
0
 40
2
 41
1.111111111111111
 71
    9
 72
    1
  1
T
  7
unicode
210
0
220
0
230
1
 50
0
 73
    2
 44
1
  0
MTEXT
  5
99
100
AcDbEntity
  8
Ground path
  6
ByLayer
 62
  256
370
   -1
100
AcDbMText
 10
0
 20
1
 30
0
 40
2
 41
1.112713025334326
 71
    9
 72
    1
  1
S
  7
unicode
210
0
220
0
230
1
 50
0
 73
    2
 44
1
  0
MTEXT
  5
9A
100
AcDbEntity
  8
Other elements
  6
ByLayer
 62
  256
370
   -1
100
AcDbMText
 10
0
 20
15
 30
0
 40
2
 41
1.111111111111111
 71
    9
 72
    1
  1
R
  7
unicode
210
0
220
0
230
1
 50
0
 73
    2
 44
1
  0
ENDBLK
  5
58
330
56
100
AcDbEntity
  8
0
100
AcDbBlockEnd
  0
BLOCK
  5
5A
330
59
100
AcDbEntity
  8
0
100
AcDbBlockBegin
  2
Transformer
 70
    0
 10
0
 20
0
  3
Transformer
  1

  0
ELLIPSE
  5
9B
100
AcDbEntity
  8
Other elements
  6
ByLayer
 62
  256
370
   -1
100
AcDbEllipse
 10
-1.926040056332567e-006
 20
-4.999999999999986
 30
0
 11
0
 21
5
 31
0
 40
0.6
 41
3.141592653589793
 42
0
  0
ELLIPSE
  5
9C
100
AcDbEntity
  8
Other elements
  6
ByLayer
 62
  256
370
   -1
100
AcDbEllipse
 10
-1.926040056332567e-006
 20
-7.999999999999986
 30
0
 11
0
 21
-2
 31
0
 40
1
 41
3.141592653589793
 42
0
  0
ELLIPSE
  5
9D
100
AcDbEntity
  8
Other elements
  6
ByLayer
 62
  256
370
   -1
100
AcDbEllipse
 10
-2.906010934111691e-006
 20
-10.99999999999999
 30
0
 11
0
 21
5
 31
0
 40
0.6
 41
3.141592653589793
 42
0
  0
ELLIPSE
  5
9E
100
AcDbEntity
  8
Other elements
  6
ByLayer
 62
  256
370
   -1
100
AcDbEllipse
 10
-2.906010934111691e-006
 20
-13.99999999999999
 30
0
 11
0
 21
-2
 31
0
 40
1
 41
3.141592653589793
 42
0
  0
ELLIPSE
  5
9F
100
AcDbEntity
  8
Other elements
  6
ByLayer
 62
  256
370
   -1
100
AcDbEllipse
 10
-3.885981811890815e-006
 20
-16.99999999999999
 30
0
 11
0
 21
5
 31
0
 40
0.6
 41
3.141592653589793
 42
0
  0
ELLIPSE
  5
A0
100
AcDbEntity
  8
Other elements
  6
ByLayer
 62
  256
370
   -1
100
AcDbEllipse
 10
-3.885981811890815e-006
 20
-19.99999999999999
 30
0
 11
0
 21
-2
 31
0
 40
1
 41
3.141592653589793
 42
0
  0
ELLIPSE
  5
A1
100
AcDbEntity
  8
Other elements
  6
ByLayer
 62
  256
370
   -1
100
AcDbEllipse
 10
-4.865952689669939e-006
 20
-22.99999999999999
 30
0
 11
0
 21
5
 31
0
 40
0.6
 41
3.141592653589793
 42
0
  0
LINE
  5
A2
100
AcDbEntity
  8
Other elements
  6
ByLayer
 62
  256
370
   -1
100
AcDbLine
 10
4.999998073959944
 20
1.4210854715202e-014
 11
4.999998073959944
 21
-27.99999999999999
  0
LINE
  5
A3
100
AcDbEntity
  8
Other elements
  6
ByLayer
 62
  256
370
   -1
100
AcDbLine
 10
6.999998073959944
 20
1.4210854715202e-014
 11
6.999998073959944
 21
-27.99999999999999
  0
ELLIPSE
  5
A4
100
AcDbEntity
  8
Other elements
  6
ByLayer
 62
  256
370
   -1
100
AcDbEllipse
 10
11.99999807395994
 20
-4.999999999999986
 30
0
 11
0
 21
5
 31
0
 40
0.6
 41
1.021318446481345e-016
 42
3.141592653589793
  0
ELLIPSE
  5
A5
100
AcDbEntity
  8
Other elements
  6
ByLayer
 62
  256
370
   -1
100
AcDbEllipse
 10
11.99999807395994
 20
-7.999999999999986
 30
0
 11
0
 21
-2
 31
0
 40
1
 41
1.836638480190445e-016
 42
3.141592653589793
  0
ELLIPSE
  5
A6
100
AcDbEntity
  8
Other elements
  6
ByLayer
 62
  256
370
   -1
100
AcDbEllipse
 10
11.99999905393082
 20
-10.99999999999999
 30
0
 11
0
 21
5
 31
0
 40
0.6
 41
1.021318446481345e-016
 42
3.141592653589793
  0
ELLIPSE
  5
A7
100
AcDbEntity
  8
Other elements
  6
ByLayer
 62
  256
370
   -1
100
AcDbEllipse
 10
11.99999905393082
 20
-13.99999999999999
 30
0
 11
0
 21
-2
 31
0
 40
1
 41
1.836638480190445e-016
 42
3.141592653589793
  0
ELLIPSE
  5
A8
100
AcDbEntity
  8
Other elements
  6
ByLayer
 62
  256
370
   -1
100
AcDbEllipse
 10
12.0000000339017
 20
-16.99999999999999
 30
0
 11
0
 21
5
 31
0
 40
0.6
 41
1.021318446481345e-016
 42
3.141592653589793
  0
ELLIPSE
  5
A9
100
AcDbEntity
  8
Other elements
  6
ByLayer
 62
  256
370
   -1
100
AcDbEllipse
 10
12.0000000339017
 20
-19.99999999999999
 30
0
 11
0
 21
-2
 31
0
 40
1
 41
1.836638480190445e-016
 42
3.141592653589793
  0
ELLIPSE
  5
AA
100
AcDbEntity
  8
Other elements
  6
ByLayer
 62
  256
370
   -1
100
AcDbEllipse
 10
12.00000101387258
 20
-22.99999999999999
 30
0
 11
0
 21
5
 31
0
 40
0.6
 41
1.021318446481345e-016
 42
3.141592653589793
  0
ENDBLK
  5
5B
330
59
100
AcDbEntity
  8
0
100
AcDbBlockEnd
  0
ENDSEC
  0
SECTION
  2
ENTITIES
  0
HATCH
  5
AB
100
AcDbEntity
  8
Ground path
  6
ByLayer
 62
  256
370
   -1
100
AcDbHatch
 10
0
 20
0
 30
0
210
0
220
0
230
1
  2
SOLID
 70
    1
 71
    0
 91
    1
 92
    0
 93
    4
 72
    1
 10
120
 20
-175
 11
124
 21
-175
 72
    1
 10
124
 20
-175
 11
124
 21
-210
 72
    1
 10
124
 20
-210
 11
120
 21
-210
 72
    1
 10
120
 20
-210
 11
120
 21
-175
 97
    0
 75
    0
 76
    1
 98
    0
  0
HATCH
  5
AC
100
AcDbEntity
  8
Ground path
  6
ByLayer
 62
  256
370
   -1
100
AcDbHatch
 10
0
 20
0
 30
0
210
0
220
0
230
1
  2
SOLID
 70
    1
 71
    0
 91
    1
 92
    0
 93
    4
 72
    1
 10
200
 20
-15
 11
204
 21
-15
 72
    1
 10
204
 20
-15
 11
204
 21
-100
 72
    1
 10
204
 20
-100
 11
200
 21
-100
 72
    1
 10
200
 20
-100
 11
200
 21
-15
 97
    0
 75
    0
 76
    1
 98
    0
  0
HATCH
  5
AD
100
AcDbEntity
  8
Ground path
  6
ByLayer
 62
  256
370
   -1
100
AcDbHatch
 10
0
 20
0
 30
0
210
0
220
0
230
1
  2
SOLID
 70
    1
 71
    0
 91
    1
 92
    0
 93
    4
 72
    1
 10
132.9999990200291
 20
35
 11
136.9999990200291
 21
35
 72
    1
 10
136.9999990200291
 20
35
 11
136.9999990200291
 21
0
 72
    1
 10
136.9999990200291
 20
0
 11
132.9999990200291
 21
0
 72
    1
 10
132.9999990200291
 20
0
 11
132.9999990200291
 21
35
 97
    0
 75
    0
 76
    1
 98
    0
  0
HATCH
  5
AE
100
AcDbEntity
  8
Ground path
  6
ByLayer
 62
  256
370
   -1
100
AcDbHatch
 10
0
 20
0
 30
0
210
0
220
0
230
1
  2
SOLID
 70
    1
 71
    0
 91
    1
 92
    0
 93
    4
 72
    1
 10
90
 20
-120
 11
94
 21
-120
 72
    1
 10
94
 20
-120
 11
94
 21
-160
 72
    1
 10
94
 20
-160
 11
90
 21
-160
 72
    1
 10
90
 20
-160
 11
90
 21
-120
 97
    0
 75
    0
 76
    1
 98
    0
  0
HATCH
  5
AF
100
AcDbEntity
  8
Ground path
  6
ByLayer
 62
  256
370
   -1
100
AcDbHatch
 10
0
 20
0
 30
0
210
0
220
0
230
1
  2
SOLID
 70
    1
 71
    0
 91
    1
 92
    0
 93
    4
 72
    1
 10
270
 20
220
 11
274
 21
220
 72
    1
 10
274
 20
220
 11
274
 21
-210
 72
    1
 10
274
 20
-210
 11
270
 21
-210
 72
    1
 10
270
 20
-210
 11
270
 21
220
 97
    0
 75
    0
 76
    1
 98
    0
  0
HATCH
  5
B0
100
AcDbEntity
  8
Ground path
  6
ByLayer
 62
  256
370
   -1
100
AcDbHatch
 10
0
 20
0
 30
0
210
0
220
0
230
1
  2
SOLID
 70
    1
 71
    0
 91
    1
 92
    0
 93
    5
 72
    1
 10
70
 20
220
 11
66
 21
220
 72
    1
 10
66
 20
220
 11
66
 21
-210
 72
    1
 10
66
 20
-210
 11
70
 21
-210
 72
    1
 10
70
 20
-210
 11
70
 21
-210
 72
    1
 10
70
 20
-210
 11
70
 21
220
 97
    0
 75
    0
 76
    1
 98
    0
  0
HATCH
  5
B1
100
AcDbEntity
  8
Ground path
  6
ByLayer
 62
  256
370
   -1
100
AcDbHatch
 10
0
 20
0
 30
0
210
0
220
0
230
1
  2
SOLID
 70
    1
 71
    0
 91
    1
 92
    0
 93
    4
 72
    1
 10
220
 20
220
 11
224
 21
220
 72
    1
 10
224
 20
220
 11
224
 21
50
 72
    1
 10
224
 20
50
 11
220
 21
50
 72
    1
 10
220
 20
50
 11
220
 21
220
 97
    0
 75
    0
 76
    1
 98
    0
  0
HATCH
  5
B2
100
AcDbEntity
  8
Ground path
  6
ByLayer
 62
  256
370
   -1
100
AcDbHatch
 10
0
 20
0
 30
0
210
0
220
0
230
1
  2
SOLID
 70
    1
 71
    0
 91
    1
 92
    0
 93
    4
 72
    1
 10
200
 20
220
 11
204
 21
220
 72
    1
 10
204
 20
220
 11
204
 21
50
 72
    1
 10
204
 20
50
 11
200
 21
50
 72
    1
 10
200
 20
50
 11
200
 21
220
 97
    0
 75
    0
 76
    1
 98
    0
  0
INSERT
  5
B3
100
AcDbEntity
  8
Other elements
  6
ByLayer
 62
  256
370
   -1
100
AcDbBlockReference
  2
NCJ9FI
 10
120
 20
180
 30
0
 41
1
 42
1
 43
0
 50
0
 70
    1
 71
    1
 44
0
 45
0
  0
INSERT
  5
B4
100
AcDbEntity
  8
Other elements
  6
ByLayer
 62
  256
370
   -1
100
AcDbBlockReference
  2
NCJ9FI
 10
120
 20
120
 30
0
 41
1
 42
1
 43
0
 50
0
 70
    1
 71
    1
 44
0
 45
0
  0
INSERT
  5
B5
100
AcDbEntity
  8
Ground path
  6
ByLayer
 62
  256
370
   -1
100
AcDbBlockReference
  2
Shield
 10
150
 20
205
 30
0
 41
1
 42
1
 43
0
 50
0
 70
    1
 71
    1
 44
0
 45
0
  0
LINE
  5
B6
100
AcDbEntity
  8
Ground path
  6
ByLayer
 62
  256
370
   -1
100
AcDbLine
 10
120
 20
206
 11
130
 21
206
  0
LINE
  5
B7
100
AcDbEntity
  8
Ground path
  6
ByLayer
 62
  256
370
   -1
100
AcDbLine
 10
130
 20
206
 11
133
 21
209
  0
LINE
  5
B8
100
AcDbEntity
  8
Ground path
  6
ByLayer
 62
  256
370
   -1
100
AcDbLine
 10
133
 20
209
 11
149.9999980630352
 21
209
  0
LINE
  5
B9
100
AcDbEntity
  8
Other elements
  6
ByLayer
 62
  256
370
   -1
100
AcDbLine
 10
120
 20
198
 11
130
 21
198
  0
LINE
  5
BA
100
AcDbEntity
  8
Other elements
  6
ByLayer
 62
  256
370
   -1
100
AcDbLine
 10
130
 20
198
 11
139
 21
207
  0
LINE
  5
BB
100
AcDbEntity
  8
Other elements
  6
ByLayer
 62
  256
370
   -1
100
AcDbLine
 10
139
 20
207
 11
200
 21
207
  0
LINE
  5
BC
100
AcDbEntity
  8
Other elements
  6
ByLayer
 62
  256
370
   -1
100
AcDbLine
 10
120
 20
190
 11
128
 21
190
  0
LINE
  5
BD
100
AcDbEntity
  8
Other elements
  6
ByLayer
 62
  256
370
   -1
100
AcDbLine
 10
128
 20
190
 11
141
 21
203
  0
LINE
  5
BE
100
AcDbEntity
  8
Other elements
  6
ByLayer
 62
  256
370
   -1
100
AcDbLine
 10
141
 20
203
 11
200
 21
203
  0
INSERT
  5
BF
100
AcDbEntity
  8
Ground path
  6
ByLayer
 62
  256
370
   -1
100
AcDbBlockReference
  2
Shield
 10
150
 20
170
 30
0
 41
1
 42
1
 43
0
 50
0
 70
    1
 71
    1
 44
0
 45
0
  0
INSERT
  5
C0
100
AcDbEntity
  8
Ground path
  6
ByLayer
 62
  256
370
   -1
100
AcDbBlockReference
  2
Shield
 10
150
 20
188
 30
0
 41
1
 42
1
 43
0
 50
0
 70
    1
 71
    1
 44
0
 45
0
  0
LINE
  5
C1
100
AcDbEntity
  8
Other elements
  6
ByLayer
 62
  256
370
   -1
100
AcDbLine
 10
120
 20
194
 11
137
 21
194
  0
LINE
  5
C2
100
AcDbEntity
  8
Other elements
  6
ByLayer
 62
  256
370
   -1
100
AcDbLine
 10
137
 20
194
 11
141
 21
190
  0
LINE
  5
C3
100
AcDbEntity
  8
Other elements
  6
ByLayer
 62
  256
370
   -1
100
AcDbLine
 10
141
 20
190
 11
200
 21
190
  0
LINE
  5
C4
100
AcDbEntity
  8
Other elements
  6
ByLayer
 62
  256
370
   -1
100
AcDbLine
 10
120
 20
186
 11
200
 21
186
  0
LINE
  5
C5
100
AcDbEntity
  8
Other elements
  6
ByLayer
 62
  256
370
   -1
100
AcDbLine
 10
120
 20
172
 11
200
 21
172
  0
LINE
  5
C6
100
AcDbEntity
  8
Other elements
  6
ByLayer
 62
  256
370
   -1
100
AcDbLine
 10
120
 20
168
 11
200
 21
168
  0
LINE
  5
C7
100
AcDbEntity
  8
Ground path
  6
ByLayer
 62
  256
370
   -1
100
AcDbLine
 10
125
 20
206
 11
125
 21
176
  0
LINE
  5
C8
100
AcDbEntity
  8
Ground path
  6
ByLayer
 62
  256
370
   -1
100
AcDbLine
 10
125
 20
176
 11
120
 21
176
  0
LINE
  5
C9
100
AcDbEntity
  8
Ground path
  6
ByLayer
 62
  256
370
   -1
100
AcDbLine
 10
125
 20
176
 11
125
 21
164
  0
LINE
  5
CA
100
AcDbEntity
  8
Ground path
  6
ByLayer
 62
  256
370
   -1
100
AcDbLine
 10
125
 20
164
 11
120
 21
164
  0
CIRCLE
  5
CB
100
AcDbEntity
  8
Ground path
  6
ByLayer
 62
  256
370
   -1
100
AcDbCircle
 10
125
 20
206
 40
0.5
  0
CIRCLE
  5
CC
100
AcDbEntity
  8
Ground path
  6
ByLayer
 62
  256
370
   -1
100
AcDbCircle
 10
125
 20
176
 40
0.5
  0
LINE
  5
CD
100
AcDbEntity
  8
Ground path
  6
ByLayer
 62
  256
370
   -1
100
AcDbLine
 10
190.0000023150418
 20
209
 11
194
 21
209
  0
LINE
  5
CE
100
AcDbEntity
  8
Ground path
  6
ByLayer
 62
  256
370
   -1
100
AcDbLine
 10
194
 20
209
 11
196
 21
211
  0
LINE
  5
CF
100
AcDbEntity
  8
Ground path
  6
ByLayer
 62
  256
370
   -1
100
AcDbLine
 10
196
 20
211
 11
200
 21
211
  0
LINE
  5
D0
100
AcDbEntity
  8
Ground path
  6
ByLayer
 62
  256
370
   -1
100
AcDbLine
 10
190
 20
192
 11
194
 21
192
  0
LINE
  5
D1
100
AcDbEntity
  8
Ground path
  6
ByLayer
 62
  256
370
   -1
100
AcDbLine
 10
194
 20
192
 11
196
 21
194
  0
LINE
  5
D2
100
AcDbEntity
  8
Ground path
  6
ByLayer
 62
  256
370
   -1
100
AcDbLine
 10
196
 20
194
 11
200
 21
194
  0
LINE
  5
D3
100
AcDbEntity
  8
Ground path
  6
ByLayer
 62
  256
370
   -1
100
AcDbLine
 10
190
 20
174
 11
194
 21
174
  0
LINE
  5
D4
100
AcDbEntity
  8
Ground path
  6
ByLayer
 62
  256
370
   -1
100
AcDbLine
 10
194
 20
174
 11
196
 21
176
  0
LINE
  5
D5
100
AcDbEntity
  8
Ground path
  6
ByLayer
 62
  256
370
   -1
100
AcDbLine
 10
196
 20
176
 11
200
 21
176
  0
INSERT
  5
D6
100
AcDbEntity
  8
Ground path
  6
ByLayer
 62
  256
370
   -1
100
AcDbBlockReference
  2
Shield
 10
150
 20
145
 30
0
 41
1
 42
1
 43
0
 50
0
 70
    1
 71
    1
 44
0
 45
0
  0
LINE
  5
D7
100
AcDbEntity
  8
Other elements
  6
ByLayer
 62
  256
370
   -1
100
AcDbLine
 10
120
 20
138
 11
130
 21
138
  0
LINE
  5
D8
100
AcDbEntity
  8
Other elements
  6
ByLayer
 62
  256
370
   -1
100
AcDbLine
 10
130
 20
138
 11
139
 21
147
  0
LINE
  5
D9
100
AcDbEntity
  8
Other elements
  6
ByLayer
 62
  256
370
   -1
100
AcDbLine
 10
139
 20
147
 11
200
 21
147
  0
LINE
  5
DA
100
AcDbEntity
  8
Other elements
  6
ByLayer
 62
  256
370
   -1
100
AcDbLine
 10
120
 20
130
 11
128
 21
130
  0
LINE
  5
DB
100
AcDbEntity
  8
Other elements
  6
ByLayer
 62
  256
370
   -1
100
AcDbLine
 10
128
 20
130
 11
141
 21
143
  0
LINE
  5
DC
100
AcDbEntity
  8
Other elements
  6
ByLayer
 62
  256
370
   -1
100
AcDbLine
 10
141
 20
143
 11
200
 21
143
  0
INSERT
  5
DD
100
AcDbEntity
  8
Ground path
  6
ByLayer
 62
  256
370
   -1
100
AcDbBlockReference
  2
Shield
 10
150
 20
110
 30
0
 41
1
 42
1
 43
0
 50
0
 70
    1
 71
    1
 44
0
 45
0
  0
INSERT
  5
DE
100
AcDbEntity
  8
Ground path
  6
ByLayer
 62
  256
370
   -1
100
AcDbBlockReference
  2
Shield
 10
150
 20
128
 30
0
 41
1
 42
1
 43
0
 50
0
 70
    1
 71
    1
 44
0
 45
0
  0
LINE
  5
DF
100
AcDbEntity
  8
Other elements
  6
ByLayer
 62
  256
370
   -1
100
AcDbLine
 10
120
 20
134
 11
137
 21
134
  0
LINE
  5
E0
100
AcDbEntity
  8
Other elements
  6
ByLayer
 62
  256
370
   -1
100
AcDbLine
 10
137
 20
134
 11
141
 21
130
  0
LINE
  5
E1
100
AcDbEntity
  8
Other elements
  6
ByLayer
 62
  256
370
   -1
100
AcDbLine
 10
141
 20
130
 11
200
 21
130
  0
LINE
  5
E2
100
AcDbEntity
  8
Other elements
  6
ByLayer
 62
  256
370
   -1
100
AcDbLine
 10
120
 20
126
 11
200
 21
126
  0
LINE
  5
E3
100
AcDbEntity
  8
Other elements
  6
ByLayer
 62
  256
370
   -1
100
AcDbLine
 10
120
 20
112
 11
200
 21
112
  0
LINE
  5
E4
100
AcDbEntity
  8
Other elements
  6
ByLayer
 62
  256
370
   -1
100
AcDbLine
 10
120
 20
108
 11
200
 21
108
  0
LINE
  5
E5
100
AcDbEntity
  8
Ground path
  6
ByLayer
 62
  256
370
   -1
100
AcDbLine
 10
125
 20
146
 11
125
 21
116
  0
LINE
  5
E6
100
AcDbEntity
  8
Ground path
  6
ByLayer
 62
  256
370
   -1
100
AcDbLine
 10
125
 20
116
 11
120
 21
116
  0
LINE
  5
E7
100
AcDbEntity
  8
Ground path
  6
ByLayer
 62
  256
370
   -1
100
AcDbLine
 10
125
 20
116
 11
125
 21
104
  0
LINE
  5
E8
100
AcDbEntity
  8
Ground path
  6
ByLayer
 62
  256
370
   -1
100
AcDbLine
 10
125
 20
104
 11
120
 21
104
  0
CIRCLE
  5
E9
100
AcDbEntity
  8
Ground path
  6
ByLayer
 62
  256
370
   -1
100
AcDbCircle
 10
125
 20
116
 40
0.5
  0
LINE
  5
EA
100
AcDbEntity
  8
Ground path
  6
ByLayer
 62
  256
370
   -1
100
AcDbLine
 10
190.0000023150418
 20
149
 11
194
 21
149
  0
LINE
  5
EB
100
AcDbEntity
  8
Ground path
  6
ByLayer
 62
  256
370
   -1
100
AcDbLine
 10
194
 20
149
 11
196
 21
151
  0
LINE
  5
EC
100
AcDbEntity
  8
Ground path
  6
ByLayer
 62
  256
370
   -1
100
AcDbLine
 10
196
 20
151
 11
200
 21
151
  0
LINE
  5
ED
100
AcDbEntity
  8
Ground path
  6
ByLayer
 62
  256
370
   -1
100
AcDbLine
 10
190
 20
132
 11
194
 21
132
  0
LINE
  5
EE
100
AcDbEntity
  8
Ground path
  6
ByLayer
 62
  256
370
   -1
100
AcDbLine
 10
194
 20
132
 11
196
 21
134
  0
LINE
  5
EF
100
AcDbEntity
  8
Ground path
  6
ByLayer
 62
  256
370
   -1
100
AcDbLine
 10
196
 20
134
 11
200
 21
134
  0
LINE
  5
F0
100
AcDbEntity
  8
Ground path
  6
ByLayer
 62
  256
370
   -1
100
AcDbLine
 10
190
 20
114
 11
194
 21
114
  0
LINE
  5
F1
100
AcDbEntity
  8
Ground path
  6
ByLayer
 62
  256
370
   -1
100
AcDbLine
 10
194
 20
114
 11
196
 21
116
  0
LINE
  5
F2
100
AcDbEntity
  8
Ground path
  6
ByLayer
 62
  256
370
   -1
100
AcDbLine
 10
196
 20
116
 11
200
 21
116
  0
LINE
  5
F3
100
AcDbEntity
  8
Ground path
  6
ByLayer
 62
  256
370
   -1
100
AcDbLine
 10
120
 20
146
 11
125
 21
146
  0
INSERT
  5
F4
100
AcDbEntity
  8
Other elements
  6
ByLayer
 62
  256
370
   -1
100
AcDbBlockReference
  2
TRS
 10
120
 20
70
 30
0
 41
1
 42
1
 43
0
 50
0
 70
    1
 71
    1
 44
0
 45
0
  0
INSERT
  5
F5
100
AcDbEntity
  8
Other elements
  6
ByLayer
 62
  256
370
   -1
100
AcDbBlockReference
  2
TRS
 10
120
 20
45
 30
0
 41
1
 42
1
 43
0
 50
0
 70
    1
 71
    1
 44
0
 45
0
  0
INSERT
  5
F6
100
AcDbEntity
  8
Ground path
  6
ByLayer
 62
  256
370
   -1
100
AcDbBlockReference
  2
Shield
 10
150
 20
82
 30
0
 41
1
 42
1
 43
0
 50
0
 70
    1
 71
    1
 44
0
 45
0
  0
INSERT
  5
F7
100
AcDbEntity
  8
Ground path
  6
ByLayer
 62
  256
370
   -1
100
AcDbBlockReference
  2
Shield
 10
150
 20
57
 30
0
 41
1
 42
1
 43
0
 50
0
 70
    1
 71
    1
 44
0
 45
0
  0
LINE
  5
F8
100
AcDbEntity
  8
Other elements
  6
ByLayer
 62
  256
370
   -1
100
AcDbLine
 10
120
 20
84
 11
200
 21
84
  0
LINE
  5
F9
100
AcDbEntity
  8
Other elements
  6
ByLayer
 62
  256
370
   -1
100
AcDbLine
 10
120
 20
80
 11
200
 21
80
  0
LINE
  5
FA
100
AcDbEntity
  8
Other elements
  6
ByLayer
 62
  256
370
   -1
100
AcDbLine
 10
120
 20
59
 11
200
 21
59
  0
LINE
  5
FB
100
AcDbEntity
  8
Other elements
  6
ByLayer
 62
  256
370
   -1
100
AcDbLine
 10
120
 20
55
 11
200
 21
55
  0
LINE
  5
FC
100
AcDbEntity
  8
Ground path
  6
ByLayer
 62
  256
370
   -1
100
AcDbLine
 10
190
 20
86
 11
194
 21
86
  0
LINE
  5
FD
100
AcDbEntity
  8
Ground path
  6
ByLayer
 62
  256
370
   -1
100
AcDbLine
 10
194
 20
86
 11
196
 21
88
  0
LINE
  5
FE
100
AcDbEntity
  8
Ground path
  6
ByLayer
 62
  256
370
   -1
100
AcDbLine
 10
196
 20
88
 11
200
 21
88
  0
LINE
  5
FF
100
AcDbEntity
  8
Ground path
  6
ByLayer
 62
  256
370
   -1
100
AcDbLine
 10
190
 20
61
 11
194
 21
61
  0
LINE
  5
100
100
AcDbEntity
  8
Ground path
  6
ByLayer
 62
  256
370
   -1
100
AcDbLine
 10
194
 20
61
 11
196
 21
63
  0
LINE
  5
101
100
AcDbEntity
  8
Ground path
  6
ByLayer
 62
  256
370
   -1
100
AcDbLine
 10
196
 20
63
 11
200
 21
63
  0
LINE
  5
102
100
AcDbEntity
  8
Ground path
  6
ByLayer
 62
  256
370
   -1
100
AcDbLine
 10
70
 20
164
 11
90
 21
164
  0
LINE
  5
103
100
AcDbEntity
  8
Ground path
  6
ByLayer
 62
  256
370
   -1
100
AcDbLine
 10
70
 20
104
 11
90
 21
104
  0
LINE
  5
104
100
AcDbEntity
  8
Ground path
  6
ByLayer
 62
  256
370
   -1
100
AcDbLine
 10
70
 20
70
 11
80
 21
70
  0
LINE
  5
105
100
AcDbEntity
  8
Ground path
  6
ByLayer
 62
  256
370
   -1
100
AcDbLine
 10
70
 20
45
 11
80
 21
45
  0
LWPOLYLINE
  5
106
100
AcDbEntity
  8
Ground path
  6
ByLayer
 62
  256
370
   -1
100
AcDbPolyline
 90
    4
 70
    1
 43
0
 10
200
 20
220
 10
204
 20
220
 10
204
 20
50
 10
200
 20
50
  0
LWPOLYLINE
  5
107
100
AcDbEntity
  8
Ground path
  6
ByLayer
 62
  256
370
   -1
100
AcDbPolyline
 90
    4
 70
    1
 43
0
 10
220
 20
220
 10
224
 20
220
 10
224
 20
50
 10
220
 20
50
  0
LINE
  5
108
100
AcDbEntity
  8
Ground path
  6
ByLayer
 62
  256
370
   -1
100
AcDbLine
 10
204
 20
160
 11
209
 21
160
  0
LINE
  5
109
100
AcDbEntity
  8
Ground path
  6
ByLayer
 62
  256
370
   -1
100
AcDbLine
 10
209
 20
160
 11
214
 21
163
  0
LINE
  5
10A
100
AcDbEntity
  8
Ground path
  6
ByLayer
 62
  256
370
   -1
100
AcDbLine
 10
215
 20
160
 11
220
 21
160
  0
CIRCLE
  5
10B
100
AcDbEntity
  8
Ground path
  6
ByLayer
 62
  256
370
   -1
100
AcDbCircle
 10
209
 20
160
 40
0.5
  0
CIRCLE
  5
10C
100
AcDbEntity
  8
Ground path
  6
ByLayer
 62
  256
370
   -1
100
AcDbCircle
 10
215
 20
160
 40
0.5
  0
CIRCLE
  5
10D
100
AcDbEntity
  8
Ground path
  6
ByLayer
 62
  256
370
   -1
100
AcDbCircle
 10
70
 20
164
 40
0.5
  0
CIRCLE
  5
10E
100
AcDbEntity
  8
Ground path
  6
ByLayer
 62
  256
370
   -1
100
AcDbCircle
 10
70
 20
104
 40
0.5
  0
CIRCLE
  5
10F
100
AcDbEntity
  8
Ground path
  6
ByLayer
 62
  256
370
   -1
100
AcDbCircle
 10
70
 20
70
 40
0.5
  0
CIRCLE
  5
110
100
AcDbEntity
  8
Ground path
  6
ByLayer
 62
  256
370
   -1
100
AcDbCircle
 10
70
 20
45
 40
0.5
  0
CIRCLE
  5
111
100
AcDbEntity
  8
Ground path
  6
ByLayer
 62
  256
370
   -1
100
AcDbCircle
 10
200
 20
211
 40
0.5
  0
CIRCLE
  5
112
100
AcDbEntity
  8
Ground path
  6
ByLayer
 62
  256
370
   -1
100
AcDbCircle
 10
200
 20
194
 40
0.5
  0
CIRCLE
  5
113
100
AcDbEntity
  8
Ground path
  6
ByLayer
 62
  256
370
   -1
100
AcDbCircle
 10
200
 20
176
 40
0.5
  0
CIRCLE
  5
114
100
AcDbEntity
  8
Ground path
  6
ByLayer
 62
  256
370
   -1
100
AcDbCircle
 10
200
 20
151
 40
0.5
  0
CIRCLE
  5
115
100
AcDbEntity
  8
Ground path
  6
ByLayer
 62
  256
370
   -1
100
AcDbCircle
 10
200
 20
134
 40
0.5
  0
CIRCLE
  5
116
100
AcDbEntity
  8
Ground path
  6
ByLayer
 62
  256
370
   -1
100
AcDbCircle
 10
200
 20
116
 40
0.5
  0
CIRCLE
  5
117
100
AcDbEntity
  8
Ground path
  6
ByLayer
 62
  256
370
   -1
100
AcDbCircle
 10
200
 20
88
 40
0.5
  0
CIRCLE
  5
118
100
AcDbEntity
  8
Ground path
  6
ByLayer
 62
  256
370
   -1
100
AcDbCircle
 10
200
 20
63
 40
0.5
  0
MTEXT
  5
119
100
AcDbEntity
  8
Ground path
  6
ByLayer
 62
  256
370
   -1
100
AcDbMText
 10
206
 20
218
 30
0
 40
6
 41
4
 71
    1
 72
    1
  1
A
  7
unicode
210
0
220
0
230
1
 50
0
 73
    2
 44
1
  0
MTEXT
  5
11A
100
AcDbEntity
  8
Ground path
  6
ByLayer
 62
  256
370
   -1
100
AcDbMText
 10
218
 20
218
 30
0
 40
6
 41
3.333333333333333
 71
    3
 72
    1
  1
D
  7
unicode
210
0
220
0
230
1
 50
0
 73
    2
 44
1
  0
MTEXT
  5
11B
100
AcDbEntity
  8
Ground path
  6
ByLayer
 62
  256
370
   -1
100
AcDbMText
 10
68
 20
227
 30
0
 40
6
 41
36.66866801585606
 71
    5
 72
    1
  1
Enclosure
  7
unicode
210
0
220
0
230
1
 50
0
 73
    2
 44
1
  0
MTEXT
  5
11C
100
AcDbEntity
  8
Ground path
  6
ByLayer
 62
  256
370
   -1
100
AcDbMText
 10
212
 20
227
 30
0
 40
6
 41
47.16666666666666
 71
    5
 72
    1
  1
Audio board
  7
unicode
210
0
220
0
230
1
 50
0
 73
    2
 44
1
  0
MTEXT
  5
11D
100
AcDbEntity
  8
Ground path
  6
ByLayer
 62
  256
370
   -1
100
AcDbMText
 10
272
 20
227
 30
0
 40
6
 41
51.16866801585606
 71
    5
 72
    1
  1
Raspberry Pi
  7
unicode
210
0
220
0
230
1
 50
0
 73
    2
 44
1
  0
CIRCLE
  5
11E
100
AcDbEntity
  8
Ground path
  6
ByLayer
 62
  256
370
   -1
100
AcDbCircle
 10
66
 20
160
 40
0.5
  0
LINE
  5
11F
100
AcDbEntity
  8
Ground path
  6
ByLayer
 62
  256
370
   -1
100
AcDbLine
 10
10
 20
160
 11
10
 21
150
  0
LINE
  5
120
100
AcDbEntity
  8
Ground path
  6
ByLayer
 62
  256
370
   -1
100
AcDbLine
 10
5
 20
150
 11
15
 21
150
  0
LINE
  5
121
100
AcDbEntity
  8
Ground path
  6
ByLayer
 62
  256
370
   -1
100
AcDbLine
 10
7
 20
148
 11
13
 21
148
  0
LINE
  5
122
100
AcDbEntity
  8
Ground path
  6
ByLayer
 62
  256
370
   -1
100
AcDbLine
 10
9
 20
146
 11
11
 21
146
  0
LINE
  5
123
100
AcDbEntity
  8
Ground path
  6
ByLayer
 62
  256
370
   -1
100
AcDbLine
 10
66
 20
160
 11
10
 21
160
  0
LINE
  5
124
100
AcDbEntity
  8
Other elements
  6
ByLayer
 62
  256
370
   -1
100
AcDbLine
 10
10
 20
130
 11
50
 21
130
  0
LINE
  5
125
100
AcDbEntity
  8
Other elements
  6
ByLayer
 62
  256
370
   -1
100
AcDbLine
 10
10
 20
100
 11
40
 21
100
  0
MTEXT
  5
126
100
AcDbEntity
  8
Ground path
  6
ByLayer
 62
  256
370
   -1
100
AcDbMText
 10
10
 20
165
 30
0
 40
6
 41
20
 71
    4
 72
    1
  1
Earth
  7
unicode
210
0
220
0
230
1
 50
0
 73
    2
 44
1
  0
MTEXT
  5
127
100
AcDbEntity
  8
Other elements
  6
ByLayer
 62
  256
370
   -1
100
AcDbMText
 10
10
 20
135
 30
0
 40
6
 41
14
 71
    4
 72
    1
  1
Line
  7
unicode
210
0
220
0
230
1
 50
0
 73
    2
 44
1
  0
MTEXT
  5
128
100
AcDbEntity
  8
Other elements
  6
ByLayer
 62
  256
370
   -1
100
AcDbMText
 10
10
 20
105
 30
0
 40
6
 41
28
 71
    4
 72
    1
  1
Neutral
  7
unicode
210
0
220
0
230
1
 50
0
 73
    2
 44
1
  0
LWPOLYLINE
  5
129
100
AcDbEntity
  8
Ground path
  6
ByLayer
 62
  256
370
   -1
100
AcDbPolyline
 90
    5
 70
    1
 43
0
 10
70
 20
220
 10
66
 20
220
 10
66
 20
-210
 10
70
 20
-210
 10
70
 20
-210
  0
LWPOLYLINE
  5
12A
100
AcDbEntity
  8
Ground path
  6
ByLayer
 62
  256
370
   -1
100
AcDbPolyline
 90
    4
 70
    1
 43
0
 10
270
 20
220
 10
274
 20
220
 10
274
 20
-210
 10
270
 20
-210
  0
LWPOLYLINE
  5
12B
100
AcDbEntity
  8
Ground path
  6
ByLayer
 62
  256
370
   -1
100
AcDbPolyline
 90
    4
 70
    1
 43
0
 10
90
 20
-120
 10
94
 20
-120
 10
94
 20
-160
 10
90
 20
-160
  0
MTEXT
  5
12C
100
AcDbEntity
  8
Ground path
  6
ByLayer
 62
  256
370
   -1
100
AcDbMText
 10
92
 20
-115
 30
0
 40
6
 41
26.66866801585606
 71
    5
 72
    1
  1
Display
  7
unicode
210
0
220
0
230
1
 50
0
 73
    2
 44
1
  0
INSERT
  5
12D
100
AcDbEntity
  8
Ground path
  6
ByLayer
 62
  256
370
   -1
100
AcDbBlockReference
  2
Transformer
 10
90.00000192604006
 20
-180
 30
0
 41
1
 42
1
 43
0
 50
0
 70
    1
 71
    1
 44
0
 45
0
  0
LINE
  5
12E
100
AcDbEntity
  8
Other elements
  6
ByLayer
 62
  256
370
   -1
100
AcDbLine
 10
50
 20
-180
 11
90
 21
-180
  0
LINE
  5
12F
100
AcDbEntity
  8
Other elements
  6
ByLayer
 62
  256
370
   -1
100
AcDbLine
 10
40
 20
-208
 11
90
 21
-208
  0
INSERT
  5
130
100
AcDbEntity
  8
Ground path
  6
ByLayer
 62
  256
370
   -1
100
AcDbBlockReference
  2
Shield
 10
150
 20
-184
 30
0
 41
1
 42
1
 43
0
 50
0
 70
    1
 71
    1
 44
0
 45
0
  0
LINE
  5
131
100
AcDbEntity
  8
Ground path
  6
ByLayer
 62
  256
370
   -1
100
AcDbLine
 10
190
 20
-180
 11
270
 21
-180
  0
CIRCLE
  5
132
100
AcDbEntity
  8
Ground path
  6
ByLayer
 62
  256
370
   -1
100
AcDbCircle
 10
270
 20
-180
 40
0.5
  0
LINE
  5
133
100
AcDbEntity
  8
Other elements
  6
ByLayer
 62
  256
370
   -1
100
AcDbLine
 10
40
 20
100
 11
40
 21
-208
  0
LINE
  5
134
100
AcDbEntity
  8
Other elements
  6
ByLayer
 62
  256
370
   -1
100
AcDbLine
 10
50
 20
130
 11
50
 21
-180
  0
LWPOLYLINE
  5
135
100
AcDbEntity
  8
Ground path
  6
ByLayer
 62
  256
370
   -1
100
AcDbPolyline
 90
    4
 70
    1
 43
0
 10
132.9999990200291
 20
35
 10
136.9999990200291
 20
35
 10
136.9999990200291
 20
0
 10
132.9999990200291
 20
0
  0
LINE
  5
136
100
AcDbEntity
  8
Ground path
  6
ByLayer
 62
  256
370
   -1
100
AcDbLine
 10
103.9999990200291
 20
16
 11
132.9999990200291
 21
16
  0
CIRCLE
  5
137
100
AcDbEntity
  8
Ground path
  6
ByLayer
 62
  256
370
   -1
100
AcDbCircle
 10
132.9999990200291
 20
16
 40
0.5
  0
INSERT
  5
138
100
AcDbEntity
  8
Ground path
  6
ByLayer
 62
  256
370
   -1
100
AcDbBlockReference
  2
Transformer
 10
90.00000094606918
 20
29.99999999999999
 30
0
 41
1
 42
1
 43
0
 50
0
 70
    1
 71
    1
 44
0
 45
0
  0
LINE
  5
139
100
AcDbEntity
  8
Other elements
  6
ByLayer
 62
  256
370
   -1
100
AcDbLine
 10
49.99999902002912
 20
30
 11
89.99999902002912
 21
30
  0
LINE
  5
13A
100
AcDbEntity
  8
Other elements
  6
ByLayer
 62
  256
370
   -1
100
AcDbLine
 10
39.99999902002912
 20
2
 11
89.99999902002912
 21
2
  0
CIRCLE
  5
13B
100
AcDbEntity
  8
Other elements
  6
ByLayer
 62
  256
370
   -1
100
AcDbCircle
 10
49.99999902002912
 20
30
 40
0.5
  0
CIRCLE
  5
13C
100
AcDbEntity
  8
Other elements
  6
ByLayer
 62
  256
370
   -1
100
AcDbCircle
 10
39.99999902002912
 20
2
 40
0.5
  0
LINE
  5
13D
100
AcDbEntity
  8
Other elements
  6
ByLayer
 62
  256
370
   -1
100
AcDbLine
 10
132.9999990200291
 20
30
 11
101.9999990200291
 21
30
  0
LINE
  5
13E
100
AcDbEntity
  8
Other elements
  6
ByLayer
 62
  256
370
   -1
100
AcDbLine
 10
132.9999990200291
 20
2
 11
101.9999990200291
 21
2
  0
MTEXT
  5
13F
100
AcDbEntity
  8
Ground path
  6
ByLayer
 62
  256
370
   -1
100
AcDbMText
 10
134.9999990200291
 20
-5
 30
0
 40
6
 41
51.16666666666666
 71
    5
 72
    1
  1
2x15V AC-DC
  7
unicode
210
0
220
0
230
1
 50
0
 73
    2
 44
1
  0
ARC
  5
140
100
AcDbEntity
  8
Ground path
  6
ByLayer
 62
  256
370
   -1
100
AcDbCircle
 10
220
 20
-50
 40
0
100
AcDbArc
 50
0
 51
0
  0
INSERT
  5
141
100
AcDbEntity
  8
Other elements
  6
ByLayer
 62
  256
370
   -1
100
AcDbBlockReference
  2
TRS
 10
120
 20
-40
 30
0
 41
1
 42
1
 43
0
 50
0
 70
    1
 71
    1
 44
0
 45
0
  0
INSERT
  5
142
100
AcDbEntity
  8
Other elements
  6
ByLayer
 62
  256
370
   -1
100
AcDbBlockReference
  2
TRS
 10
120
 20
-65
 30
0
 41
1
 42
1
 43
0
 50
0
 70
    1
 71
    1
 44
0
 45
0
  0
INSERT
  5
143
100
AcDbEntity
  8
Other elements
  6
ByLayer
 62
  256
370
   -1
100
AcDbBlockReference
  2
TRS
 10
120
 20
-90
 30
0
 41
1
 42
1
 43
0
 50
0
 70
    1
 71
    1
 44
0
 45
0
  0
INSERT
  5
144
100
AcDbEntity
  8
Ground path
  6
ByLayer
 62
  256
370
   -1
100
AcDbBlockReference
  2
Shield
 10
150
 20
-28
 30
0
 41
1
 42
1
 43
0
 50
0
 70
    1
 71
    1
 44
0
 45
0
  0
LINE
  5
145
100
AcDbEntity
  8
Ground path
  6
ByLayer
 62
  256
370
   -1
100
AcDbLine
 10
190
 20
-24
 11
194
 21
-24
  0
LINE
  5
146
100
AcDbEntity
  8
Ground path
  6
ByLayer
 62
  256
370
   -1
100
AcDbLine
 10
194
 20
-24
 11
196
 21
-22
  0
LINE
  5
147
100
AcDbEntity
  8
Ground path
  6
ByLayer
 62
  256
370
   -1
100
AcDbLine
 10
196
 20
-22
 11
200
 21
-22
  0
INSERT
  5
148
100
AcDbEntity
  8
Ground path
  6
ByLayer
 62
  256
370
   -1
100
AcDbBlockReference
  2
Shield
 10
150
 20
-53
 30
0
 41
1
 42
1
 43
0
 50
0
 70
    1
 71
    1
 44
0
 45
0
  0
LINE
  5
149
100
AcDbEntity
  8
Ground path
  6
ByLayer
 62
  256
370
   -1
100
AcDbLine
 10
190
 20
-49
 11
194
 21
-49
  0
LINE
  5
14A
100
AcDbEntity
  8
Ground path
  6
ByLayer
 62
  256
370
   -1
100
AcDbLine
 10
194
 20
-49
 11
196
 21
-47
  0
LINE
  5
14B
100
AcDbEntity
  8
Ground path
  6
ByLayer
 62
  256
370
   -1
100
AcDbLine
 10
196
 20
-47
 11
200
 21
-47
  0
LINE
  5
14C
100
AcDbEntity
  8
Ground path
  6
ByLayer
 62
  256
370
   -1
100
AcDbLine
 10
190
 20
-74
 11
194
 21
-74
  0
LINE
  5
14D
100
AcDbEntity
  8
Ground path
  6
ByLayer
 62
  256
370
   -1
100
AcDbLine
 10
194
 20
-74
 11
196
 21
-72
  0
LINE
  5
14E
100
AcDbEntity
  8
Ground path
  6
ByLayer
 62
  256
370
   -1
100
AcDbLine
 10
196
 20
-72
 11
200
 21
-72
  0
LINE
  5
14F
100
AcDbEntity
  8
Other elements
  6
ByLayer
 62
  256
370
   -1
100
AcDbLine
 10
120
 20
-26
 11
200
 21
-26
  0
LINE
  5
150
100
AcDbEntity
  8
Other elements
  6
ByLayer
 62
  256
370
   -1
100
AcDbLine
 10
120
 20
-30
 11
200
 21
-30
  0
LINE
  5
151
100
AcDbEntity
  8
Other elements
  6
ByLayer
 62
  256
370
   -1
100
AcDbLine
 10
120
 20
-51
 11
200
 21
-51
  0
LINE
  5
152
100
AcDbEntity
  8
Other elements
  6
ByLayer
 62
  256
370
   -1
100
AcDbLine
 10
120
 20
-55
 11
200
 21
-55
  0
LINE
  5
153
100
AcDbEntity
  8
Other elements
  6
ByLayer
 62
  256
370
   -1
100
AcDbLine
 10
120
 20
-76
 11
200
 21
-76
  0
LINE
  5
154
100
AcDbEntity
  8
Other elements
  6
ByLayer
 62
  256
370
   -1
100
AcDbLine
 10
120
 20
-80
 11
200
 21
-80
  0
LINE
  5
155
100
AcDbEntity
  8
Ground path
  6
ByLayer
 62
  256
370
   -1
100
AcDbLine
 10
70
 20
-40
 11
80
 21
-40
  0
LINE
  5
156
100
AcDbEntity
  8
Ground path
  6
ByLayer
 62
  256
370
   -1
100
AcDbLine
 10
70
 20
-65
 11
80
 21
-65
  0
LINE
  5
157
100
AcDbEntity
  8
Ground path
  6
ByLayer
 62
  256
370
   -1
100
AcDbLine
 10
70
 20
-90
 11
80
 21
-90
  0
CIRCLE
  5
158
100
AcDbEntity
  8
Ground path
  6
ByLayer
 62
  256
370
   -1
100
AcDbCircle
 10
70
 20
-40
 40
0.5
  0
CIRCLE
  5
159
100
AcDbEntity
  8
Ground path
  6
ByLayer
 62
  256
370
   -1
100
AcDbCircle
 10
70
 20
-65
 40
0.5
  0
CIRCLE
  5
15A
100
AcDbEntity
  8
Ground path
  6
ByLayer
 62
  256
370
   -1
100
AcDbCircle
 10
70
 20
-90
 40
0.5
  0
CIRCLE
  5
15B
100
AcDbEntity
  8
Ground path
  6
ByLayer
 62
  256
370
   -1
100
AcDbCircle
 10
200
 20
-22
 40
0.5
  0
CIRCLE
  5
15C
100
AcDbEntity
  8
Ground path
  6
ByLayer
 62
  256
370
   -1
100
AcDbCircle
 10
200
 20
-47
 40
0.5
  0
CIRCLE
  5
15D
100
AcDbEntity
  8
Ground path
  6
ByLayer
 62
  256
370
   -1
100
AcDbCircle
 10
200
 20
-72
 40
0.5
  0
LINE
  5
15E
100
AcDbEntity
  8
Ground path
  6
ByLayer
 62
  256
370
   -1
100
AcDbLine
 10
204
 20
-50
 11
270
 21
-50
  0
CIRCLE
  5
15F
100
AcDbEntity
  8
Ground path
  6
ByLayer
 62
  256
370
   -1
100
AcDbCircle
 10
204
 20
-50
 40
0.5
  0
CIRCLE
  5
160
100
AcDbEntity
  8
Ground path
  6
ByLayer
 62
  256
370
   -1
100
AcDbCircle
 10
270
 20
-50
 40
0.5
  0
INSERT
  5
161
100
AcDbEntity
  8
Ground path
  6
ByLayer
 62
  256
370
   -1
100
AcDbBlockReference
  2
Shield
 10
150
 20
-78
 30
0
 41
1
 42
1
 43
0
 50
0
 70
    1
 71
    1
 44
0
 45
0
  0
CIRCLE
  5
162
100
AcDbEntity
  8
Ground path
  6
ByLayer
 62
  256
370
   -1
100
AcDbCircle
 10
136.9999990200291
 20
16
 40
0.5
  0
INSERT
  5
163
100
AcDbEntity
  8
Ground path
  6
ByLayer
 62
  256
370
   -1
100
AcDbBlockReference
  2
Shield
 10
150
 20
-150
 30
0
 41
1
 42
1
 43
0
 50
0
 70
    1
 71
    1
 44
0
 45
0
  0
LINE
  5
164
100
AcDbEntity
  8
Ground path
  6
ByLayer
 62
  256
370
   -1
100
AcDbLine
 10
150
 20
-146
 11
94
 21
-146
  0
LINE
  5
165
100
AcDbEntity
  8
Ground path
  6
ByLayer
 62
  256
370
   -1
100
AcDbLine
 10
190
 20
-146
 11
270
 21
-146
  0
LINE
  5
166
100
AcDbEntity
  8
Other elements
  6
ByLayer
 62
  256
370
   -1
100
AcDbLine
 10
94
 20
-150
 11
270
 21
-150
  0
CIRCLE
  5
167
100
AcDbEntity
  8
Ground path
  6
ByLayer
 62
  256
370
   -1
100
AcDbCircle
 10
270
 20
-146
 40
0.5
  0
CIRCLE
  5
168
100
AcDbEntity
  8
Ground path
  6
ByLayer
 62
  256
370
   -1
100
AcDbCircle
 10
94
 20
-146
 40
0.5
  0
MTEXT
  5
169
100
AcDbEntity
  8
Ground path
  6
ByLayer
 62
  256
370
   -1
100
AcDbMText
 10
170
 20
-141
 30
0
 40
6
 41
16.66666666666666
 71
    5
 72
    1
  1
HDMI
  7
unicode
210
0
220
0
230
1
 50
0
 73
    2
 44
1
  0
MTEXT
  5
16A
100
AcDbEntity
  8
Ground path
  6
ByLayer
 62
  256
370
   -1
100
AcDbMText
 10
202
 20
-105
 30
0
 40
6
 41
42.5
 71
    5
 72
    1
  1
Main board
  7
unicode
210
0
220
0
230
1
 50
0
 73
    2
 44
1
  0
LWPOLYLINE
  5
16B
100
AcDbEntity
  8
Ground path
  6
ByLayer
 62
  256
370
   -1
100
AcDbPolyline
 90
    4
 70
    1
 43
0
 10
200
 20
-15
 10
204
 20
-15
 10
204
 20
-100
 10
200
 20
-100
  0
LINE
  5
16C
100
AcDbEntity
  8
Other elements
  6
ByLayer
 62
  256
370
   -1
100
AcDbLine
 10
200
 20
-94
 11
144
 21
-94
  0
LINE
  5
16D
100
AcDbEntity
  8
Other elements
  6
ByLayer
 62
  256
370
   -1
100
AcDbLine
 10
144
 20
-94
 11
144
 21
-134
  0
LINE
  5
16E
100
AcDbEntity
  8
Other elements
  6
ByLayer
 62
  256
370
   -1
100
AcDbLine
 10
144
 20
-134
 11
94
 21
-134
  0
LINE
  5
16F
100
AcDbEntity
  8
Ground path
  6
ByLayer
 62
  256
370
   -1
100
AcDbLine
 10
94
 20
-130
 11
110
 21
-130
  0
LINE
  5
170
100
AcDbEntity
  8
Ground path
  6
ByLayer
 62
  256
370
   -1
100
AcDbLine
 10
110
 20
-130
 11
115
 21
-127
  0
LINE
  5
171
100
AcDbEntity
  8
Ground path
  6
ByLayer
 62
  256
370
   -1
100
AcDbLine
 10
116
 20
-130
 11
140
 21
-130
  0
LINE
  5
172
100
AcDbEntity
  8
Ground path
  6
ByLayer
 62
  256
370
   -1
100
AcDbLine
 10
140
 20
-130
 11
140
 21
-90
  0
LINE
  5
173
100
AcDbEntity
  8
Ground path
  6
ByLayer
 62
  256
370
   -1
100
AcDbLine
 10
140
 20
-90
 11
200
 21
-90
  0
CIRCLE
  5
174
100
AcDbEntity
  8
Ground path
  6
ByLayer
 62
  256
370
   -1
100
AcDbCircle
 10
94
 20
-130
 40
0.5
  0
CIRCLE
  5
175
100
AcDbEntity
  8
Ground path
  6
ByLayer
 62
  256
370
   -1
100
AcDbCircle
 10
110
 20
-130
 40
0.5
  0
CIRCLE
  5
176
100
AcDbEntity
  8
Ground path
  6
ByLayer
 62
  256
370
   -1
100
AcDbCircle
 10
116
 20
-130
 40
0.5
  0
CIRCLE
  5
177
100
AcDbEntity
  8
Ground path
  6
ByLayer
 62
  256
370
   -1
100
AcDbCircle
 10
200
 20
-90
 40
0.5
  0
CIRCLE
  5
178
100
AcDbEntity
  8
Ground path
  6
ByLayer
 62
  256
370
   -1
100
AcDbCircle
 10
202
 20
50
 40
0.5
  0
LINE
  5
179
100
AcDbEntity
  8
Ground path
  6
ByLayer
 62
  256
370
   -1
100
AcDbLine
 10
202
 20
16
 11
202
 21
50
  0
LINE
  5
17A
100
AcDbEntity
  8
Ground path
  6
ByLayer
 62
  256
370
   -1
100
AcDbLine
 10
137
 20
16
 11
202
 21
16
  0
CIRCLE
  5
17B
100
AcDbEntity
  8
Ground path
  6
ByLayer
 62
  256
370
   -1
100
AcDbCircle
 10
222
 20
50
 40
0.5
  0
CIRCLE
  5
17C
100
AcDbEntity
  8
Ground path
  6
ByLayer
 62
  256
370
   -1
100
AcDbCircle
 10
204
 20
-30
 40
0.5
  0
LINE
  5
17D
100
AcDbEntity
  8
Ground path
  6
ByLayer
 62
  256
370
   -1
100
AcDbLine
 10
222
 20
-30
 11
222
 21
50
  0
LINE
  5
17E
100
AcDbEntity
  8
Ground path
  6
ByLayer
 62
  256
370
   -1
100
AcDbLine
 10
204
 20
-30
 11
222
 21
-30
  0
LINE
  5
17F
100
AcDbEntity
  8
Other elements
  6
ByLayer
 62
  256
370
   -1
100
AcDbLine
 10
204
 20
180
 11
220
 21
180
  0
LINE
  5
180
100
AcDbEntity
  8
Other elements
  6
ByLayer
 62
  256
370
   -1
100
AcDbLine
 10
137
 20
20
 11
200
 21
20
  0
LINE
  5
181
100
AcDbEntity
  8
Other elements
  6
ByLayer
 62
  256
370
   -1
100
AcDbLine
 10
200
 20
20
 11
200
 21
50
  0
LINE
  5
182
100
AcDbEntity
  8
Other elements
  6
ByLayer
 62
  256
370
   -1
100
AcDbLine
 10
137
 20
12
 11
204
 21
12
  0
LINE
  5
183
100
AcDbEntity
  8
Other elements
  6
ByLayer
 62
  256
370
   -1
100
AcDbLine
 10
204
 20
12
 11
204
 21
50
  0
LINE
  5
184
100
AcDbEntity
  8
Ground path
  6
ByLayer
 62
  256
370
   -1
100
AcDbLine
 10
150
 20
-180
 11
124
 21
-180
  0
LWPOLYLINE
  5
185
100
AcDbEntity
  8
Ground path
  6
ByLayer
 62
  256
370
   -1
100
AcDbPolyline
 90
    4
 70
    1
 43
0
 10
120
 20
-175
 10
124
 20
-175
 10
124
 20
-210
 10
120
 20
-210
  0
LINE
  5
186
100
AcDbEntity
  8
Other elements
  6
ByLayer
 62
  256
370
   -1
100
AcDbLine
 10
102
 20
-208
 11
120
 21
-208
  0
LINE
  5
187
100
AcDbEntity
  8
Other elements
  6
ByLayer
 62
  256
370
   -1
100
AcDbLine
 10
124
 20
-184
 11
270
 21
-184
  0
CIRCLE
  5
188
100
AcDbEntity
  8
Ground path
  6
ByLayer
 62
  256
370
   -1
100
AcDbCircle
 10
124
 20
-180
 40
0.5
  0
MTEXT
  5
189
100
AcDbEntity
  8
Ground path
  6
ByLayer
 62
  256
370
   -1
100
AcDbMText
 10
122
 20
-170
 30
0
 40
6
 41
25.83573620466816
 71
    5
 72
    1
  1
Pi PSU
  7
unicode
210
0
220
0
230
1
 50
0
 73
    2
 44
1
  0
CIRCLE
  5
18A
100
AcDbEntity
  8
Ground path
  6
ByLayer
 62
  256
370
   -1
100
AcDbCircle
 10
120
 20
-180
 40
0.5
  0
LINE
  5
18B
100
AcDbEntity
  8
Ground path
  6
ByLayer
 62
  256
370
   -1
100
AcDbLine
 10
102
 20
-180
 11
120
 21
-180
  0
ENDSEC
  0
SECTION
  2
OBJECTS
  0
DICTIONARY
  5
C
330
0
100
AcDbDictionary
281
    1
  3
ACAD_GROUP
350
D
  0
DICTIONARY
  5
D
330
C
100
AcDbDictionary
281
    1
  0
ENDSEC
  0
EOF
