G04 #@! TF.FileFunction,Soldermask,Bot*
%FSLAX46Y46*%
G04 Gerber Fmt 4.6, Leading zero omitted, Abs format (unit mm)*
G04 Created by KiCad (PCBNEW 4.0.6) date 11/03/19 09:37:08*
%MOMM*%
%LPD*%
G01*
G04 APERTURE LIST*
%ADD10C,0.100000*%
%ADD11C,3.600000*%
%ADD12R,2.800000X2.800000*%
%ADD13C,2.800000*%
%ADD14C,2.000000*%
%ADD15R,2.600000X2.600000*%
%ADD16O,2.600000X2.600000*%
%ADD17R,2.200000X2.200000*%
%ADD18O,2.200000X2.200000*%
%ADD19R,2.900000X2.900000*%
%ADD20C,2.900000*%
%ADD21C,1.901140*%
%ADD22R,2.400000X3.000000*%
%ADD23O,2.400000X3.000000*%
%ADD24R,2.100000X2.100000*%
%ADD25O,2.100000X2.100000*%
G04 APERTURE END LIST*
D10*
D11*
X86000000Y-190000000D03*
X86000000Y-146000000D03*
X34000000Y-146000000D03*
X34000000Y-190000000D03*
D12*
X43180000Y-177800000D03*
D13*
X35680000Y-177800000D03*
D12*
X83820000Y-177800000D03*
D13*
X76320000Y-177800000D03*
D14*
X55880000Y-162560000D03*
X55880000Y-160060000D03*
X63500000Y-157480000D03*
X63500000Y-159980000D03*
D12*
X39370000Y-162560000D03*
D13*
X34370000Y-162560000D03*
D12*
X85090000Y-162560000D03*
D13*
X80090000Y-162560000D03*
D14*
X33020000Y-152400000D03*
X33020000Y-154900000D03*
X76200000Y-144780000D03*
X78700000Y-144780000D03*
D15*
X57150000Y-172720000D03*
D16*
X57150000Y-180340000D03*
D15*
X52070000Y-180340000D03*
D16*
X52070000Y-172720000D03*
D15*
X62230000Y-172720000D03*
D16*
X62230000Y-180340000D03*
D15*
X67310000Y-180340000D03*
D16*
X67310000Y-172720000D03*
D15*
X58420000Y-165100000D03*
D16*
X58420000Y-157480000D03*
D15*
X60960000Y-157480000D03*
D16*
X60960000Y-165100000D03*
D17*
X50800000Y-162560000D03*
D18*
X50800000Y-160020000D03*
X50800000Y-157480000D03*
D17*
X68580000Y-157480000D03*
D18*
X68580000Y-160020000D03*
X68580000Y-162560000D03*
D19*
X50800000Y-187960000D03*
D20*
X55800000Y-187960000D03*
D19*
X63500000Y-187960000D03*
D20*
X68500000Y-187960000D03*
D21*
X38140640Y-151130000D03*
X43139360Y-151130000D03*
X78740000Y-148630640D03*
X78740000Y-153629360D03*
D22*
X48260000Y-146050000D03*
D23*
X50800000Y-146050000D03*
X53340000Y-146050000D03*
D24*
X66040000Y-144780000D03*
D25*
X66040000Y-147320000D03*
X63500000Y-144780000D03*
X63500000Y-147320000D03*
M02*
