M48
INCH,TZ
T1C0.031
T2C0.032
T3C0.039
T4C0.043
T5C0.047
T6C0.051
T7C0.126
%
G90
G05
T1
X1.3Y-6.
X1.3Y-6.0984
X2.2Y-6.3016
X2.2Y-6.4
X2.5Y-6.2
X2.5Y-6.2984
X3.Y-5.7
X3.0984Y-5.7
T2
X1.5016Y-5.95
X1.6984Y-5.95
X3.1Y-5.8516
X3.1Y-6.0484
T3
X2.Y-6.2
X2.Y-6.3
X2.Y-6.4
X2.5Y-5.7
X2.5Y-5.8
X2.6Y-5.7
X2.6Y-5.8
X2.7Y-6.2
X2.7Y-6.3
X2.7Y-6.4
T4
X2.05Y-6.8
X2.05Y-7.1
X2.25Y-6.8
X2.25Y-7.1
X2.3Y-6.2
X2.3Y-6.5
X2.4Y-6.2
X2.4Y-6.5
X2.45Y-6.8
X2.45Y-7.1
X2.65Y-6.8
X2.65Y-7.1
T5
X1.3531Y-6.4
X1.4047Y-7.
X1.55Y-6.4
X1.7Y-7.
X1.9Y-5.75
X2.Y-5.75
X2.1Y-5.75
X3.0047Y-7.
X3.1531Y-6.4
X3.3Y-7.
X3.35Y-6.4
T6
X2.Y-7.4
X2.1969Y-7.4
X2.5Y-7.4
X2.6969Y-7.4
T7
X1.3386Y-5.748
X1.3386Y-7.4803
X3.3858Y-5.748
X3.3858Y-7.4803
T0
M30
