999
dxfrw 0.6.3
  0
SECTION
  2
HEADER
  9
$ACADVER
  1
AC1021
  9
$DWGCODEPAGE
  3
ANSI_1252
  9
$INSBASE
 10
0
 20
0
 30
0
  9
$EXTMIN
 10
0
 20
81
 30
0
  9
$EXTMAX
 10
520
 20
470
 30
0
  9
$LIMMIN
 10
0
 20
0
  9
$LIMMAX
 10
420
 20
297
  9
$ORTHOMODE
 70
    0
  9
$REGENMODE
 70
    1
  9
$FILLMODE
 70
    1
  9
$QTEXTMODE
 70
    0
  9
$MIRRTEXT
 70
    0
  9
$LTSCALE
 40
1
  9
$ATTMODE
 70
    0
  9
$TEXTSIZE
 40
2.5
  9
$TRACEWID
 40
15.68
  9
$TEXTSTYLE
  7
STANDARD
  9
$CLAYER
  8
0
  9
$CELTYPE
  6
BYLAYER
  9
$CECOLOR
 62
  256
  9
$CELTSCALE
 40
1
  9
$DISPSILH
 70
    0
  9
$DIMSCALE
 40
1
  9
$DIMASZ
 40
2.5
  9
$DIMEXO
 40
0.625
  9
$DIMDLI
 40
3.75
  9
$DIMRND
 40
0
  9
$DIMDLE
 40
0
  9
$DIMEXE
 40
1.25
  9
$DIMTP
 40
0
  9
$DIMTM
 40
0
  9
$DIMTXT
 40
2.5
  9
$DIMCEN
 40
2.5
  9
$DIMTSZ
 40
0
  9
$DIMTOL
 70
    0
  9
$DIMLIM
 70
    0
  9
$DIMTIH
 70
    0
  9
$DIMTOH
 70
    0
  9
$DIMSE1
 70
    0
  9
$DIMSE2
 70
    0
  9
$DIMTAD
 70
    1
  9
$DIMZIN
 70
    8
  9
$DIMBLK
  1

  9
$DIMASO
 70
    1
  9
$DIMSHO
 70
    1
  9
$DIMPOST
  1

  9
$DIMAPOST
  1

  9
$DIMALT
 70
    0
  9
$DIMALTD
 70
    3
  9
$DIMALTF
 40
0.03937
  9
$DIMLFAC
 40
1
  9
$DIMTOFL
 70
    1
  9
$DIMTVP
 40
0
  9
$DIMTIX
 70
    0
  9
$DIMSOXD
 70
    0
  9
$DIMSAH
 70
    0
  9
$DIMBLK1
  1

  9
$DIMBLK2
  1

  9
$DIMSTYLE
  2
STANDARD
  9
$DIMCLRD
 70
    0
  9
$DIMCLRE
 70
    0
  9
$DIMCLRT
 70
    0
  9
$DIMTFAC
 40
1
  9
$DIMGAP
 40
0.625
  9
$DIMJUST
 70
    0
  9
$DIMSD1
 70
    0
  9
$DIMSD2
 70
    0
  9
$DIMTOLJ
 70
    0
  9
$DIMTZIN
 70
    8
  9
$DIMALTZ
 70
    0
  9
$DIMALTTZ
 70
    0
  9
$DIMUPT
 70
    0
  9
$DIMDEC
 70
    2
  9
$DIMTDEC
 70
    2
  9
$DIMALTU
 70
    2
  9
$DIMALTTD
 70
    3
  9
$DIMTXSTY
  7
standard
  9
$DIMAUNIT
 70
    0
  9
$DIMADEC
 70
    0
  9
$DIMALTRND
 40
0
  9
$DIMAZIN
 70
    0
  9
$DIMDSEP
 70
   44
  9
$DIMATFIT
 70
    3
  9
$DIMFRAC
 70
    0
  9
$DIMLDRBLK
  1
STANDARD
  9
$DIMLUNIT
 70
    2
  9
$DIMLWD
 70
   -2
  9
$DIMLWE
 70
   -2
  9
$DIMTMOVE
 70
    0
  9
$DIMFXL
 40
1
  9
$DIMFXLON
 70
    0
  9
$DIMJOGANG
 40
0.7854
  9
$DIMTFILL
 70
    0
  9
$DIMTFILLCLR
 70
    0
  9
$DIMARCSYM
 70
    0
  9
$DIMLTYPE
  6

  9
$DIMLTEX1
  6

  9
$DIMLTEX2
  6

  9
$LUNITS
 70
    2
  9
$LUPREC
 70
    4
  9
$SKETCHINC
 40
1
  9
$FILLETRAD
 40
0
  9
$AUNITS
 70
    0
  9
$AUPREC
 70
    2
  9
$MENU
  1
.
  9
$ELEVATION
 40
0
  9
$PELEVATION
 40
0
  9
$THICKNESS
 40
0
  9
$LIMCHECK
 70
    0
  9
$CHAMFERA
 40
0
  9
$CHAMFERB
 40
0
  9
$CHAMFERC
 40
0
  9
$CHAMFERD
 40
0
  9
$SKPOLY
 70
    0
  9
$USRTIMER
 70
    1
  9
$ANGBASE
 50
0
  9
$ANGDIR
 70
    0
  9
$PDMODE
 70
   34
  9
$PDSIZE
 40
0
  9
$PLINEWID
 40
0
  9
$SPLFRAME
 70
    0
  9
$SPLINETYPE
 70
    2
  9
$SPLINESEGS
 70
    8
  9
$HANDSEED
  5
20000
  9
$SURFTAB1
 70
    6
  9
$SURFTAB2
 70
    6
  9
$SURFTYPE
 70
    6
  9
$SURFU
 70
    6
  9
$SURFV
 70
    6
  9
$UCSBASE
  2

  9
$UCSNAME
  2

  9
$UCSORG
 10
0
 20
0
 30
0
  9
$UCSXDIR
 10
1
 20
0
 30
0
  9
$UCSYDIR
 10
0
 20
1
 30
0
  9
$UCSORTHOREF
  2

  9
$UCSORTHOVIEW
 70
    0
  9
$UCSORGTOP
 10
0
 20
0
 30
0
  9
$UCSORGBOTTOM
 10
0
 20
0
 30
0
  9
$UCSORGLEFT
 10
0
 20
0
 30
0
  9
$UCSORGRIGHT
 10
0
 20
0
 30
0
  9
$UCSORGFRONT
 10
0
 20
0
 30
0
  9
$UCSORGBACK
 10
0
 20
0
 30
0
  9
$PUCSBASE
  2

  9
$PUCSNAME
  2

  9
$PUCSORG
 10
0
 20
0
 30
0
  9
$PUCSXDIR
 10
1
 20
0
 30
0
  9
$PUCSYDIR
 10
0
 20
1
 30
0
  9
$PUCSORTHOREF
  2

  9
$PUCSORTHOVIEW
 70
    0
  9
$PUCSORGTOP
 10
0
 20
0
 30
0
  9
$PUCSORGBOTTOM
 10
0
 20
0
 30
0
  9
$PUCSORGLEFT
 10
0
 20
0
 30
0
  9
$PUCSORGRIGHT
 10
0
 20
0
 30
0
  9
$PUCSORGFRONT
 10
0
 20
0
 30
0
  9
$PUCSORGBACK
 10
0
 20
0
 30
0
  9
$USERI1
 70
    0
  9
$USERI2
 70
    0
  9
$USERI3
 70
    0
  9
$USERI4
 70
    0
  9
$USERI5
 70
    0
  9
$USERR1
 40
0
  9
$USERR2
 40
0
  9
$USERR3
 40
0
  9
$USERR4
 40
0
  9
$USERR5
 40
0
  9
$WORLDVIEW
 70
    1
  9
$SHADEDGE
 70
    3
  9
$SHADEDIF
 70
   70
  9
$TILEMODE
 70
    1
  9
$MAXACTVP
 70
   64
  9
$PINSBASE
 10
24.84961439588689
 20
-26.02185089974293
 30
0
  9
$PLIMCHECK
 70
    0
  9
$PEXTMIN
 10
0
 20
0
 30
0
  9
$PEXTMAX
 10
0
 20
0
 30
0
  9
$GRIDMODE
 70
    1
  9
$SNAPSTYLE
 70
    0
  9
$GRIDUNIT
 10
0
 20
0
  9
$PLIMMIN
 10
0
 20
0
  9
$PLIMMAX
 10
297
 20
210
  9
$UNITMODE
 70
    0
  9
$VISRETAIN
 70
    1
  9
$PLINEGEN
 70
    0
  9
$PSLTSCALE
 70
    1
  9
$TREEDEPTH
 70
 3020
  9
$CMLSTYLE
  2
Standard
  9
$CMLJUST
 70
    0
  9
$CMLSCALE
 40
20
  9
$PROXYGRAPHICS
 70
    1
  9
$MEASUREMENT
 70
    1
  9
$CELWEIGHT
370
   -1
  9
$ENDCAPS
280
    0
  9
$JOINSTYLE
280
    0
  9
$LWDISPLAY
290
    0
  9
$INSUNITS
 70
    4
  9
$HYPERLINKBASE
  1

  9
$STYLESHEET
  1

  9
$XEDIT
290
    1
  9
$CEPSNTYPE
380
    0
  9
$PSTYLEMODE
290
    1
  9
$EXTNAMES
290
    1
  9
$PSVPSCALE
 40
0.4755790174537499
  9
$OLESTARTUP
290
    0
  9
$SORTENTS
280
  127
  9
$INDEXCTL
280
    0
  9
$HIDETEXT
280
    1
  9
$XCLIPFRAME
290
    0
  9
$HALOGAP
280
    0
  9
$OBSCOLOR
 70
  257
  9
$OBSLTYPE
280
    0
  9
$INTERSECTIONDISPLAY
280
    0
  9
$INTERSECTIONCOLOR
 70
  257
  9
$DIMASSOC
280
    1
  9
$PROJECTNAME
  1

  9
$CAMERADISPLAY
290
    0
  9
$LENSLENGTH
 40
50
  9
$CAMERAHEIGHT
 40
0
  9
$STEPSPERSEC
 40
2
  9
$STEPSIZE
 40
50
  9
$3DDWFPREC
 40
2
  9
$PSOLWIDTH
 40
5
  9
$PSOLHEIGHT
 40
80
  9
$LOFTANG1
 40
1.570796326794897
  9
$LOFTANG2
 40
1.570796326794897
  9
$LOFTMAG1
 40
0
  9
$LOFTMAG2
 40
0
  9
$LOFTPARAM
 70
    7
  9
$LOFTNORMALS
280
    1
  9
$LATITUDE
 40
1
  9
$LONGITUDE
 40
1
  9
$NORTHDIRECTION
 40
0
  9
$TIMEZONE
 70
-8000
  9
$LIGHTGLYPHDISPLAY
280
    1
  9
$TILEMODELIGHTSYNCH
280
    1
  9
$SOLIDHIST
280
    1
  9
$SHOWHIST
280
    1
  9
$DWFFRAME
280
    2
  9
$DGNFRAME
280
    0
  9
$REALWORLDSCALE
290
    1
  9
$INTERFERECOLOR
 62
    1
  9
$CSHADOW
280
    0
  9
$SHADOWPLANELOCATION
 40
0
  0
ENDSEC
  0
SECTION
  2
CLASSES
  0
ENDSEC
  0
SECTION
  2
TABLES
  0
TABLE
  2
VPORT
  5
8
330
0
100
AcDbSymbolTable
 70
    1
  0
VPORT
  5
31
330
2
100
AcDbSymbolTableRecord
100
AcDbViewportTableRecord
  2
*ACTIVE
 70
    0
 10
0
 20
0
 11
1
 21
1
 12
357.4466226207934
 22
279.2885178238587
 13
0
 23
0
 14
10
 24
10
 15
10
 25
10
 16
0
 26
0
 36
1
 17
0
 27
0
 37
0
 40
534.5694266657239
 41
1.600798403193613
 42
50
 43
0
 44
0
 50
0
 51
0
 71
    0
 72
  100
 73
    1
 74
    3
 75
    0
 76
    1
 77
    0
 78
    0
281
    0
 65
    1
110
0
120
0
130
0
111
1
121
0
131
0
112
0
122
1
132
0
 79
    0
146
0
348
10020
 60
    7
 61
    5
292
1
282
    1
141
0
142
0
 63
  250
421
3358443
  0
ENDTAB
  0
TABLE
  2
LTYPE
  5
5
330
0
100
AcDbSymbolTable
 70
    4
  0
LTYPE
  5
14
330
5
100
AcDbSymbolTableRecord
100
AcDbLinetypeTableRecord
  2
ByBlock
 70
    0
  3

 72
   65
 73
    0
 40
0
  0
LTYPE
  5
15
330
5
100
AcDbSymbolTableRecord
100
AcDbLinetypeTableRecord
  2
ByLayer
 70
    0
  3

 72
   65
 73
    0
 40
0
  0
LTYPE
  5
16
330
5
100
AcDbSymbolTableRecord
100
AcDbLinetypeTableRecord
  2
Continuous
 70
    0
  3
Solid line
 72
   65
 73
    0
 40
0
  0
LTYPE
  5
32
330
5
100
AcDbSymbolTableRecord
100
AcDbLinetypeTableRecord
  2
DOT
 70
    0
  3
Dot . . . . . . . . . . . . . . . . . . . . . .
 72
   65
 73
    2
 40
6.35
 49
0
 74
    0
 49
-6.35
 74
    0
  0
LTYPE
  5
33
330
5
100
AcDbSymbolTableRecord
100
AcDbLinetypeTableRecord
  2
DOTTINY
 70
    0
  3
Dot (.15x) .....................................
 72
   65
 73
    2
 40
0.9525
 49
0
 74
    0
 49
-0.9525
 74
    0
  0
LTYPE
  5
34
330
5
100
AcDbSymbolTableRecord
100
AcDbLinetypeTableRecord
  2
DOT2
 70
    0
  3
Dot (.5x) .....................................
 72
   65
 73
    2
 40
3.175
 49
0
 74
    0
 49
-3.175
 74
    0
  0
LTYPE
  5
35
330
5
100
AcDbSymbolTableRecord
100
AcDbLinetypeTableRecord
  2
DOTX2
 70
    0
  3
Dot (2x) .  .  .  .  .  .  .  .  .  .  .  .  .
 72
   65
 73
    2
 40
12.7
 49
0
 74
    0
 49
-12.7
 74
    0
  0
LTYPE
  5
36
330
5
100
AcDbSymbolTableRecord
100
AcDbLinetypeTableRecord
  2
DASHED
 70
    0
  3
Dashed _ _ _ _ _ _ _ _ _ _ _ _ _ _ _ _ _
 72
   65
 73
    2
 40
19.05
 49
12.7
 74
    0
 49
-6.35
 74
    0
  0
LTYPE
  5
37
330
5
100
AcDbSymbolTableRecord
100
AcDbLinetypeTableRecord
  2
DASHEDTINY
 70
    0
  3
Dashed (.15x) _ _ _ _ _ _ _ _ _ _ _ _ _ _ _ _ _
 72
   65
 73
    2
 40
2.8575
 49
1.905
 74
    0
 49
-0.9525
 74
    0
  0
LTYPE
  5
38
330
5
100
AcDbSymbolTableRecord
100
AcDbLinetypeTableRecord
  2
DASHED2
 70
    0
  3
Dashed (.5x) _ _ _ _ _ _ _ _ _ _ _ _ _ _ _ _ _
 72
   65
 73
    2
 40
9.524999999999999
 49
6.35
 74
    0
 49
-3.175
 74
    0
  0
LTYPE
  5
39
330
5
100
AcDbSymbolTableRecord
100
AcDbLinetypeTableRecord
  2
DASHEDX2
 70
    0
  3
Dashed (2x) ____  ____  ____  ____  ____  ___
 72
   65
 73
    2
 40
38.09999999999999
 49
25.4
 74
    0
 49
-12.7
 74
    0
  0
LTYPE
  5
3A
330
5
100
AcDbSymbolTableRecord
100
AcDbLinetypeTableRecord
  2
DASHDOT
 70
    0
  3
Dash dot __ . __ . __ . __ . __ . __ . __ . __
 72
   65
 73
    4
 40
25.4
 49
12.7
 74
    0
 49
-6.35
 74
    0
 49
0
 74
    0
 49
-6.35
 74
    0
  0
LTYPE
  5
3B
330
5
100
AcDbSymbolTableRecord
100
AcDbLinetypeTableRecord
  2
DASHDOTTINY
 70
    0
  3
Dash dot (.15x) _._._._._._._._._._._._._._._.
 72
   65
 73
    4
 40
3.81
 49
1.905
 74
    0
 49
-0.9525
 74
    0
 49
0
 74
    0
 49
-0.9525
 74
    0
  0
LTYPE
  5
3C
330
5
100
AcDbSymbolTableRecord
100
AcDbLinetypeTableRecord
  2
DASHDOT2
 70
    0
  3
Dash dot (.5x) _._._._._._._._._._._._._._._.
 72
   65
 73
    4
 40
12.7
 49
6.35
 74
    0
 49
-3.175
 74
    0
 49
0
 74
    0
 49
-3.175
 74
    0
  0
LTYPE
  5
3D
330
5
100
AcDbSymbolTableRecord
100
AcDbLinetypeTableRecord
  2
DASHDOTX2
 70
    0
  3
Dash dot (2x) ____  .  ____  .  ____  .  ___
 72
   65
 73
    4
 40
50.8
 49
25.4
 74
    0
 49
-12.7
 74
    0
 49
0
 74
    0
 49
-12.7
 74
    0
  0
LTYPE
  5
3E
330
5
100
AcDbSymbolTableRecord
100
AcDbLinetypeTableRecord
  2
DIVIDE
 70
    0
  3
Divide ____ . . ____ . . ____ . . ____ . . ____
 72
   65
 73
    6
 40
31.75
 49
12.7
 74
    0
 49
-6.35
 74
    0
 49
0
 74
    0
 49
-6.35
 74
    0
 49
0
 74
    0
 49
-6.35
 74
    0
  0
LTYPE
  5
3F
330
5
100
AcDbSymbolTableRecord
100
AcDbLinetypeTableRecord
  2
DIVIDETINY
 70
    0
  3
Divide (.15x) __..__..__..__..__..__..__..__.._
 72
   65
 73
    6
 40
4.7625
 49
1.905
 74
    0
 49
-0.9525
 74
    0
 49
0
 74
    0
 49
-0.9525
 74
    0
 49
0
 74
    0
 49
-0.9525
 74
    0
  0
LTYPE
  5
40
330
5
100
AcDbSymbolTableRecord
100
AcDbLinetypeTableRecord
  2
DIVIDE2
 70
    0
  3
Divide (.5x) __..__..__..__..__..__..__..__.._
 72
   65
 73
    6
 40
15.875
 49
6.35
 74
    0
 49
-3.175
 74
    0
 49
0
 74
    0
 49
-3.175
 74
    0
 49
0
 74
    0
 49
-3.175
 74
    0
  0
LTYPE
  5
41
330
5
100
AcDbSymbolTableRecord
100
AcDbLinetypeTableRecord
  2
DIVIDEX2
 70
    0
  3
Divide (2x) ________  .  .  ________  .  .  _
 72
   65
 73
    6
 40
63.5
 49
25.4
 74
    0
 49
-12.7
 74
    0
 49
0
 74
    0
 49
-12.7
 74
    0
 49
0
 74
    0
 49
-12.7
 74
    0
  0
LTYPE
  5
42
330
5
100
AcDbSymbolTableRecord
100
AcDbLinetypeTableRecord
  2
BORDER
 70
    0
  3
Border __ __ . __ __ . __ __ . __ __ . __ __ .
 72
   65
 73
    6
 40
44.45
 49
12.7
 74
    0
 49
-6.35
 74
    0
 49
12.7
 74
    0
 49
-6.35
 74
    0
 49
0
 74
    0
 49
-6.35
 74
    0
  0
LTYPE
  5
43
330
5
100
AcDbSymbolTableRecord
100
AcDbLinetypeTableRecord
  2
BORDERTINY
 70
    0
  3
Border (.15x) __.__.__.__.__.__.__.__.__.__.__.
 72
   65
 73
    6
 40
6.6675
 49
1.905
 74
    0
 49
-0.9525
 74
    0
 49
1.905
 74
    0
 49
-0.9525
 74
    0
 49
0
 74
    0
 49
-0.9525
 74
    0
  0
LTYPE
  5
44
330
5
100
AcDbSymbolTableRecord
100
AcDbLinetypeTableRecord
  2
BORDER2
 70
    0
  3
Border (.5x) __.__.__.__.__.__.__.__.__.__.__.
 72
   65
 73
    6
 40
22.225
 49
6.35
 74
    0
 49
-3.175
 74
    0
 49
6.35
 74
    0
 49
-3.175
 74
    0
 49
0
 74
    0
 49
-3.175
 74
    0
  0
LTYPE
  5
45
330
5
100
AcDbSymbolTableRecord
100
AcDbLinetypeTableRecord
  2
BORDERX2
 70
    0
  3
Border (2x) ____  ____  .  ____  ____  .  ___
 72
   65
 73
    6
 40
88.89999999999999
 49
25.4
 74
    0
 49
-12.7
 74
    0
 49
25.4
 74
    0
 49
-12.7
 74
    0
 49
0
 74
    0
 49
-12.7
 74
    0
  0
LTYPE
  5
46
330
5
100
AcDbSymbolTableRecord
100
AcDbLinetypeTableRecord
  2
CENTER
 70
    0
  3
Center ____ _ ____ _ ____ _ ____ _ ____ _ ____
 72
   65
 73
    4
 40
50.8
 49
31.75
 74
    0
 49
-6.35
 74
    0
 49
6.35
 74
    0
 49
-6.35
 74
    0
  0
LTYPE
  5
47
330
5
100
AcDbSymbolTableRecord
100
AcDbLinetypeTableRecord
  2
CENTERTINY
 70
    0
  3
Center (.15x) ___ _ ___ _ ___ _ ___ _ ___ _ ___
 72
   65
 73
    4
 40
7.62
 49
4.7625
 74
    0
 49
-0.9525
 74
    0
 49
0.9525
 74
    0
 49
-0.9525
 74
    0
  0
LTYPE
  5
48
330
5
100
AcDbSymbolTableRecord
100
AcDbLinetypeTableRecord
  2
CENTER2
 70
    0
  3
Center (.5x) ___ _ ___ _ ___ _ ___ _ ___ _ ___
 72
   65
 73
    4
 40
28.575
 49
19.05
 74
    0
 49
-3.175
 74
    0
 49
3.175
 74
    0
 49
-3.175
 74
    0
  0
LTYPE
  5
49
330
5
100
AcDbSymbolTableRecord
100
AcDbLinetypeTableRecord
  2
CENTERX2
 70
    0
  3
Center (2x) ________  __  ________  __  _____
 72
   65
 73
    4
 40
101.6
 49
63.5
 74
    0
 49
-12.7
 74
    0
 49
12.7
 74
    0
 49
-12.7
 74
    0
  0
ENDTAB
  0
TABLE
  2
LAYER
  5
2
330
0
100
AcDbSymbolTable
 70
    1
  0
LAYER
  5
10
330
2
100
AcDbSymbolTableRecord
100
AcDbLayerTableRecord
  2
0
 70
    0
 62
    7
  6
CONTINUOUS
370
   50
390
F
  0
LAYER
  5
4A
330
2
100
AcDbSymbolTableRecord
100
AcDbLayerTableRecord
  2
Legend
 70
    0
 62
    5
  6
CONTINUOUS
370
  200
390
F
  0
ENDTAB
  0
TABLE
  2
STYLE
  5
3
330
0
100
AcDbSymbolTable
 70
    3
  0
STYLE
  5
4B
330
2
100
AcDbSymbolTableRecord
100
AcDbTextStyleTableRecord
  2
unicode
 70
    0
 40
0
 41
1
 50
0
 71
    0
 42
1
  3
unicode
  4

  0
STYLE
  5
4C
330
2
100
AcDbSymbolTableRecord
100
AcDbTextStyleTableRecord
  2
Standard
 70
    0
 40
0
 41
1
 50
0
 71
    0
 42
1
  3
txt
  4

  0
ENDTAB
  0
TABLE
  2
VIEW
  5
6
330
0
100
AcDbSymbolTable
 70
    0
  0
ENDTAB
  0
TABLE
  2
UCS
  5
7
330
0
100
AcDbSymbolTable
 70
    0
  0
ENDTAB
  0
TABLE
  2
APPID
  5
9
330
0
100
AcDbSymbolTable
 70
    1
  0
APPID
  5
12
330
9
100
AcDbSymbolTableRecord
100
AcDbRegAppTableRecord
  2
ACAD
 70
    0
  0
APPID
  5
4D
330
9
100
AcDbSymbolTableRecord
100
AcDbRegAppTableRecord
  2
LibreCad
 70
    0
  0
ENDTAB
  0
TABLE
  2
DIMSTYLE
  5
A
330
0
100
AcDbSymbolTable
 70
    1
100
AcDbDimStyleTable
 71
    1
  0
DIMSTYLE
105
4E
330
A
100
AcDbSymbolTableRecord
100
AcDbDimStyleTableRecord
  2
Standard
 70
    0
 40
1
 41
2.5
 42
0.625
 43
0.38
 44
1.25
 45
0
 46
0
 47
0
 48
0
 49
1
140
2.5
141
0.09
142
0
143
25.4
144
1
145
0
146
1
147
0.625
148
0
 71
    0
 72
    0
 73
    0
 74
    1
 75
    0
 76
    0
 77
    0
 78
    8
 79
    0
170
    0
171
    2
172
    0
173
    0
174
    0
175
    0
176
    0
177
    0
178
    0
179
    0
271
    2
272
    4
273
    2
274
    2
275
    0
276
    0
277
    2
278
   44
279
    0
280
    0
281
    0
282
    0
283
    1
284
    0
285
    0
286
    0
288
    0
289
    3
340
standard
341

371
   -2
372
   -2
  0
ENDTAB
  0
TABLE
  2
BLOCK_RECORD
  5
1
330
0
100
AcDbSymbolTable
 70
    2
  0
BLOCK_RECORD
  5
1F
330
1
100
AcDbSymbolTableRecord
100
AcDbBlockTableRecord
  2
*Model_Space
 70
    0
280
    1
281
    0
  0
BLOCK_RECORD
  5
1E
330
1
100
AcDbSymbolTableRecord
100
AcDbBlockTableRecord
  2
*Paper_Space
 70
    0
280
    1
281
    0
  0
BLOCK_RECORD
  5
4F
330
1
100
AcDbSymbolTableRecord
100
AcDbBlockTableRecord
  2
marker
 70
    0
280
    1
281
    0
  0
BLOCK_RECORD
  5
52
330
1
100
AcDbSymbolTableRecord
100
AcDbBlockTableRecord
  2
Rotary encoder
 70
    0
280
    1
281
    0
  0
BLOCK_RECORD
  5
55
330
1
100
AcDbSymbolTableRecord
100
AcDbBlockTableRecord
  2
Rotary encoder-0
 70
    0
280
    1
281
    0
  0
BLOCK_RECORD
  5
58
330
1
100
AcDbSymbolTableRecord
100
AcDbBlockTableRecord
  2
Rotary encoder-1
 70
    0
280
    1
281
    0
  0
BLOCK_RECORD
  5
5B
330
1
100
AcDbSymbolTableRecord
100
AcDbBlockTableRecord
  2
Rotary encoder-2
 70
    0
280
    1
281
    0
  0
BLOCK_RECORD
  5
5E
330
1
100
AcDbSymbolTableRecord
100
AcDbBlockTableRecord
  2
Rotary encoder-3
 70
    0
280
    1
281
    0
  0
BLOCK_RECORD
  5
61
330
1
100
AcDbSymbolTableRecord
100
AcDbBlockTableRecord
  2
Rotary encoder-4
 70
    0
280
    1
281
    0
  0
BLOCK_RECORD
  5
64
330
1
100
AcDbSymbolTableRecord
100
AcDbBlockTableRecord
  2
Rotary encoder-5
 70
    0
280
    1
281
    0
  0
ENDTAB
  0
ENDSEC
  0
SECTION
  2
BLOCKS
  0
BLOCK
  5
20
330
1F
100
AcDbEntity
  8
0
100
AcDbBlockBegin
  2
*Model_Space
 70
    0
 10
0
 20
0
 30
0
  3
*Model_Space
  1

  0
ENDBLK
  5
21
330
1F
100
AcDbEntity
  8
0
100
AcDbBlockEnd
  0
BLOCK
  5
1C
330
1B
100
AcDbEntity
  8
0
100
AcDbBlockBegin
  2
*Paper_Space
 70
    0
 10
0
 20
0
 30
0
  3
*Paper_Space
  1

  0
ENDBLK
  5
1D
330
1F
100
AcDbEntity
  8
0
100
AcDbBlockEnd
  0
BLOCK
  5
50
330
4F
100
AcDbEntity
  8
0
100
AcDbBlockBegin
  2
marker
 70
    0
 10
0
 20
0
  3
marker
  1

  0
ARC
  5
67
100
AcDbEntity
  8
0
  6
ByLayer
 62
  256
370
   -1
100
AcDbCircle
 10
0
 20
3
 40
1
100
AcDbArc
 50
0
 51
180
  0
ARC
  5
68
100
AcDbEntity
  8
0
  6
ByLayer
 62
  256
370
   -1
100
AcDbCircle
 10
0
 20
-3
 40
1
100
AcDbArc
 50
180
 51
0
  0
LINE
  5
69
100
AcDbEntity
  8
0
  6
ByLayer
 62
  256
370
   -1
100
AcDbLine
 10
1
 20
-3
 11
1
 21
3
  0
LINE
  5
6A
100
AcDbEntity
  8
0
  6
ByLayer
 62
  256
370
   -1
100
AcDbLine
 10
-1
 20
3
 11
-1
 21
-3
  0
ENDBLK
  5
51
330
4F
100
AcDbEntity
  8
0
100
AcDbBlockEnd
  0
BLOCK
  5
53
330
52
100
AcDbEntity
  8
0
100
AcDbBlockBegin
  2
Rotary encoder
 70
    0
 10
0
 20
0
  3
Rotary encoder
  1

  0
HATCH
  5
6B
100
AcDbEntity
  8
0
  6
ByLayer
 62
  256
370
   -1
100
AcDbHatch
 10
0
 20
0
 30
0
210
0
220
0
230
1
  2
SOLID
 70
    1
 71
    0
 91
    1
 92
    0
 93
    4
 72
    2
 10
0
 20
6
 40
1
 50
180
 51
360
 73
    0
 72
    1
 10
1
 20
6
 11
1
 21
0
 72
    2
 10
0
 20
0
 40
1
 50
360
 51
180
 73
    0
 72
    1
 10
-1
 20
0
 11
-1
 21
6
 97
    0
 75
    0
 76
    1
 98
    0
  0
CIRCLE
  5
6C
100
AcDbEntity
  8
0
  6
ByLayer
 62
  256
370
   -1
100
AcDbCircle
 10
5.115907697472721e-013
 20
6.821210263296962e-013
 40
6.000000000000512
  0
CIRCLE
  5
6D
100
AcDbEntity
  8
0
  6
ByLayer
 62
  256
370
   -1
100
AcDbCircle
 10
0
 20
0
 40
8.499999999999972
  0
CIRCLE
  5
6E
100
AcDbEntity
  8
0
  6
ByLayer
 62
  256
370
   -1
100
AcDbCircle
 10
0
 20
0
 40
5
  0
SPLINE
  5
6F
100
AcDbEntity
  8
0
  6
ByLayer
 62
  256
370
   -1
100
AcDbSpline
210
0
220
0
230
0
 70
    8
 71
    2
 72
    6
 73
    3
 74
    0
 42
1e-007
 43
1e-007
 40
0
 40
0
 40
0
 40
1
 40
1
 40
1
 10
-3.422577887663607
 20
4.928078794295175
 30
0
 10
-2.010434814219664
 20
3.482175243545819
 30
0
 10
-2.556552483886605
 20
5.428078794308078
 30
0
  0
SPLINE
  5
70
100
AcDbEntity
  8
0
  6
ByLayer
 62
  256
370
   -1
100
AcDbSpline
210
0
220
0
230
0
 70
    8
 71
    2
 72
    6
 73
    3
 74
    0
 42
1e-007
 43
1e-007
 40
0
 40
0
 40
0
 40
1
 40
1
 40
1
 10
-5.428078794295146
 20
2.556552483879159
 30
0
 10
-3.482175243539768
 20
2.010434814230104
 30
0
 10
-4.928078794308021
 20
3.422577887671082
 30
0
  0
SPLINE
  5
71
100
AcDbEntity
  8
0
  6
ByLayer
 62
  256
370
   -1
100
AcDbSpline
210
0
220
0
230
0
 70
    8
 71
    2
 72
    6
 73
    3
 74
    0
 42
1e-007
 43
1e-007
 40
0
 40
0
 40
0
 40
1
 40
1
 40
1
 10
-5.979130371542794
 20
-0.5
 30
0
 10
-4.020869628449758
 20
6.015576925477716e-012
 30
0
 10
-5.979130371557687
 20
0.5000000000000568
 30
0
  0
SPLINE
  5
72
100
AcDbEntity
  8
0
  6
ByLayer
 62
  256
370
   -1
100
AcDbSpline
210
0
220
0
230
0
 70
    8
 71
    2
 72
    6
 73
    3
 74
    0
 42
1e-007
 43
1e-007
 40
0
 40
0
 40
0
 40
1
 40
1
 40
1
 10
-4.928078794295146
 20
-3.422577887663635
 30
0
 10
-3.482175243545784
 20
-2.010434814219659
 30
0
 10
-5.42807879430805
 20
-2.556552483886605
 30
0
  0
SPLINE
  5
73
100
AcDbEntity
  8
0
  6
ByLayer
 62
  256
370
   -1
100
AcDbSpline
210
0
220
0
230
0
 70
    8
 71
    2
 72
    6
 73
    3
 74
    0
 42
1e-007
 43
1e-007
 40
0
 40
0
 40
0
 40
1
 40
1
 40
1
 10
-2.556552483879187
 20
-5.428078794295175
 30
0
 10
-2.010434814230083
 20
-3.482175243539814
 30
0
 10
-3.422577887671082
 20
-4.928078794308021
 30
0
  0
SPLINE
  5
74
100
AcDbEntity
  8
0
  6
ByLayer
 62
  256
370
   -1
100
AcDbSpline
210
0
220
0
230
0
 70
    8
 71
    2
 72
    6
 73
    3
 74
    0
 42
1e-007
 43
1e-007
 40
0
 40
0
 40
0
 40
1
 40
1
 40
1
 10
0.5
 20
-5.979130371542794
 30
0
 10
-6.024014620464867e-012
 20
-4.020869628449757
 30
0
 10
-0.5000000000000284
 20
-5.979130371557687
 30
0
  0
SPLINE
  5
75
100
AcDbEntity
  8
0
  6
ByLayer
 62
  256
370
   -1
100
AcDbSpline
210
0
220
0
230
0
 70
    8
 71
    2
 72
    6
 73
    3
 74
    0
 42
1e-007
 43
1e-007
 40
0
 40
0
 40
0
 40
1
 40
1
 40
1
 10
3.422577887663607
 20
-4.928078794295175
 30
0
 10
2.010434814219664
 20
-3.482175243545819
 30
0
 10
2.556552483886605
 20
-5.428078794308078
 30
0
  0
SPLINE
  5
76
100
AcDbEntity
  8
0
  6
ByLayer
 62
  256
370
   -1
100
AcDbSpline
210
0
220
0
230
0
 70
    8
 71
    2
 72
    6
 73
    3
 74
    0
 42
1e-007
 43
1e-007
 40
0
 40
0
 40
0
 40
1
 40
1
 40
1
 10
5.428078794295146
 20
-2.556552483879159
 30
0
 10
3.482175243539768
 20
-2.010434814230104
 30
0
 10
4.928078794308021
 20
-3.422577887671082
 30
0
  0
SPLINE
  5
77
100
AcDbEntity
  8
0
  6
ByLayer
 62
  256
370
   -1
100
AcDbSpline
210
0
220
0
230
0
 70
    8
 71
    2
 72
    6
 73
    3
 74
    0
 42
1e-007
 43
1e-007
 40
0
 40
0
 40
0
 40
1
 40
1
 40
1
 10
5.979130371542794
 20
0.5
 30
0
 10
4.020869628449758
 20
-6.015576925477716e-012
 30
0
 10
5.979130371557687
 20
-0.5000000000000568
 30
0
  0
SPLINE
  5
78
100
AcDbEntity
  8
0
  6
ByLayer
 62
  256
370
   -1
100
AcDbSpline
210
0
220
0
230
0
 70
    8
 71
    2
 72
    6
 73
    3
 74
    0
 42
1e-007
 43
1e-007
 40
0
 40
0
 40
0
 40
1
 40
1
 40
1
 10
4.928078794295146
 20
3.422577887663635
 30
0
 10
3.482175243545784
 20
2.010434814219659
 30
0
 10
5.42807879430805
 20
2.556552483886605
 30
0
  0
SPLINE
  5
79
100
AcDbEntity
  8
0
  6
ByLayer
 62
  256
370
   -1
100
AcDbSpline
210
0
220
0
230
0
 70
    8
 71
    2
 72
    6
 73
    3
 74
    0
 42
1e-007
 43
1e-007
 40
0
 40
0
 40
0
 40
1
 40
1
 40
1
 10
2.556552483879187
 20
5.428078794295175
 30
0
 10
2.010434814230083
 20
3.482175243539814
 30
0
 10
3.422577887671082
 20
4.928078794308021
 30
0
  0
INSERT
  5
7A
100
AcDbEntity
  8
0
  6
ByLayer
 62
  256
370
   -1
100
AcDbBlockReference
  2
marker
 10
0
 20
3
 30
0
 41
1
 42
1
 43
0
 50
0
 70
    1
 71
    1
 44
0
 45
0
  0
ENDBLK
  5
54
330
52
100
AcDbEntity
  8
0
100
AcDbBlockEnd
  0
BLOCK
  5
56
330
55
100
AcDbEntity
  8
0
100
AcDbBlockBegin
  2
Rotary encoder-0
 70
    0
 10
0
 20
0
  3
Rotary encoder-0
  1

  0
HATCH
  5
7B
100
AcDbEntity
  8
0
  6
ByLayer
 62
  256
370
   -1
100
AcDbHatch
 10
0
 20
0
 30
0
210
0
220
0
230
1
  2
SOLID
 70
    1
 71
    0
 91
    1
 92
    0
 93
    4
 72
    2
 10
0
 20
6
 40
1
 50
180
 51
360
 73
    0
 72
    1
 10
1
 20
6
 11
1
 21
0
 72
    2
 10
0
 20
0
 40
1
 50
360
 51
180
 73
    0
 72
    1
 10
-1
 20
0
 11
-1
 21
6
 97
    0
 75
    0
 76
    1
 98
    0
  0
CIRCLE
  5
7C
100
AcDbEntity
  8
0
  6
ByLayer
 62
  256
370
   -1
100
AcDbCircle
 10
5.115907697472721e-013
 20
6.821210263296962e-013
 40
6.000000000000512
  0
CIRCLE
  5
7D
100
AcDbEntity
  8
0
  6
ByLayer
 62
  256
370
   -1
100
AcDbCircle
 10
0
 20
0
 40
8.499999999999972
  0
CIRCLE
  5
7E
100
AcDbEntity
  8
0
  6
ByLayer
 62
  256
370
   -1
100
AcDbCircle
 10
0
 20
0
 40
5
  0
SPLINE
  5
7F
100
AcDbEntity
  8
0
  6
ByLayer
 62
  256
370
   -1
100
AcDbSpline
210
0
220
0
230
0
 70
    8
 71
    2
 72
    6
 73
    3
 74
    0
 42
1e-007
 43
1e-007
 40
0
 40
0
 40
0
 40
1
 40
1
 40
1
 10
-3.422577887663607
 20
4.928078794295175
 30
0
 10
-2.010434814219664
 20
3.482175243545819
 30
0
 10
-2.556552483886605
 20
5.428078794308078
 30
0
  0
SPLINE
  5
80
100
AcDbEntity
  8
0
  6
ByLayer
 62
  256
370
   -1
100
AcDbSpline
210
0
220
0
230
0
 70
    8
 71
    2
 72
    6
 73
    3
 74
    0
 42
1e-007
 43
1e-007
 40
0
 40
0
 40
0
 40
1
 40
1
 40
1
 10
-5.428078794295146
 20
2.556552483879159
 30
0
 10
-3.482175243539768
 20
2.010434814230104
 30
0
 10
-4.928078794308021
 20
3.422577887671082
 30
0
  0
SPLINE
  5
81
100
AcDbEntity
  8
0
  6
ByLayer
 62
  256
370
   -1
100
AcDbSpline
210
0
220
0
230
0
 70
    8
 71
    2
 72
    6
 73
    3
 74
    0
 42
1e-007
 43
1e-007
 40
0
 40
0
 40
0
 40
1
 40
1
 40
1
 10
-5.979130371542794
 20
-0.5
 30
0
 10
-4.020869628449758
 20
6.015576925477716e-012
 30
0
 10
-5.979130371557687
 20
0.5000000000000568
 30
0
  0
SPLINE
  5
82
100
AcDbEntity
  8
0
  6
ByLayer
 62
  256
370
   -1
100
AcDbSpline
210
0
220
0
230
0
 70
    8
 71
    2
 72
    6
 73
    3
 74
    0
 42
1e-007
 43
1e-007
 40
0
 40
0
 40
0
 40
1
 40
1
 40
1
 10
-4.928078794295146
 20
-3.422577887663635
 30
0
 10
-3.482175243545784
 20
-2.010434814219659
 30
0
 10
-5.42807879430805
 20
-2.556552483886605
 30
0
  0
SPLINE
  5
83
100
AcDbEntity
  8
0
  6
ByLayer
 62
  256
370
   -1
100
AcDbSpline
210
0
220
0
230
0
 70
    8
 71
    2
 72
    6
 73
    3
 74
    0
 42
1e-007
 43
1e-007
 40
0
 40
0
 40
0
 40
1
 40
1
 40
1
 10
-2.556552483879187
 20
-5.428078794295175
 30
0
 10
-2.010434814230083
 20
-3.482175243539814
 30
0
 10
-3.422577887671082
 20
-4.928078794308021
 30
0
  0
SPLINE
  5
84
100
AcDbEntity
  8
0
  6
ByLayer
 62
  256
370
   -1
100
AcDbSpline
210
0
220
0
230
0
 70
    8
 71
    2
 72
    6
 73
    3
 74
    0
 42
1e-007
 43
1e-007
 40
0
 40
0
 40
0
 40
1
 40
1
 40
1
 10
0.5
 20
-5.979130371542794
 30
0
 10
-6.024014620464867e-012
 20
-4.020869628449757
 30
0
 10
-0.5000000000000284
 20
-5.979130371557687
 30
0
  0
SPLINE
  5
85
100
AcDbEntity
  8
0
  6
ByLayer
 62
  256
370
   -1
100
AcDbSpline
210
0
220
0
230
0
 70
    8
 71
    2
 72
    6
 73
    3
 74
    0
 42
1e-007
 43
1e-007
 40
0
 40
0
 40
0
 40
1
 40
1
 40
1
 10
3.422577887663607
 20
-4.928078794295175
 30
0
 10
2.010434814219664
 20
-3.482175243545819
 30
0
 10
2.556552483886605
 20
-5.428078794308078
 30
0
  0
SPLINE
  5
86
100
AcDbEntity
  8
0
  6
ByLayer
 62
  256
370
   -1
100
AcDbSpline
210
0
220
0
230
0
 70
    8
 71
    2
 72
    6
 73
    3
 74
    0
 42
1e-007
 43
1e-007
 40
0
 40
0
 40
0
 40
1
 40
1
 40
1
 10
5.428078794295146
 20
-2.556552483879159
 30
0
 10
3.482175243539768
 20
-2.010434814230104
 30
0
 10
4.928078794308021
 20
-3.422577887671082
 30
0
  0
SPLINE
  5
87
100
AcDbEntity
  8
0
  6
ByLayer
 62
  256
370
   -1
100
AcDbSpline
210
0
220
0
230
0
 70
    8
 71
    2
 72
    6
 73
    3
 74
    0
 42
1e-007
 43
1e-007
 40
0
 40
0
 40
0
 40
1
 40
1
 40
1
 10
5.979130371542794
 20
0.5
 30
0
 10
4.020869628449758
 20
-6.015576925477716e-012
 30
0
 10
5.979130371557687
 20
-0.5000000000000568
 30
0
  0
SPLINE
  5
88
100
AcDbEntity
  8
0
  6
ByLayer
 62
  256
370
   -1
100
AcDbSpline
210
0
220
0
230
0
 70
    8
 71
    2
 72
    6
 73
    3
 74
    0
 42
1e-007
 43
1e-007
 40
0
 40
0
 40
0
 40
1
 40
1
 40
1
 10
4.928078794295146
 20
3.422577887663635
 30
0
 10
3.482175243545784
 20
2.010434814219659
 30
0
 10
5.42807879430805
 20
2.556552483886605
 30
0
  0
SPLINE
  5
89
100
AcDbEntity
  8
0
  6
ByLayer
 62
  256
370
   -1
100
AcDbSpline
210
0
220
0
230
0
 70
    8
 71
    2
 72
    6
 73
    3
 74
    0
 42
1e-007
 43
1e-007
 40
0
 40
0
 40
0
 40
1
 40
1
 40
1
 10
2.556552483879187
 20
5.428078794295175
 30
0
 10
2.010434814230083
 20
3.482175243539814
 30
0
 10
3.422577887671082
 20
4.928078794308021
 30
0
  0
INSERT
  5
8A
100
AcDbEntity
  8
0
  6
ByLayer
 62
  256
370
   -1
100
AcDbBlockReference
  2
marker
 10
0
 20
3
 30
0
 41
1
 42
1
 43
0
 50
0
 70
    1
 71
    1
 44
0
 45
0
  0
ENDBLK
  5
57
330
55
100
AcDbEntity
  8
0
100
AcDbBlockEnd
  0
BLOCK
  5
59
330
58
100
AcDbEntity
  8
0
100
AcDbBlockBegin
  2
Rotary encoder-1
 70
    0
 10
0
 20
0
  3
Rotary encoder-1
  1

  0
HATCH
  5
8B
100
AcDbEntity
  8
0
  6
ByLayer
 62
  256
370
   -1
100
AcDbHatch
 10
0
 20
0
 30
0
210
0
220
0
230
1
  2
SOLID
 70
    1
 71
    0
 91
    1
 92
    0
 93
    4
 72
    2
 10
0
 20
6
 40
1
 50
180
 51
360
 73
    0
 72
    1
 10
1
 20
6
 11
1
 21
0
 72
    2
 10
0
 20
0
 40
1
 50
360
 51
180
 73
    0
 72
    1
 10
-1
 20
0
 11
-1
 21
6
 97
    0
 75
    0
 76
    1
 98
    0
  0
CIRCLE
  5
8C
100
AcDbEntity
  8
0
  6
ByLayer
 62
  256
370
   -1
100
AcDbCircle
 10
5.115907697472721e-013
 20
6.821210263296962e-013
 40
6.000000000000512
  0
CIRCLE
  5
8D
100
AcDbEntity
  8
0
  6
ByLayer
 62
  256
370
   -1
100
AcDbCircle
 10
0
 20
0
 40
8.499999999999972
  0
CIRCLE
  5
8E
100
AcDbEntity
  8
0
  6
ByLayer
 62
  256
370
   -1
100
AcDbCircle
 10
0
 20
0
 40
5
  0
SPLINE
  5
8F
100
AcDbEntity
  8
0
  6
ByLayer
 62
  256
370
   -1
100
AcDbSpline
210
0
220
0
230
0
 70
    8
 71
    2
 72
    6
 73
    3
 74
    0
 42
1e-007
 43
1e-007
 40
0
 40
0
 40
0
 40
1
 40
1
 40
1
 10
-3.422577887663607
 20
4.928078794295175
 30
0
 10
-2.010434814219664
 20
3.482175243545819
 30
0
 10
-2.556552483886605
 20
5.428078794308078
 30
0
  0
SPLINE
  5
90
100
AcDbEntity
  8
0
  6
ByLayer
 62
  256
370
   -1
100
AcDbSpline
210
0
220
0
230
0
 70
    8
 71
    2
 72
    6
 73
    3
 74
    0
 42
1e-007
 43
1e-007
 40
0
 40
0
 40
0
 40
1
 40
1
 40
1
 10
-5.428078794295146
 20
2.556552483879159
 30
0
 10
-3.482175243539768
 20
2.010434814230104
 30
0
 10
-4.928078794308021
 20
3.422577887671082
 30
0
  0
SPLINE
  5
91
100
AcDbEntity
  8
0
  6
ByLayer
 62
  256
370
   -1
100
AcDbSpline
210
0
220
0
230
0
 70
    8
 71
    2
 72
    6
 73
    3
 74
    0
 42
1e-007
 43
1e-007
 40
0
 40
0
 40
0
 40
1
 40
1
 40
1
 10
-5.979130371542794
 20
-0.5
 30
0
 10
-4.020869628449758
 20
6.015576925477716e-012
 30
0
 10
-5.979130371557687
 20
0.5000000000000568
 30
0
  0
SPLINE
  5
92
100
AcDbEntity
  8
0
  6
ByLayer
 62
  256
370
   -1
100
AcDbSpline
210
0
220
0
230
0
 70
    8
 71
    2
 72
    6
 73
    3
 74
    0
 42
1e-007
 43
1e-007
 40
0
 40
0
 40
0
 40
1
 40
1
 40
1
 10
-4.928078794295146
 20
-3.422577887663635
 30
0
 10
-3.482175243545784
 20
-2.010434814219659
 30
0
 10
-5.42807879430805
 20
-2.556552483886605
 30
0
  0
SPLINE
  5
93
100
AcDbEntity
  8
0
  6
ByLayer
 62
  256
370
   -1
100
AcDbSpline
210
0
220
0
230
0
 70
    8
 71
    2
 72
    6
 73
    3
 74
    0
 42
1e-007
 43
1e-007
 40
0
 40
0
 40
0
 40
1
 40
1
 40
1
 10
-2.556552483879187
 20
-5.428078794295175
 30
0
 10
-2.010434814230083
 20
-3.482175243539814
 30
0
 10
-3.422577887671082
 20
-4.928078794308021
 30
0
  0
SPLINE
  5
94
100
AcDbEntity
  8
0
  6
ByLayer
 62
  256
370
   -1
100
AcDbSpline
210
0
220
0
230
0
 70
    8
 71
    2
 72
    6
 73
    3
 74
    0
 42
1e-007
 43
1e-007
 40
0
 40
0
 40
0
 40
1
 40
1
 40
1
 10
0.5
 20
-5.979130371542794
 30
0
 10
-6.024014620464867e-012
 20
-4.020869628449757
 30
0
 10
-0.5000000000000284
 20
-5.979130371557687
 30
0
  0
SPLINE
  5
95
100
AcDbEntity
  8
0
  6
ByLayer
 62
  256
370
   -1
100
AcDbSpline
210
0
220
0
230
0
 70
    8
 71
    2
 72
    6
 73
    3
 74
    0
 42
1e-007
 43
1e-007
 40
0
 40
0
 40
0
 40
1
 40
1
 40
1
 10
3.422577887663607
 20
-4.928078794295175
 30
0
 10
2.010434814219664
 20
-3.482175243545819
 30
0
 10
2.556552483886605
 20
-5.428078794308078
 30
0
  0
SPLINE
  5
96
100
AcDbEntity
  8
0
  6
ByLayer
 62
  256
370
   -1
100
AcDbSpline
210
0
220
0
230
0
 70
    8
 71
    2
 72
    6
 73
    3
 74
    0
 42
1e-007
 43
1e-007
 40
0
 40
0
 40
0
 40
1
 40
1
 40
1
 10
5.428078794295146
 20
-2.556552483879159
 30
0
 10
3.482175243539768
 20
-2.010434814230104
 30
0
 10
4.928078794308021
 20
-3.422577887671082
 30
0
  0
SPLINE
  5
97
100
AcDbEntity
  8
0
  6
ByLayer
 62
  256
370
   -1
100
AcDbSpline
210
0
220
0
230
0
 70
    8
 71
    2
 72
    6
 73
    3
 74
    0
 42
1e-007
 43
1e-007
 40
0
 40
0
 40
0
 40
1
 40
1
 40
1
 10
5.979130371542794
 20
0.5
 30
0
 10
4.020869628449758
 20
-6.015576925477716e-012
 30
0
 10
5.979130371557687
 20
-0.5000000000000568
 30
0
  0
SPLINE
  5
98
100
AcDbEntity
  8
0
  6
ByLayer
 62
  256
370
   -1
100
AcDbSpline
210
0
220
0
230
0
 70
    8
 71
    2
 72
    6
 73
    3
 74
    0
 42
1e-007
 43
1e-007
 40
0
 40
0
 40
0
 40
1
 40
1
 40
1
 10
4.928078794295146
 20
3.422577887663635
 30
0
 10
3.482175243545784
 20
2.010434814219659
 30
0
 10
5.42807879430805
 20
2.556552483886605
 30
0
  0
SPLINE
  5
99
100
AcDbEntity
  8
0
  6
ByLayer
 62
  256
370
   -1
100
AcDbSpline
210
0
220
0
230
0
 70
    8
 71
    2
 72
    6
 73
    3
 74
    0
 42
1e-007
 43
1e-007
 40
0
 40
0
 40
0
 40
1
 40
1
 40
1
 10
2.556552483879187
 20
5.428078794295175
 30
0
 10
2.010434814230083
 20
3.482175243539814
 30
0
 10
3.422577887671082
 20
4.928078794308021
 30
0
  0
INSERT
  5
9A
100
AcDbEntity
  8
0
  6
ByLayer
 62
  256
370
   -1
100
AcDbBlockReference
  2
marker
 10
0
 20
3
 30
0
 41
1
 42
1
 43
0
 50
0
 70
    1
 71
    1
 44
0
 45
0
  0
ENDBLK
  5
5A
330
58
100
AcDbEntity
  8
0
100
AcDbBlockEnd
  0
BLOCK
  5
5C
330
5B
100
AcDbEntity
  8
0
100
AcDbBlockBegin
  2
Rotary encoder-2
 70
    0
 10
0
 20
0
  3
Rotary encoder-2
  1

  0
HATCH
  5
9B
100
AcDbEntity
  8
0
  6
ByLayer
 62
  256
370
   -1
100
AcDbHatch
 10
0
 20
0
 30
0
210
0
220
0
230
1
  2
SOLID
 70
    1
 71
    0
 91
    1
 92
    0
 93
    4
 72
    2
 10
0
 20
6
 40
1
 50
180
 51
360
 73
    0
 72
    1
 10
1
 20
6
 11
1
 21
0
 72
    2
 10
0
 20
0
 40
1
 50
360
 51
180
 73
    0
 72
    1
 10
-1
 20
0
 11
-1
 21
6
 97
    0
 75
    0
 76
    1
 98
    0
  0
CIRCLE
  5
9C
100
AcDbEntity
  8
0
  6
ByLayer
 62
  256
370
   -1
100
AcDbCircle
 10
5.115907697472721e-013
 20
6.821210263296962e-013
 40
6.000000000000512
  0
CIRCLE
  5
9D
100
AcDbEntity
  8
0
  6
ByLayer
 62
  256
370
   -1
100
AcDbCircle
 10
0
 20
0
 40
8.499999999999972
  0
CIRCLE
  5
9E
100
AcDbEntity
  8
0
  6
ByLayer
 62
  256
370
   -1
100
AcDbCircle
 10
0
 20
0
 40
5
  0
SPLINE
  5
9F
100
AcDbEntity
  8
0
  6
ByLayer
 62
  256
370
   -1
100
AcDbSpline
210
0
220
0
230
0
 70
    8
 71
    2
 72
    6
 73
    3
 74
    0
 42
1e-007
 43
1e-007
 40
0
 40
0
 40
0
 40
1
 40
1
 40
1
 10
-3.422577887663607
 20
4.928078794295175
 30
0
 10
-2.010434814219664
 20
3.482175243545819
 30
0
 10
-2.556552483886605
 20
5.428078794308078
 30
0
  0
SPLINE
  5
A0
100
AcDbEntity
  8
0
  6
ByLayer
 62
  256
370
   -1
100
AcDbSpline
210
0
220
0
230
0
 70
    8
 71
    2
 72
    6
 73
    3
 74
    0
 42
1e-007
 43
1e-007
 40
0
 40
0
 40
0
 40
1
 40
1
 40
1
 10
-5.428078794295146
 20
2.556552483879159
 30
0
 10
-3.482175243539768
 20
2.010434814230104
 30
0
 10
-4.928078794308021
 20
3.422577887671082
 30
0
  0
SPLINE
  5
A1
100
AcDbEntity
  8
0
  6
ByLayer
 62
  256
370
   -1
100
AcDbSpline
210
0
220
0
230
0
 70
    8
 71
    2
 72
    6
 73
    3
 74
    0
 42
1e-007
 43
1e-007
 40
0
 40
0
 40
0
 40
1
 40
1
 40
1
 10
-5.979130371542794
 20
-0.5
 30
0
 10
-4.020869628449758
 20
6.015576925477716e-012
 30
0
 10
-5.979130371557687
 20
0.5000000000000568
 30
0
  0
SPLINE
  5
A2
100
AcDbEntity
  8
0
  6
ByLayer
 62
  256
370
   -1
100
AcDbSpline
210
0
220
0
230
0
 70
    8
 71
    2
 72
    6
 73
    3
 74
    0
 42
1e-007
 43
1e-007
 40
0
 40
0
 40
0
 40
1
 40
1
 40
1
 10
-4.928078794295146
 20
-3.422577887663635
 30
0
 10
-3.482175243545784
 20
-2.010434814219659
 30
0
 10
-5.42807879430805
 20
-2.556552483886605
 30
0
  0
SPLINE
  5
A3
100
AcDbEntity
  8
0
  6
ByLayer
 62
  256
370
   -1
100
AcDbSpline
210
0
220
0
230
0
 70
    8
 71
    2
 72
    6
 73
    3
 74
    0
 42
1e-007
 43
1e-007
 40
0
 40
0
 40
0
 40
1
 40
1
 40
1
 10
-2.556552483879187
 20
-5.428078794295175
 30
0
 10
-2.010434814230083
 20
-3.482175243539814
 30
0
 10
-3.422577887671082
 20
-4.928078794308021
 30
0
  0
SPLINE
  5
A4
100
AcDbEntity
  8
0
  6
ByLayer
 62
  256
370
   -1
100
AcDbSpline
210
0
220
0
230
0
 70
    8
 71
    2
 72
    6
 73
    3
 74
    0
 42
1e-007
 43
1e-007
 40
0
 40
0
 40
0
 40
1
 40
1
 40
1
 10
0.5
 20
-5.979130371542794
 30
0
 10
-6.024014620464867e-012
 20
-4.020869628449757
 30
0
 10
-0.5000000000000284
 20
-5.979130371557687
 30
0
  0
SPLINE
  5
A5
100
AcDbEntity
  8
0
  6
ByLayer
 62
  256
370
   -1
100
AcDbSpline
210
0
220
0
230
0
 70
    8
 71
    2
 72
    6
 73
    3
 74
    0
 42
1e-007
 43
1e-007
 40
0
 40
0
 40
0
 40
1
 40
1
 40
1
 10
3.422577887663607
 20
-4.928078794295175
 30
0
 10
2.010434814219664
 20
-3.482175243545819
 30
0
 10
2.556552483886605
 20
-5.428078794308078
 30
0
  0
SPLINE
  5
A6
100
AcDbEntity
  8
0
  6
ByLayer
 62
  256
370
   -1
100
AcDbSpline
210
0
220
0
230
0
 70
    8
 71
    2
 72
    6
 73
    3
 74
    0
 42
1e-007
 43
1e-007
 40
0
 40
0
 40
0
 40
1
 40
1
 40
1
 10
5.428078794295146
 20
-2.556552483879159
 30
0
 10
3.482175243539768
 20
-2.010434814230104
 30
0
 10
4.928078794308021
 20
-3.422577887671082
 30
0
  0
SPLINE
  5
A7
100
AcDbEntity
  8
0
  6
ByLayer
 62
  256
370
   -1
100
AcDbSpline
210
0
220
0
230
0
 70
    8
 71
    2
 72
    6
 73
    3
 74
    0
 42
1e-007
 43
1e-007
 40
0
 40
0
 40
0
 40
1
 40
1
 40
1
 10
5.979130371542794
 20
0.5
 30
0
 10
4.020869628449758
 20
-6.015576925477716e-012
 30
0
 10
5.979130371557687
 20
-0.5000000000000568
 30
0
  0
SPLINE
  5
A8
100
AcDbEntity
  8
0
  6
ByLayer
 62
  256
370
   -1
100
AcDbSpline
210
0
220
0
230
0
 70
    8
 71
    2
 72
    6
 73
    3
 74
    0
 42
1e-007
 43
1e-007
 40
0
 40
0
 40
0
 40
1
 40
1
 40
1
 10
4.928078794295146
 20
3.422577887663635
 30
0
 10
3.482175243545784
 20
2.010434814219659
 30
0
 10
5.42807879430805
 20
2.556552483886605
 30
0
  0
SPLINE
  5
A9
100
AcDbEntity
  8
0
  6
ByLayer
 62
  256
370
   -1
100
AcDbSpline
210
0
220
0
230
0
 70
    8
 71
    2
 72
    6
 73
    3
 74
    0
 42
1e-007
 43
1e-007
 40
0
 40
0
 40
0
 40
1
 40
1
 40
1
 10
2.556552483879187
 20
5.428078794295175
 30
0
 10
2.010434814230083
 20
3.482175243539814
 30
0
 10
3.422577887671082
 20
4.928078794308021
 30
0
  0
INSERT
  5
AA
100
AcDbEntity
  8
0
  6
ByLayer
 62
  256
370
   -1
100
AcDbBlockReference
  2
marker
 10
0
 20
3
 30
0
 41
1
 42
1
 43
0
 50
0
 70
    1
 71
    1
 44
0
 45
0
  0
ENDBLK
  5
5D
330
5B
100
AcDbEntity
  8
0
100
AcDbBlockEnd
  0
BLOCK
  5
5F
330
5E
100
AcDbEntity
  8
0
100
AcDbBlockBegin
  2
Rotary encoder-3
 70
    0
 10
0
 20
0
  3
Rotary encoder-3
  1

  0
HATCH
  5
AB
100
AcDbEntity
  8
0
  6
ByLayer
 62
  256
370
   -1
100
AcDbHatch
 10
0
 20
0
 30
0
210
0
220
0
230
1
  2
SOLID
 70
    1
 71
    0
 91
    1
 92
    0
 93
    4
 72
    2
 10
0
 20
6
 40
1
 50
180
 51
360
 73
    0
 72
    1
 10
1
 20
6
 11
1
 21
0
 72
    2
 10
0
 20
0
 40
1
 50
360
 51
180
 73
    0
 72
    1
 10
-1
 20
0
 11
-1
 21
6
 97
    0
 75
    0
 76
    1
 98
    0
  0
CIRCLE
  5
AC
100
AcDbEntity
  8
0
  6
ByLayer
 62
  256
370
   -1
100
AcDbCircle
 10
5.115907697472721e-013
 20
6.821210263296962e-013
 40
6.000000000000512
  0
CIRCLE
  5
AD
100
AcDbEntity
  8
0
  6
ByLayer
 62
  256
370
   -1
100
AcDbCircle
 10
0
 20
0
 40
8.499999999999972
  0
CIRCLE
  5
AE
100
AcDbEntity
  8
0
  6
ByLayer
 62
  256
370
   -1
100
AcDbCircle
 10
0
 20
0
 40
5
  0
SPLINE
  5
AF
100
AcDbEntity
  8
0
  6
ByLayer
 62
  256
370
   -1
100
AcDbSpline
210
0
220
0
230
0
 70
    8
 71
    2
 72
    6
 73
    3
 74
    0
 42
1e-007
 43
1e-007
 40
0
 40
0
 40
0
 40
1
 40
1
 40
1
 10
-3.422577887663607
 20
4.928078794295175
 30
0
 10
-2.010434814219664
 20
3.482175243545819
 30
0
 10
-2.556552483886605
 20
5.428078794308078
 30
0
  0
SPLINE
  5
B0
100
AcDbEntity
  8
0
  6
ByLayer
 62
  256
370
   -1
100
AcDbSpline
210
0
220
0
230
0
 70
    8
 71
    2
 72
    6
 73
    3
 74
    0
 42
1e-007
 43
1e-007
 40
0
 40
0
 40
0
 40
1
 40
1
 40
1
 10
-5.428078794295146
 20
2.556552483879159
 30
0
 10
-3.482175243539768
 20
2.010434814230104
 30
0
 10
-4.928078794308021
 20
3.422577887671082
 30
0
  0
SPLINE
  5
B1
100
AcDbEntity
  8
0
  6
ByLayer
 62
  256
370
   -1
100
AcDbSpline
210
0
220
0
230
0
 70
    8
 71
    2
 72
    6
 73
    3
 74
    0
 42
1e-007
 43
1e-007
 40
0
 40
0
 40
0
 40
1
 40
1
 40
1
 10
-5.979130371542794
 20
-0.5
 30
0
 10
-4.020869628449758
 20
6.015576925477716e-012
 30
0
 10
-5.979130371557687
 20
0.5000000000000568
 30
0
  0
SPLINE
  5
B2
100
AcDbEntity
  8
0
  6
ByLayer
 62
  256
370
   -1
100
AcDbSpline
210
0
220
0
230
0
 70
    8
 71
    2
 72
    6
 73
    3
 74
    0
 42
1e-007
 43
1e-007
 40
0
 40
0
 40
0
 40
1
 40
1
 40
1
 10
-4.928078794295146
 20
-3.422577887663635
 30
0
 10
-3.482175243545784
 20
-2.010434814219659
 30
0
 10
-5.42807879430805
 20
-2.556552483886605
 30
0
  0
SPLINE
  5
B3
100
AcDbEntity
  8
0
  6
ByLayer
 62
  256
370
   -1
100
AcDbSpline
210
0
220
0
230
0
 70
    8
 71
    2
 72
    6
 73
    3
 74
    0
 42
1e-007
 43
1e-007
 40
0
 40
0
 40
0
 40
1
 40
1
 40
1
 10
-2.556552483879187
 20
-5.428078794295175
 30
0
 10
-2.010434814230083
 20
-3.482175243539814
 30
0
 10
-3.422577887671082
 20
-4.928078794308021
 30
0
  0
SPLINE
  5
B4
100
AcDbEntity
  8
0
  6
ByLayer
 62
  256
370
   -1
100
AcDbSpline
210
0
220
0
230
0
 70
    8
 71
    2
 72
    6
 73
    3
 74
    0
 42
1e-007
 43
1e-007
 40
0
 40
0
 40
0
 40
1
 40
1
 40
1
 10
0.5
 20
-5.979130371542794
 30
0
 10
-6.024014620464867e-012
 20
-4.020869628449757
 30
0
 10
-0.5000000000000284
 20
-5.979130371557687
 30
0
  0
SPLINE
  5
B5
100
AcDbEntity
  8
0
  6
ByLayer
 62
  256
370
   -1
100
AcDbSpline
210
0
220
0
230
0
 70
    8
 71
    2
 72
    6
 73
    3
 74
    0
 42
1e-007
 43
1e-007
 40
0
 40
0
 40
0
 40
1
 40
1
 40
1
 10
3.422577887663607
 20
-4.928078794295175
 30
0
 10
2.010434814219664
 20
-3.482175243545819
 30
0
 10
2.556552483886605
 20
-5.428078794308078
 30
0
  0
SPLINE
  5
B6
100
AcDbEntity
  8
0
  6
ByLayer
 62
  256
370
   -1
100
AcDbSpline
210
0
220
0
230
0
 70
    8
 71
    2
 72
    6
 73
    3
 74
    0
 42
1e-007
 43
1e-007
 40
0
 40
0
 40
0
 40
1
 40
1
 40
1
 10
5.428078794295146
 20
-2.556552483879159
 30
0
 10
3.482175243539768
 20
-2.010434814230104
 30
0
 10
4.928078794308021
 20
-3.422577887671082
 30
0
  0
SPLINE
  5
B7
100
AcDbEntity
  8
0
  6
ByLayer
 62
  256
370
   -1
100
AcDbSpline
210
0
220
0
230
0
 70
    8
 71
    2
 72
    6
 73
    3
 74
    0
 42
1e-007
 43
1e-007
 40
0
 40
0
 40
0
 40
1
 40
1
 40
1
 10
5.979130371542794
 20
0.5
 30
0
 10
4.020869628449758
 20
-6.015576925477716e-012
 30
0
 10
5.979130371557687
 20
-0.5000000000000568
 30
0
  0
SPLINE
  5
B8
100
AcDbEntity
  8
0
  6
ByLayer
 62
  256
370
   -1
100
AcDbSpline
210
0
220
0
230
0
 70
    8
 71
    2
 72
    6
 73
    3
 74
    0
 42
1e-007
 43
1e-007
 40
0
 40
0
 40
0
 40
1
 40
1
 40
1
 10
4.928078794295146
 20
3.422577887663635
 30
0
 10
3.482175243545784
 20
2.010434814219659
 30
0
 10
5.42807879430805
 20
2.556552483886605
 30
0
  0
SPLINE
  5
B9
100
AcDbEntity
  8
0
  6
ByLayer
 62
  256
370
   -1
100
AcDbSpline
210
0
220
0
230
0
 70
    8
 71
    2
 72
    6
 73
    3
 74
    0
 42
1e-007
 43
1e-007
 40
0
 40
0
 40
0
 40
1
 40
1
 40
1
 10
2.556552483879187
 20
5.428078794295175
 30
0
 10
2.010434814230083
 20
3.482175243539814
 30
0
 10
3.422577887671082
 20
4.928078794308021
 30
0
  0
INSERT
  5
BA
100
AcDbEntity
  8
0
  6
ByLayer
 62
  256
370
   -1
100
AcDbBlockReference
  2
marker
 10
0
 20
3
 30
0
 41
1
 42
1
 43
0
 50
0
 70
    1
 71
    1
 44
0
 45
0
  0
ENDBLK
  5
60
330
5E
100
AcDbEntity
  8
0
100
AcDbBlockEnd
  0
BLOCK
  5
62
330
61
100
AcDbEntity
  8
0
100
AcDbBlockBegin
  2
Rotary encoder-4
 70
    0
 10
0
 20
0
  3
Rotary encoder-4
  1

  0
HATCH
  5
BB
100
AcDbEntity
  8
0
  6
ByLayer
 62
  256
370
   -1
100
AcDbHatch
 10
0
 20
0
 30
0
210
0
220
0
230
1
  2
SOLID
 70
    1
 71
    0
 91
    1
 92
    0
 93
    4
 72
    2
 10
0
 20
6
 40
1
 50
180
 51
360
 73
    0
 72
    1
 10
1
 20
6
 11
1
 21
0
 72
    2
 10
0
 20
0
 40
1
 50
360
 51
180
 73
    0
 72
    1
 10
-1
 20
0
 11
-1
 21
6
 97
    0
 75
    0
 76
    1
 98
    0
  0
CIRCLE
  5
BC
100
AcDbEntity
  8
0
  6
ByLayer
 62
  256
370
   -1
100
AcDbCircle
 10
5.115907697472721e-013
 20
6.821210263296962e-013
 40
6.000000000000512
  0
CIRCLE
  5
BD
100
AcDbEntity
  8
0
  6
ByLayer
 62
  256
370
   -1
100
AcDbCircle
 10
0
 20
0
 40
8.499999999999972
  0
CIRCLE
  5
BE
100
AcDbEntity
  8
0
  6
ByLayer
 62
  256
370
   -1
100
AcDbCircle
 10
0
 20
0
 40
5
  0
SPLINE
  5
BF
100
AcDbEntity
  8
0
  6
ByLayer
 62
  256
370
   -1
100
AcDbSpline
210
0
220
0
230
0
 70
    8
 71
    2
 72
    6
 73
    3
 74
    0
 42
1e-007
 43
1e-007
 40
0
 40
0
 40
0
 40
1
 40
1
 40
1
 10
-3.422577887663607
 20
4.928078794295175
 30
0
 10
-2.010434814219664
 20
3.482175243545819
 30
0
 10
-2.556552483886605
 20
5.428078794308078
 30
0
  0
SPLINE
  5
C0
100
AcDbEntity
  8
0
  6
ByLayer
 62
  256
370
   -1
100
AcDbSpline
210
0
220
0
230
0
 70
    8
 71
    2
 72
    6
 73
    3
 74
    0
 42
1e-007
 43
1e-007
 40
0
 40
0
 40
0
 40
1
 40
1
 40
1
 10
-5.428078794295146
 20
2.556552483879159
 30
0
 10
-3.482175243539768
 20
2.010434814230104
 30
0
 10
-4.928078794308021
 20
3.422577887671082
 30
0
  0
SPLINE
  5
C1
100
AcDbEntity
  8
0
  6
ByLayer
 62
  256
370
   -1
100
AcDbSpline
210
0
220
0
230
0
 70
    8
 71
    2
 72
    6
 73
    3
 74
    0
 42
1e-007
 43
1e-007
 40
0
 40
0
 40
0
 40
1
 40
1
 40
1
 10
-5.979130371542794
 20
-0.5
 30
0
 10
-4.020869628449758
 20
6.015576925477716e-012
 30
0
 10
-5.979130371557687
 20
0.5000000000000568
 30
0
  0
SPLINE
  5
C2
100
AcDbEntity
  8
0
  6
ByLayer
 62
  256
370
   -1
100
AcDbSpline
210
0
220
0
230
0
 70
    8
 71
    2
 72
    6
 73
    3
 74
    0
 42
1e-007
 43
1e-007
 40
0
 40
0
 40
0
 40
1
 40
1
 40
1
 10
-4.928078794295146
 20
-3.422577887663635
 30
0
 10
-3.482175243545784
 20
-2.010434814219659
 30
0
 10
-5.42807879430805
 20
-2.556552483886605
 30
0
  0
SPLINE
  5
C3
100
AcDbEntity
  8
0
  6
ByLayer
 62
  256
370
   -1
100
AcDbSpline
210
0
220
0
230
0
 70
    8
 71
    2
 72
    6
 73
    3
 74
    0
 42
1e-007
 43
1e-007
 40
0
 40
0
 40
0
 40
1
 40
1
 40
1
 10
-2.556552483879187
 20
-5.428078794295175
 30
0
 10
-2.010434814230083
 20
-3.482175243539814
 30
0
 10
-3.422577887671082
 20
-4.928078794308021
 30
0
  0
SPLINE
  5
C4
100
AcDbEntity
  8
0
  6
ByLayer
 62
  256
370
   -1
100
AcDbSpline
210
0
220
0
230
0
 70
    8
 71
    2
 72
    6
 73
    3
 74
    0
 42
1e-007
 43
1e-007
 40
0
 40
0
 40
0
 40
1
 40
1
 40
1
 10
0.5
 20
-5.979130371542794
 30
0
 10
-6.024014620464867e-012
 20
-4.020869628449757
 30
0
 10
-0.5000000000000284
 20
-5.979130371557687
 30
0
  0
SPLINE
  5
C5
100
AcDbEntity
  8
0
  6
ByLayer
 62
  256
370
   -1
100
AcDbSpline
210
0
220
0
230
0
 70
    8
 71
    2
 72
    6
 73
    3
 74
    0
 42
1e-007
 43
1e-007
 40
0
 40
0
 40
0
 40
1
 40
1
 40
1
 10
3.422577887663607
 20
-4.928078794295175
 30
0
 10
2.010434814219664
 20
-3.482175243545819
 30
0
 10
2.556552483886605
 20
-5.428078794308078
 30
0
  0
SPLINE
  5
C6
100
AcDbEntity
  8
0
  6
ByLayer
 62
  256
370
   -1
100
AcDbSpline
210
0
220
0
230
0
 70
    8
 71
    2
 72
    6
 73
    3
 74
    0
 42
1e-007
 43
1e-007
 40
0
 40
0
 40
0
 40
1
 40
1
 40
1
 10
5.428078794295146
 20
-2.556552483879159
 30
0
 10
3.482175243539768
 20
-2.010434814230104
 30
0
 10
4.928078794308021
 20
-3.422577887671082
 30
0
  0
SPLINE
  5
C7
100
AcDbEntity
  8
0
  6
ByLayer
 62
  256
370
   -1
100
AcDbSpline
210
0
220
0
230
0
 70
    8
 71
    2
 72
    6
 73
    3
 74
    0
 42
1e-007
 43
1e-007
 40
0
 40
0
 40
0
 40
1
 40
1
 40
1
 10
5.979130371542794
 20
0.5
 30
0
 10
4.020869628449758
 20
-6.015576925477716e-012
 30
0
 10
5.979130371557687
 20
-0.5000000000000568
 30
0
  0
SPLINE
  5
C8
100
AcDbEntity
  8
0
  6
ByLayer
 62
  256
370
   -1
100
AcDbSpline
210
0
220
0
230
0
 70
    8
 71
    2
 72
    6
 73
    3
 74
    0
 42
1e-007
 43
1e-007
 40
0
 40
0
 40
0
 40
1
 40
1
 40
1
 10
4.928078794295146
 20
3.422577887663635
 30
0
 10
3.482175243545784
 20
2.010434814219659
 30
0
 10
5.42807879430805
 20
2.556552483886605
 30
0
  0
SPLINE
  5
C9
100
AcDbEntity
  8
0
  6
ByLayer
 62
  256
370
   -1
100
AcDbSpline
210
0
220
0
230
0
 70
    8
 71
    2
 72
    6
 73
    3
 74
    0
 42
1e-007
 43
1e-007
 40
0
 40
0
 40
0
 40
1
 40
1
 40
1
 10
2.556552483879187
 20
5.428078794295175
 30
0
 10
2.010434814230083
 20
3.482175243539814
 30
0
 10
3.422577887671082
 20
4.928078794308021
 30
0
  0
INSERT
  5
CA
100
AcDbEntity
  8
0
  6
ByLayer
 62
  256
370
   -1
100
AcDbBlockReference
  2
marker
 10
0
 20
3
 30
0
 41
1
 42
1
 43
0
 50
0
 70
    1
 71
    1
 44
0
 45
0
  0
ENDBLK
  5
63
330
61
100
AcDbEntity
  8
0
100
AcDbBlockEnd
  0
BLOCK
  5
65
330
64
100
AcDbEntity
  8
0
100
AcDbBlockBegin
  2
Rotary encoder-5
 70
    0
 10
0
 20
0
  3
Rotary encoder-5
  1

  0
HATCH
  5
CB
100
AcDbEntity
  8
0
  6
ByLayer
 62
  256
370
   -1
100
AcDbHatch
 10
0
 20
0
 30
0
210
0
220
0
230
1
  2
SOLID
 70
    1
 71
    0
 91
    1
 92
    0
 93
    4
 72
    2
 10
0
 20
6
 40
1
 50
180
 51
360
 73
    0
 72
    1
 10
1
 20
6
 11
1
 21
0
 72
    2
 10
0
 20
0
 40
1
 50
360
 51
180
 73
    0
 72
    1
 10
-1
 20
0
 11
-1
 21
6
 97
    0
 75
    0
 76
    1
 98
    0
  0
CIRCLE
  5
CC
100
AcDbEntity
  8
0
  6
ByLayer
 62
  256
370
   -1
100
AcDbCircle
 10
5.115907697472721e-013
 20
6.821210263296962e-013
 40
6.000000000000512
  0
CIRCLE
  5
CD
100
AcDbEntity
  8
0
  6
ByLayer
 62
  256
370
   -1
100
AcDbCircle
 10
0
 20
0
 40
8.499999999999972
  0
CIRCLE
  5
CE
100
AcDbEntity
  8
0
  6
ByLayer
 62
  256
370
   -1
100
AcDbCircle
 10
0
 20
0
 40
5
  0
SPLINE
  5
CF
100
AcDbEntity
  8
0
  6
ByLayer
 62
  256
370
   -1
100
AcDbSpline
210
0
220
0
230
0
 70
    8
 71
    2
 72
    6
 73
    3
 74
    0
 42
1e-007
 43
1e-007
 40
0
 40
0
 40
0
 40
1
 40
1
 40
1
 10
-3.422577887663607
 20
4.928078794295175
 30
0
 10
-2.010434814219664
 20
3.482175243545819
 30
0
 10
-2.556552483886605
 20
5.428078794308078
 30
0
  0
SPLINE
  5
D0
100
AcDbEntity
  8
0
  6
ByLayer
 62
  256
370
   -1
100
AcDbSpline
210
0
220
0
230
0
 70
    8
 71
    2
 72
    6
 73
    3
 74
    0
 42
1e-007
 43
1e-007
 40
0
 40
0
 40
0
 40
1
 40
1
 40
1
 10
-5.428078794295146
 20
2.556552483879159
 30
0
 10
-3.482175243539768
 20
2.010434814230104
 30
0
 10
-4.928078794308021
 20
3.422577887671082
 30
0
  0
SPLINE
  5
D1
100
AcDbEntity
  8
0
  6
ByLayer
 62
  256
370
   -1
100
AcDbSpline
210
0
220
0
230
0
 70
    8
 71
    2
 72
    6
 73
    3
 74
    0
 42
1e-007
 43
1e-007
 40
0
 40
0
 40
0
 40
1
 40
1
 40
1
 10
-5.979130371542794
 20
-0.5
 30
0
 10
-4.020869628449758
 20
6.015576925477716e-012
 30
0
 10
-5.979130371557687
 20
0.5000000000000568
 30
0
  0
SPLINE
  5
D2
100
AcDbEntity
  8
0
  6
ByLayer
 62
  256
370
   -1
100
AcDbSpline
210
0
220
0
230
0
 70
    8
 71
    2
 72
    6
 73
    3
 74
    0
 42
1e-007
 43
1e-007
 40
0
 40
0
 40
0
 40
1
 40
1
 40
1
 10
-4.928078794295146
 20
-3.422577887663635
 30
0
 10
-3.482175243545784
 20
-2.010434814219659
 30
0
 10
-5.42807879430805
 20
-2.556552483886605
 30
0
  0
SPLINE
  5
D3
100
AcDbEntity
  8
0
  6
ByLayer
 62
  256
370
   -1
100
AcDbSpline
210
0
220
0
230
0
 70
    8
 71
    2
 72
    6
 73
    3
 74
    0
 42
1e-007
 43
1e-007
 40
0
 40
0
 40
0
 40
1
 40
1
 40
1
 10
-2.556552483879187
 20
-5.428078794295175
 30
0
 10
-2.010434814230083
 20
-3.482175243539814
 30
0
 10
-3.422577887671082
 20
-4.928078794308021
 30
0
  0
SPLINE
  5
D4
100
AcDbEntity
  8
0
  6
ByLayer
 62
  256
370
   -1
100
AcDbSpline
210
0
220
0
230
0
 70
    8
 71
    2
 72
    6
 73
    3
 74
    0
 42
1e-007
 43
1e-007
 40
0
 40
0
 40
0
 40
1
 40
1
 40
1
 10
0.5
 20
-5.979130371542794
 30
0
 10
-6.024014620464867e-012
 20
-4.020869628449757
 30
0
 10
-0.5000000000000284
 20
-5.979130371557687
 30
0
  0
SPLINE
  5
D5
100
AcDbEntity
  8
0
  6
ByLayer
 62
  256
370
   -1
100
AcDbSpline
210
0
220
0
230
0
 70
    8
 71
    2
 72
    6
 73
    3
 74
    0
 42
1e-007
 43
1e-007
 40
0
 40
0
 40
0
 40
1
 40
1
 40
1
 10
3.422577887663607
 20
-4.928078794295175
 30
0
 10
2.010434814219664
 20
-3.482175243545819
 30
0
 10
2.556552483886605
 20
-5.428078794308078
 30
0
  0
SPLINE
  5
D6
100
AcDbEntity
  8
0
  6
ByLayer
 62
  256
370
   -1
100
AcDbSpline
210
0
220
0
230
0
 70
    8
 71
    2
 72
    6
 73
    3
 74
    0
 42
1e-007
 43
1e-007
 40
0
 40
0
 40
0
 40
1
 40
1
 40
1
 10
5.428078794295146
 20
-2.556552483879159
 30
0
 10
3.482175243539768
 20
-2.010434814230104
 30
0
 10
4.928078794308021
 20
-3.422577887671082
 30
0
  0
SPLINE
  5
D7
100
AcDbEntity
  8
0
  6
ByLayer
 62
  256
370
   -1
100
AcDbSpline
210
0
220
0
230
0
 70
    8
 71
    2
 72
    6
 73
    3
 74
    0
 42
1e-007
 43
1e-007
 40
0
 40
0
 40
0
 40
1
 40
1
 40
1
 10
5.979130371542794
 20
0.5
 30
0
 10
4.020869628449758
 20
-6.015576925477716e-012
 30
0
 10
5.979130371557687
 20
-0.5000000000000568
 30
0
  0
SPLINE
  5
D8
100
AcDbEntity
  8
0
  6
ByLayer
 62
  256
370
   -1
100
AcDbSpline
210
0
220
0
230
0
 70
    8
 71
    2
 72
    6
 73
    3
 74
    0
 42
1e-007
 43
1e-007
 40
0
 40
0
 40
0
 40
1
 40
1
 40
1
 10
4.928078794295146
 20
3.422577887663635
 30
0
 10
3.482175243545784
 20
2.010434814219659
 30
0
 10
5.42807879430805
 20
2.556552483886605
 30
0
  0
SPLINE
  5
D9
100
AcDbEntity
  8
0
  6
ByLayer
 62
  256
370
   -1
100
AcDbSpline
210
0
220
0
230
0
 70
    8
 71
    2
 72
    6
 73
    3
 74
    0
 42
1e-007
 43
1e-007
 40
0
 40
0
 40
0
 40
1
 40
1
 40
1
 10
2.556552483879187
 20
5.428078794295175
 30
0
 10
2.010434814230083
 20
3.482175243539814
 30
0
 10
3.422577887671082
 20
4.928078794308021
 30
0
  0
INSERT
  5
DA
100
AcDbEntity
  8
0
  6
ByLayer
 62
  256
370
   -1
100
AcDbBlockReference
  2
marker
 10
0
 20
3
 30
0
 41
1
 42
1
 43
0
 50
0
 70
    1
 71
    1
 44
0
 45
0
  0
ENDBLK
  5
66
330
64
100
AcDbEntity
  8
0
100
AcDbBlockEnd
  0
ENDSEC
  0
SECTION
  2
ENTITIES
  0
CIRCLE
  5
DB
100
AcDbEntity
  8
0
  6
ByLayer
 62
  256
370
   -1
100
AcDbCircle
 10
479.9999999999999
 20
237.0000000000005
 40
6.000000000000014
  0
CIRCLE
  5
DC
100
AcDbEntity
  8
0
  6
ByLayer
 62
  256
370
   -1
100
AcDbCircle
 10
399.9999999999997
 20
237.0000000000005
 40
6.000000000000014
  0
CIRCLE
  5
DD
100
AcDbEntity
  8
0
  6
ByLayer
 62
  256
370
   -1
100
AcDbCircle
 10
319.9999999999995
 20
237.0000000000005
 40
6
  0
CIRCLE
  5
DE
100
AcDbEntity
  8
0
  6
ByLayer
 62
  256
370
   -1
100
AcDbCircle
 10
479.9999999999999
 20
117.0000000000003
 40
6.000000000000014
  0
CIRCLE
  5
DF
100
AcDbEntity
  8
0
  6
ByLayer
 62
  256
370
   -1
100
AcDbCircle
 10
399.9999999999997
 20
117.0000000000003
 40
6.000000000000014
  0
CIRCLE
  5
E0
100
AcDbEntity
  8
0
  6
ByLayer
 62
  256
370
   -1
100
AcDbCircle
 10
319.9999999999995
 20
117.0000000000003
 40
6
  0
CIRCLE
  5
E1
100
AcDbEntity
  8
0
  6
ByLayer
 62
  256
370
   -1
100
AcDbCircle
 10
199.9999999999993
 20
237.0000000000005
 40
6.000000000000014
  0
CIRCLE
  5
E2
100
AcDbEntity
  8
0
  6
ByLayer
 62
  256
370
   -1
100
AcDbCircle
 10
119.9999999999991
 20
237.0000000000005
 40
6.000000000000014
  0
CIRCLE
  5
E3
100
AcDbEntity
  8
0
  6
ByLayer
 62
  256
370
   -1
100
AcDbCircle
 10
39.99999999999898
 20
237.0000000000005
 40
6
  0
CIRCLE
  5
E4
100
AcDbEntity
  8
0
  6
ByLayer
 62
  256
370
   -1
100
AcDbCircle
 10
199.9999999999993
 20
117.0000000000003
 40
6.000000000000014
  0
CIRCLE
  5
E5
100
AcDbEntity
  8
0
  6
ByLayer
 62
  256
370
   -1
100
AcDbCircle
 10
119.9999999999991
 20
117.0000000000003
 40
6.000000000000014
  0
CIRCLE
  5
E6
100
AcDbEntity
  8
0
  6
ByLayer
 62
  256
370
   -1
100
AcDbCircle
 10
39.99999999999898
 20
117.0000000000003
 40
6
  0
LWPOLYLINE
  5
E7
100
AcDbEntity
  8
0
  6
ByLayer
 62
  256
370
   -1
100
AcDbPolyline
 90
    4
 70
    1
 43
0
 10
193.9999999999987
 20
310.0000000000012
 10
263.999999999999
 20
310.0000000000012
 10
263.999999999999
 20
273.0000000000011
 10
193.9999999999987
 20
273.0000000000011
  0
LWPOLYLINE
  5
E8
100
AcDbEntity
  8
0
  6
ByLayer
 62
  256
370
   -1
100
AcDbPolyline
 90
    4
 70
    1
 43
0
 10
394
 20
320
 10
419
 20
320
 10
419
 20
308
 10
394
 20
308
  0
LWPOLYLINE
  5
E9
100
AcDbEntity
  8
0
  6
ByLayer
 62
  256
370
   -1
100
AcDbPolyline
 90
    4
 70
    1
 43
0
 10
520
 20
334
 10
0
 20
334
 10
0
 20
81
 10
520
 20
81
  0
LINE
  5
EA
100
AcDbEntity
  8
0
  6
ByLayer
 62
  256
370
   -1
100
AcDbLine
 10
520
 20
470
 11
0
 21
469.9999999999999
  0
LWPOLYLINE
  5
EB
100
AcDbEntity
  8
0
  6
ByLayer
 62
  256
370
   -1
100
AcDbPolyline
 90
    4
 70
    1
 43
0
 10
56
 20
401.9999999999999
 10
112
 20
401.9999999999999
 10
112
 20
381.9999999999999
 10
56
 20
381.9999999999999
  0
CIRCLE
  5
EC
100
AcDbEntity
  8
0
  6
ByLayer
 62
  256
370
   -1
100
AcDbCircle
 10
200
 20
399.9999999999999
 40
5
  0
CIRCLE
  5
ED
100
AcDbEntity
  8
0
  6
ByLayer
 62
  256
370
   -1
100
AcDbCircle
 10
225
 20
399.9999999999999
 40
5
  0
CIRCLE
  5
EE
100
AcDbEntity
  8
0
  6
ByLayer
 62
  256
370
   -1
100
AcDbCircle
 10
250
 20
399.9999999999999
 40
5
  0
CIRCLE
  5
EF
100
AcDbEntity
  8
0
  6
ByLayer
 62
  256
370
   -1
100
AcDbCircle
 10
480
 20
399.9999999999999
 40
5
  0
CIRCLE
  5
F0
100
AcDbEntity
  8
0
  6
ByLayer
 62
  256
370
   -1
100
AcDbCircle
 10
455
 20
399.9999999999999
 40
5
  0
CIRCLE
  5
F1
100
AcDbEntity
  8
0
  6
ByLayer
 62
  256
370
   -1
100
AcDbCircle
 10
410
 20
399.9999999999999
 40
5
  0
CIRCLE
  5
F2
100
AcDbEntity
  8
0
  6
ByLayer
 62
  256
370
   -1
100
AcDbCircle
 10
385
 20
399.9999999999999
 40
5
  0
CIRCLE
  5
F3
100
AcDbEntity
  8
0
  6
ByLayer
 62
  256
370
   -1
100
AcDbCircle
 10
397.5
 20
419.9999999999998
 40
5
  0
LWPOLYLINE
  5
F4
100
AcDbEntity
  8
0
  6
ByLayer
 62
  256
370
   -1
100
AcDbPolyline
 90
    4
 70
    1
 43
0
 10
324
 20
364.9999999999999
 10
296
 20
364.9999999999999
 10
296
 20
384.9999999999999
 10
324
 20
384.9999999999999
  0
LWPOLYLINE
  5
F5
100
AcDbEntity
  8
0
  6
ByLayer
 62
  256
370
   -1
100
AcDbPolyline
 90
    4
 70
    1
 43
0
 10
296
 20
394.9999999999999
 10
324
 20
394.9999999999999
 10
324
 20
404.9999999999999
 10
296
 20
404.9999999999999
  0
LWPOLYLINE
  5
F6
100
AcDbEntity
  8
0
  6
ByLayer
 62
  256
370
   -1
100
AcDbPolyline
 90
    4
 70
    1
 43
0
 10
0
 20
349.9999999999999
 10
520
 20
350
 10
520
 20
470
 10
0
 20
469.9999999999999
  0
CIRCLE
  5
F7
100
AcDbEntity
  8
0
  6
ByLayer
 62
  256
370
   -1
100
AcDbCircle
 10
480
 20
400
 40
3.16227766016838
  0
LINE
  5
F8
100
AcDbEntity
  8
0
  6
ByLayer
 62
  256
370
   -1
100
AcDbLine
 10
473
 20
400
 11
476.5
 21
406.0621778264911
  0
LINE
  5
F9
100
AcDbEntity
  8
0
  6
ByLayer
 62
  256
370
   -1
100
AcDbLine
 10
476.5
 20
406.0621778264911
 11
483.5
 21
406.0621778264911
  0
LINE
  5
FA
100
AcDbEntity
  8
0
  6
ByLayer
 62
  256
370
   -1
100
AcDbLine
 10
483.5
 20
406.0621778264911
 11
487
 21
400
  0
LINE
  5
FB
100
AcDbEntity
  8
0
  6
ByLayer
 62
  256
370
   -1
100
AcDbLine
 10
487
 20
400
 11
483.5
 21
393.9378221735089
  0
LINE
  5
FC
100
AcDbEntity
  8
0
  6
ByLayer
 62
  256
370
   -1
100
AcDbLine
 10
483.5
 20
393.9378221735089
 11
476.5
 21
393.9378221735089
  0
LINE
  5
FD
100
AcDbEntity
  8
0
  6
ByLayer
 62
  256
370
   -1
100
AcDbLine
 10
476.5
 20
393.9378221735089
 11
473
 21
400
  0
CIRCLE
  5
FE
100
AcDbEntity
  8
0
  6
ByLayer
 62
  256
370
   -1
100
AcDbCircle
 10
455
 20
400
 40
3.16227766016838
  0
LINE
  5
FF
100
AcDbEntity
  8
0
  6
ByLayer
 62
  256
370
   -1
100
AcDbLine
 10
448
 20
400
 11
451.5
 21
406.0621778264911
  0
LINE
  5
100
100
AcDbEntity
  8
0
  6
ByLayer
 62
  256
370
   -1
100
AcDbLine
 10
451.5
 20
406.0621778264911
 11
458.5
 21
406.0621778264911
  0
LINE
  5
101
100
AcDbEntity
  8
0
  6
ByLayer
 62
  256
370
   -1
100
AcDbLine
 10
458.5
 20
406.0621778264911
 11
462
 21
400
  0
LINE
  5
102
100
AcDbEntity
  8
0
  6
ByLayer
 62
  256
370
   -1
100
AcDbLine
 10
462
 20
400
 11
458.5
 21
393.9378221735089
  0
LINE
  5
103
100
AcDbEntity
  8
0
  6
ByLayer
 62
  256
370
   -1
100
AcDbLine
 10
458.5
 20
393.9378221735089
 11
451.5
 21
393.9378221735089
  0
LINE
  5
104
100
AcDbEntity
  8
0
  6
ByLayer
 62
  256
370
   -1
100
AcDbLine
 10
451.5
 20
393.9378221735089
 11
448
 21
400
  0
CIRCLE
  5
105
100
AcDbEntity
  8
0
  6
ByLayer
 62
  256
370
   -1
100
AcDbCircle
 10
410
 20
400
 40
3.16227766016838
  0
LINE
  5
106
100
AcDbEntity
  8
0
  6
ByLayer
 62
  256
370
   -1
100
AcDbLine
 10
403
 20
400
 11
406.5
 21
406.0621778264911
  0
LINE
  5
107
100
AcDbEntity
  8
0
  6
ByLayer
 62
  256
370
   -1
100
AcDbLine
 10
406.5
 20
406.0621778264911
 11
413.5
 21
406.0621778264911
  0
LINE
  5
108
100
AcDbEntity
  8
0
  6
ByLayer
 62
  256
370
   -1
100
AcDbLine
 10
413.5
 20
406.0621778264911
 11
417
 21
400
  0
LINE
  5
109
100
AcDbEntity
  8
0
  6
ByLayer
 62
  256
370
   -1
100
AcDbLine
 10
417
 20
400
 11
413.5
 21
393.9378221735089
  0
LINE
  5
10A
100
AcDbEntity
  8
0
  6
ByLayer
 62
  256
370
   -1
100
AcDbLine
 10
413.5
 20
393.9378221735089
 11
406.5
 21
393.9378221735089
  0
LINE
  5
10B
100
AcDbEntity
  8
0
  6
ByLayer
 62
  256
370
   -1
100
AcDbLine
 10
406.5
 20
393.9378221735089
 11
403
 21
400
  0
CIRCLE
  5
10C
100
AcDbEntity
  8
0
  6
ByLayer
 62
  256
370
   -1
100
AcDbCircle
 10
385
 20
400
 40
3.16227766016838
  0
LINE
  5
10D
100
AcDbEntity
  8
0
  6
ByLayer
 62
  256
370
   -1
100
AcDbLine
 10
378
 20
400
 11
381.5
 21
406.0621778264911
  0
LINE
  5
10E
100
AcDbEntity
  8
0
  6
ByLayer
 62
  256
370
   -1
100
AcDbLine
 10
381.5
 20
406.0621778264911
 11
388.5
 21
406.0621778264911
  0
LINE
  5
10F
100
AcDbEntity
  8
0
  6
ByLayer
 62
  256
370
   -1
100
AcDbLine
 10
388.5
 20
406.0621778264911
 11
392
 21
400
  0
LINE
  5
110
100
AcDbEntity
  8
0
  6
ByLayer
 62
  256
370
   -1
100
AcDbLine
 10
392
 20
400
 11
388.5
 21
393.9378221735089
  0
LINE
  5
111
100
AcDbEntity
  8
0
  6
ByLayer
 62
  256
370
   -1
100
AcDbLine
 10
388.5
 20
393.9378221735089
 11
381.5
 21
393.9378221735089
  0
LINE
  5
112
100
AcDbEntity
  8
0
  6
ByLayer
 62
  256
370
   -1
100
AcDbLine
 10
381.5
 20
393.9378221735089
 11
378
 21
400
  0
CIRCLE
  5
113
100
AcDbEntity
  8
0
  6
ByLayer
 62
  256
370
   -1
100
AcDbCircle
 10
250
 20
400
 40
3.16227766016838
  0
LINE
  5
114
100
AcDbEntity
  8
0
  6
ByLayer
 62
  256
370
   -1
100
AcDbLine
 10
243
 20
400
 11
246.5
 21
406.0621778264911
  0
LINE
  5
115
100
AcDbEntity
  8
0
  6
ByLayer
 62
  256
370
   -1
100
AcDbLine
 10
246.5
 20
406.0621778264911
 11
253.5
 21
406.0621778264911
  0
LINE
  5
116
100
AcDbEntity
  8
0
  6
ByLayer
 62
  256
370
   -1
100
AcDbLine
 10
253.5
 20
406.0621778264911
 11
257
 21
400
  0
LINE
  5
117
100
AcDbEntity
  8
0
  6
ByLayer
 62
  256
370
   -1
100
AcDbLine
 10
257
 20
400
 11
253.5
 21
393.9378221735089
  0
LINE
  5
118
100
AcDbEntity
  8
0
  6
ByLayer
 62
  256
370
   -1
100
AcDbLine
 10
253.5
 20
393.9378221735089
 11
246.5
 21
393.9378221735089
  0
LINE
  5
119
100
AcDbEntity
  8
0
  6
ByLayer
 62
  256
370
   -1
100
AcDbLine
 10
246.5
 20
393.9378221735089
 11
243
 21
400
  0
CIRCLE
  5
11A
100
AcDbEntity
  8
0
  6
ByLayer
 62
  256
370
   -1
100
AcDbCircle
 10
225
 20
400
 40
3.16227766016838
  0
LINE
  5
11B
100
AcDbEntity
  8
0
  6
ByLayer
 62
  256
370
   -1
100
AcDbLine
 10
218
 20
400
 11
221.5
 21
406.0621778264911
  0
LINE
  5
11C
100
AcDbEntity
  8
0
  6
ByLayer
 62
  256
370
   -1
100
AcDbLine
 10
221.5
 20
406.0621778264911
 11
228.5
 21
406.0621778264911
  0
LINE
  5
11D
100
AcDbEntity
  8
0
  6
ByLayer
 62
  256
370
   -1
100
AcDbLine
 10
228.5
 20
406.0621778264911
 11
232
 21
400
  0
LINE
  5
11E
100
AcDbEntity
  8
0
  6
ByLayer
 62
  256
370
   -1
100
AcDbLine
 10
232
 20
400
 11
228.5
 21
393.9378221735089
  0
LINE
  5
11F
100
AcDbEntity
  8
0
  6
ByLayer
 62
  256
370
   -1
100
AcDbLine
 10
228.5
 20
393.9378221735089
 11
221.5
 21
393.9378221735089
  0
LINE
  5
120
100
AcDbEntity
  8
0
  6
ByLayer
 62
  256
370
   -1
100
AcDbLine
 10
221.5
 20
393.9378221735089
 11
218
 21
400
  0
CIRCLE
  5
121
100
AcDbEntity
  8
0
  6
ByLayer
 62
  256
370
   -1
100
AcDbCircle
 10
200
 20
400
 40
3.16227766016838
  0
LINE
  5
122
100
AcDbEntity
  8
0
  6
ByLayer
 62
  256
370
   -1
100
AcDbLine
 10
193
 20
400
 11
196.5
 21
406.0621778264911
  0
LINE
  5
123
100
AcDbEntity
  8
0
  6
ByLayer
 62
  256
370
   -1
100
AcDbLine
 10
196.5
 20
406.0621778264911
 11
203.5
 21
406.0621778264911
  0
LINE
  5
124
100
AcDbEntity
  8
0
  6
ByLayer
 62
  256
370
   -1
100
AcDbLine
 10
203.5
 20
406.0621778264911
 11
207
 21
400
  0
LINE
  5
125
100
AcDbEntity
  8
0
  6
ByLayer
 62
  256
370
   -1
100
AcDbLine
 10
207
 20
400
 11
203.5
 21
393.9378221735089
  0
LINE
  5
126
100
AcDbEntity
  8
0
  6
ByLayer
 62
  256
370
   -1
100
AcDbLine
 10
203.5
 20
393.9378221735089
 11
196.5
 21
393.9378221735089
  0
LINE
  5
127
100
AcDbEntity
  8
0
  6
ByLayer
 62
  256
370
   -1
100
AcDbLine
 10
196.5
 20
393.9378221735089
 11
193
 21
400
  0
CIRCLE
  5
128
100
AcDbEntity
  8
0
  6
ByLayer
 62
  256
370
   -1
100
AcDbCircle
 10
397.5
 20
420
 40
3.16227766016838
  0
LINE
  5
129
100
AcDbEntity
  8
0
  6
ByLayer
 62
  256
370
   -1
100
AcDbLine
 10
390.5
 20
420
 11
394
 21
426.0621778264911
  0
LINE
  5
12A
100
AcDbEntity
  8
0
  6
ByLayer
 62
  256
370
   -1
100
AcDbLine
 10
394
 20
426.0621778264911
 11
401
 21
426.0621778264911
  0
LINE
  5
12B
100
AcDbEntity
  8
0
  6
ByLayer
 62
  256
370
   -1
100
AcDbLine
 10
401
 20
426.0621778264911
 11
404.5
 21
420
  0
LINE
  5
12C
100
AcDbEntity
  8
0
  6
ByLayer
 62
  256
370
   -1
100
AcDbLine
 10
404.5
 20
420
 11
401
 21
413.9378221735089
  0
LINE
  5
12D
100
AcDbEntity
  8
0
  6
ByLayer
 62
  256
370
   -1
100
AcDbLine
 10
401
 20
413.9378221735089
 11
394
 21
413.9378221735089
  0
LINE
  5
12E
100
AcDbEntity
  8
0
  6
ByLayer
 62
  256
370
   -1
100
AcDbLine
 10
394
 20
413.9378221735089
 11
390.5
 21
420
  0
LWPOLYLINE
  5
12F
100
AcDbEntity
  8
0
  6
ByLayer
 62
  256
370
   -1
100
AcDbPolyline
 90
    4
 70
    1
 43
0
 10
334
 20
307
 10
318
 20
307
 10
318
 20
291
 10
334
 20
291
  0
LWPOLYLINE
  5
130
100
AcDbEntity
  8
0
  6
ByLayer
 62
  256
370
   -1
100
AcDbPolyline
 90
    4
 70
    1
 43
0
 10
332
 20
305
 10
320
 20
305
 10
320
 20
293
 10
332
 20
293
  0
LWPOLYLINE
  5
131
100
AcDbEntity
  8
0
  6
ByLayer
 62
  256
370
   -1
100
AcDbPolyline
 90
    4
 70
    1
 43
0
 10
316
 20
307
 10
300
 20
307
 10
300
 20
291
 10
316
 20
291
  0
LWPOLYLINE
  5
132
100
AcDbEntity
  8
0
  6
ByLayer
 62
  256
370
   -1
100
AcDbPolyline
 90
    4
 70
    1
 43
0
 10
314
 20
305
 10
302
 20
305
 10
302
 20
293
 10
314
 20
293
  0
LWPOLYLINE
  5
133
100
AcDbEntity
  8
0
  6
ByLayer
 62
  256
370
   -1
100
AcDbPolyline
 90
    4
 70
    1
 43
0
 10
298
 20
307
 10
282
 20
307
 10
282
 20
291
 10
298
 20
291
  0
LWPOLYLINE
  5
134
100
AcDbEntity
  8
0
  6
ByLayer
 62
  256
370
   -1
100
AcDbPolyline
 90
    4
 70
    1
 43
0
 10
296
 20
305
 10
284
 20
305
 10
284
 20
293
 10
296
 20
293
  0
LWPOLYLINE
  5
135
100
AcDbEntity
  8
0
  6
ByLayer
 62
  256
370
   -1
100
AcDbPolyline
 90
    4
 70
    1
 43
0
 10
298
 20
289
 10
282
 20
289
 10
282
 20
273
 10
298
 20
273
  0
LWPOLYLINE
  5
136
100
AcDbEntity
  8
0
  6
ByLayer
 62
  256
370
   -1
100
AcDbPolyline
 90
    4
 70
    1
 43
0
 10
296
 20
287
 10
284
 20
287
 10
284
 20
275
 10
296
 20
275
  0
LWPOLYLINE
  5
137
100
AcDbEntity
  8
0
  6
ByLayer
 62
  256
370
   -1
100
AcDbPolyline
 90
    4
 70
    1
 43
0
 10
316
 20
289
 10
300
 20
289
 10
300
 20
273
 10
316
 20
273
  0
LWPOLYLINE
  5
138
100
AcDbEntity
  8
0
  6
ByLayer
 62
  256
370
   -1
100
AcDbPolyline
 90
    4
 70
    1
 43
0
 10
314
 20
287
 10
302
 20
287
 10
302
 20
275
 10
314
 20
275
  0
LWPOLYLINE
  5
139
100
AcDbEntity
  8
0
  6
ByLayer
 62
  256
370
   -1
100
AcDbPolyline
 90
    4
 70
    1
 43
0
 10
334
 20
289
 10
318
 20
289
 10
318
 20
273
 10
334
 20
273
  0
LWPOLYLINE
  5
13A
100
AcDbEntity
  8
0
  6
ByLayer
 62
  256
370
   -1
100
AcDbPolyline
 90
    4
 70
    1
 43
0
 10
332
 20
287
 10
320
 20
287
 10
320
 20
275
 10
332
 20
275
  0
INSERT
  5
13B
100
AcDbEntity
  8
0
  6
ByLayer
 62
  256
370
   -1
100
AcDbBlockReference
  2
Rotary encoder
 10
321
 20
318
 30
0
 41
-1
 42
1
 43
0
 50
0
 70
    1
 71
    1
 44
0
 45
0
  0
INSERT
  5
13C
100
AcDbEntity
  8
0
  6
ByLayer
 62
  256
370
   -1
100
AcDbBlockReference
  2
Rotary encoder-0
 10
295.6
 20
318
 30
0
 41
-1
 42
1
 43
0
 50
0
 70
    1
 71
    1
 44
0
 45
0
  0
INSERT
  5
13D
100
AcDbEntity
  8
0
  6
ByLayer
 62
  256
370
   -1
100
AcDbBlockReference
  2
Rotary encoder
 10
140
 20
318
 30
0
 41
-1
 42
1
 43
0
 50
0
 70
    1
 71
    1
 44
0
 45
0
  0
INSERT
  5
13E
100
AcDbEntity
  8
0
  6
ByLayer
 62
  256
370
   -1
100
AcDbBlockReference
  2
Rotary encoder
 10
114.6
 20
318
 30
0
 41
-1
 42
1
 43
0
 50
0
 70
    1
 71
    1
 44
0
 45
0
  0
INSERT
  5
13F
100
AcDbEntity
  8
0
  6
ByLayer
 62
  256
370
   -1
100
AcDbBlockReference
  2
Rotary encoder
 10
89.19999999999999
 20
318
 30
0
 41
-1
 42
1
 43
0
 50
0
 70
    1
 71
    1
 44
0
 45
0
  0
INSERT
  5
140
100
AcDbEntity
  8
0
  6
ByLayer
 62
  256
370
   -1
100
AcDbBlockReference
  2
Rotary encoder
 10
63.80000000000001
 20
318
 30
0
 41
-1
 42
1
 43
0
 50
0
 70
    1
 71
    1
 44
0
 45
0
  0
INSERT
  5
141
100
AcDbEntity
  8
0
  6
ByLayer
 62
  256
370
   -1
100
AcDbBlockReference
  2
Rotary encoder
 10
38.39999999999998
 20
318
 30
0
 41
-1
 42
1
 43
0
 50
0
 70
    1
 71
    1
 44
0
 45
0
  0
CIRCLE
  5
142
100
AcDbEntity
  8
0
  6
ByLayer
 62
  256
370
   -1
100
AcDbCircle
 10
399
 20
314
 40
2.5
  0
CIRCLE
  5
143
100
AcDbEntity
  8
0
  6
ByLayer
 62
  256
370
   -1
100
AcDbCircle
 10
414
 20
314
 40
2.5
  0
CIRCLE
  5
144
100
AcDbEntity
  8
0
  6
ByLayer
 62
  256
370
   -1
100
AcDbCircle
 10
406.5
 20
314
 40
2.5
  0
ARC
  5
145
100
AcDbEntity
  8
0
  6
ByLayer
 62
  256
370
   -1
100
AcDbCircle
 10
300.5000000000001
 20
370.4999999999999
 40
3
100
AcDbArc
 50
180
 51
270
  0
ARC
  5
146
100
AcDbEntity
  8
0
  6
ByLayer
 62
  256
370
   -1
100
AcDbCircle
 10
319.5000000000001
 20
370.4999999999999
 40
3
100
AcDbArc
 50
270
 51
0
  0
LINE
  5
147
100
AcDbEntity
  8
0
  6
ByLayer
 62
  256
370
   -1
100
AcDbLine
 10
297.5000000000001
 20
370.4999999999999
 11
297.5000000000001
 21
376.4999999999999
  0
LINE
  5
148
100
AcDbEntity
  8
0
  6
ByLayer
 62
  256
370
   -1
100
AcDbLine
 10
297.5000000000001
 20
376.4999999999999
 11
303.5000000000001
 21
382.4999999999999
  0
LINE
  5
149
100
AcDbEntity
  8
0
  6
ByLayer
 62
  256
370
   -1
100
AcDbLine
 10
303.5000000000001
 20
382.4999999999999
 11
316.5000000000001
 21
382.4999999999999
  0
LINE
  5
14A
100
AcDbEntity
  8
0
  6
ByLayer
 62
  256
370
   -1
100
AcDbLine
 10
316.5000000000001
 20
382.4999999999999
 11
322.5000000000001
 21
376.4999999999999
  0
LINE
  5
14B
100
AcDbEntity
  8
0
  6
ByLayer
 62
  256
370
   -1
100
AcDbLine
 10
322.5000000000001
 20
376.4999999999999
 11
322.5000000000001
 21
370.5000046942998
  0
LINE
  5
14C
100
AcDbEntity
  8
0
  6
ByLayer
 62
  256
370
   -1
100
AcDbLine
 10
300.5000000000001
 20
367.4999999999999
 11
319.5000000000001
 21
367.4999999999999
  0
LWPOLYLINE
  5
14D
100
AcDbEntity
  8
0
  6
ByLayer
 62
  256
370
   -1
100
AcDbPolyline
 90
    4
 70
    1
 43
0
 10
301.5000000000001
 20
374.9999999999999
 10
303.5000000000001
 20
374.9999999999999
 10
303.5000000000001
 20
369.9999999999999
 10
301.5000000000001
 20
369.9999999999999
  0
LWPOLYLINE
  5
14E
100
AcDbEntity
  8
0
  6
ByLayer
 62
  256
370
   -1
100
AcDbPolyline
 90
    4
 70
    1
 43
0
 10
316.5000000000001
 20
374.9999999999999
 10
318.5000000000001
 20
374.9999999999999
 10
318.5000000000001
 20
369.9999999999999
 10
316.5000000000001
 20
369.9999999999999
  0
LWPOLYLINE
  5
14F
100
AcDbEntity
  8
0
  6
ByLayer
 62
  256
370
   -1
100
AcDbPolyline
 90
    4
 70
    1
 43
0
 10
309
 20
380
 10
311
 20
380
 10
311
 20
375
 10
309
 20
375
  0
ARC
  5
150
100
AcDbEntity
  8
0
  6
ByLayer
 62
  256
370
   -1
100
AcDbCircle
 10
299
 20
398
 40
2
100
AcDbArc
 50
180
 51
270
  0
LINE
  5
151
100
AcDbEntity
  8
0
  6
ByLayer
 62
  256
370
   -1
100
AcDbLine
 10
299
 20
396
 11
321
 21
396
  0
LINE
  5
152
100
AcDbEntity
  8
0
  6
ByLayer
 62
  256
370
   -1
100
AcDbLine
 10
297
 20
398
 11
297
 21
402
  0
ARC
  5
153
100
AcDbEntity
  8
0
  6
ByLayer
 62
  256
370
   -1
100
AcDbCircle
 10
299
 20
402
 40
2
100
AcDbArc
 50
90
 51
180
  0
ARC
  5
154
100
AcDbEntity
  8
0
  6
ByLayer
 62
  256
370
   -1
100
AcDbCircle
 10
321
 20
402
 40
2
100
AcDbArc
 50
360
 51
90
  0
LINE
  5
155
100
AcDbEntity
  8
0
  6
ByLayer
 62
  256
370
   -1
100
AcDbLine
 10
321
 20
404
 11
299
 21
404
  0
LINE
  5
156
100
AcDbEntity
  8
0
  6
ByLayer
 62
  256
370
   -1
100
AcDbLine
 10
323
 20
402
 11
323
 21
398
  0
ARC
  5
157
100
AcDbEntity
  8
0
  6
ByLayer
 62
  256
370
   -1
100
AcDbCircle
 10
321
 20
398
 40
2
100
AcDbArc
 50
270
 51
360
  0
LINE
  5
158
100
AcDbEntity
  8
0
  6
ByLayer
 62
  256
370
  100
100
AcDbLine
 10
300
 20
400
 11
305
 21
400
  0
CIRCLE
  5
159
100
AcDbEntity
  8
0
  6
ByLayer
 62
  256
370
  100
100
AcDbCircle
 10
317.5
 20
400
 40
2.5
  0
MTEXT
  5
15A
100
AcDbEntity
  8
Legend
  6
ByLayer
 62
  256
370
   -1
100
AcDbMText
 10
310
 20
430
 30
0
 40
16
 41
7.111111111111111
 71
    2
 72
    1
  1
3
  7
unicode
210
0
220
0
230
1
 50
0
 73
    2
 44
1
  0
MTEXT
  5
15B
100
AcDbEntity
  8
Legend
  6
ByLayer
 62
  256
370
   -1
100
AcDbMText
 10
400
 20
450
 30
0
 40
16
 41
7.111111111111111
 71
    2
 72
    1
  1
6
  7
unicode
210
0
220
0
230
1
 50
0
 73
    2
 44
1
  0
MTEXT
  5
15C
100
AcDbEntity
  8
Legend
  6
ByLayer
 62
  256
370
   -1
100
AcDbMText
 10
334.4444444444445
 20
386
 30
0
 40
16
 41
8.888888888888889
 71
    2
 72
    1
  1
4
  7
unicode
210
0
220
0
230
1
 50
0
 73
    2
 44
1
  0
MTEXT
  5
15D
100
AcDbEntity
  8
Legend
  6
ByLayer
 62
  256
370
   -1
100
AcDbMText
 10
223.5555555555555
 20
386
 30
0
 40
16
 41
7.111111111111111
 71
    2
 72
    1
  1
2
  7
unicode
210
0
220
0
230
1
 50
0
 73
    2
 44
1
  0
MTEXT
  5
15E
100
AcDbEntity
  8
Legend
  6
ByLayer
 62
  256
370
   -1
100
AcDbMText
 10
81.77777777777777
 20
426
 30
0
 40
16
 41
3.555555555555555
 71
    2
 72
    1
  1
1
  7
unicode
210
0
220
0
230
1
 50
0
 73
    2
 44
1
  0
MTEXT
  5
15F
100
AcDbEntity
  8
Legend
  6
ByLayer
 62
  256
370
   -1
100
AcDbMText
 10
403.5555555555555
 20
386
 30
0
 40
16
 41
7.111111111111111
 71
    2
 72
    1
  1
5
  7
unicode
210
0
220
0
230
1
 50
0
 73
    2
 44
1
  0
MTEXT
  5
160
100
AcDbEntity
  8
Legend
  6
ByLayer
 62
  256
370
   -1
100
AcDbMText
 10
473.5555555555555
 20
386
 30
0
 40
16
 41
7.111111111111111
 71
    2
 72
    1
  1
7
  7
unicode
210
0
220
0
230
1
 50
0
 73
    2
 44
1
  0
MTEXT
  5
161
100
AcDbEntity
  8
Legend
  6
ByLayer
 62
  256
370
   -1
100
AcDbMText
 10
230
 20
300
 30
0
 40
16
 41
7.111111111111111
 71
    2
 72
    1
  1
9
  7
unicode
210
0
220
0
230
1
 50
0
 73
    2
 44
1
  0
MTEXT
  5
162
100
AcDbEntity
  8
Legend
  6
ByLayer
 62
  256
370
   -1
100
AcDbMText
 10
409.1111111111111
 20
306
 30
0
 40
16
 41
16
 71
    2
 72
    1
  1
12
  7
unicode
210
0
220
0
230
1
 50
0
 73
    2
 44
1
  0
MTEXT
  5
163
100
AcDbEntity
  8
Legend
  6
ByLayer
 62
  256
370
   -1
100
AcDbMText
 10
347.3333333333333
 20
296
 30
0
 40
16
 41
12.44444444444444
 71
    2
 72
    1
  1
11
  7
unicode
210
0
220
0
230
1
 50
0
 73
    2
 44
1
  0
MTEXT
  5
164
100
AcDbEntity
  8
Legend
  6
ByLayer
 62
  256
370
   -1
100
AcDbMText
 10
349.1111111111111
 20
326
 30
0
 40
16
 41
16
 71
    2
 72
    1
  1
10
  7
unicode
210
0
220
0
230
1
 50
0
 73
    2
 44
1
  0
MTEXT
  5
165
100
AcDbEntity
  8
Legend
  6
ByLayer
 62
  256
370
   -1
100
AcDbMText
 10
59.11111111111111
 20
226
 30
0
 40
16
 41
16
 71
    2
 72
    1
  1
13
  7
unicode
210
0
220
0
230
1
 50
0
 73
    2
 44
1
  0
MTEXT
  5
166
100
AcDbEntity
  8
Legend
  6
ByLayer
 62
  256
370
   -1
100
AcDbMText
 10
73.55555555555556
 20
306
 30
0
 40
16
 41
7.111111111111111
 71
    2
 72
    1
  1
8
  7
unicode
210
0
220
0
230
1
 50
0
 73
    2
 44
1
  0
MTEXT
  5
167
100
AcDbEntity
  8
Legend
  6
ByLayer
 62
  256
370
   -1
100
AcDbMText
 10
10
 20
460
 30
0
 40
16
 41
129.3333333333333
 71
    1
 72
    1
  1
Face arrire
  7
unicode
210
0
220
0
230
1
 50
0
 73
    2
 44
1
  0
MTEXT
  5
168
100
AcDbEntity
  8
Legend
  6
ByLayer
 62
  256
370
   -1
100
AcDbMText
 10
260
 20
180
 30
0
 40
16
 41
168.4497813756162
 71
    5
 72
    1
  1
Face suprieure
  7
unicode
210
0
220
0
230
1
 50
0
 73
    2
 44
1
  0
ENDSEC
  0
SECTION
  2
OBJECTS
  0
DICTIONARY
  5
C
330
0
100
AcDbDictionary
281
    1
  3
ACAD_GROUP
350
D
  0
DICTIONARY
  5
D
330
C
100
AcDbDictionary
281
    1
  0
ENDSEC
  0
EOF
