M48
INCH,TZ
T1C0.016
T2C0.031
T3C0.039
T4C0.043
T5C0.047
T6C0.126
%
G90
G05
T1
X0.1Y-0.4
X0.1Y-1.4
X0.1Y-1.9
X0.375Y-0.7
X0.375Y-2.3
X0.4Y-1.15
X0.4Y-2.75
X0.45Y-1.15
X0.45Y-2.75
X0.5Y-3.2
X0.55Y-0.55
X0.55Y-2.15
X0.6Y-0.7
X0.6Y-2.3
X0.625Y-0.3
X0.625Y-0.625
X0.625Y-1.9
X0.625Y-2.225
X0.675Y-0.7
X0.675Y-2.3
X0.775Y-1.2
X0.775Y-1.3
X0.775Y-2.8
X0.775Y-2.9
X0.85Y-0.75
X0.85Y-1.05
X0.85Y-1.2
X0.85Y-1.3
X0.85Y-2.35
X0.85Y-2.65
X0.85Y-2.8
X0.85Y-2.9
X0.875Y-0.2
X0.875Y-1.8
X0.925Y-1.2
X0.925Y-1.3
X0.925Y-2.8
X0.925Y-2.9
X1.05Y-0.975
X1.05Y-2.575
X1.15Y-0.975
X1.15Y-2.575
X1.2Y-1.2
X1.2Y-1.3
X1.2Y-2.8
X1.2Y-2.9
X1.25Y-0.2
X1.25Y-0.7
X1.25Y-1.61
X1.25Y-1.8
X1.25Y-2.3
X1.325Y-1.2
X1.325Y-1.3
X1.325Y-2.8
X1.325Y-2.9
X1.35Y-0.975
X1.35Y-2.575
X1.45Y-1.05
X1.45Y-2.65
X1.55Y-0.325
X1.55Y-1.925
X1.575Y-0.825
X1.575Y-1.
X1.575Y-1.1
X1.575Y-2.425
X1.575Y-2.6
X1.575Y-2.7
X1.6Y-1.3
X1.6Y-2.9
X1.625Y-0.875
X1.625Y-2.475
X1.675Y-0.875
X1.675Y-2.475
X1.725Y-1.
X1.725Y-1.2
X1.725Y-2.6
X1.725Y-2.8
X1.75Y-0.325
X1.75Y-0.925
X1.75Y-1.925
X1.75Y-2.525
X1.8Y-0.05
X1.8Y-1.65
X1.925Y-0.9
X1.925Y-1.
X1.925Y-1.35
X1.925Y-2.5
X1.925Y-2.6
X1.925Y-2.95
X1.925Y-3.2
X1.975Y-0.4
X1.975Y-2.
X2.06Y-1.61
X2.06Y-1.735
X2.125Y-0.4
X2.125Y-2.
X2.175Y-0.825
X2.175Y-1.3
X2.175Y-2.425
X2.175Y-2.9
X2.325Y-0.05
X2.325Y-0.135
X2.325Y-1.65
X2.325Y-1.735
X2.375Y-0.15
X2.375Y-0.5
X2.375Y-0.65
X2.375Y-1.75
X2.375Y-2.1
X2.375Y-2.25
X2.5Y-0.625
X2.5Y-2.225
X2.525Y-0.775
X2.525Y-0.925
X2.525Y-2.375
X2.525Y-2.525
X2.575Y-0.775
X2.575Y-2.375
X2.6Y-0.15
X2.6Y-1.75
X2.625Y-0.625
X2.625Y-0.825
X2.625Y-2.225
X2.625Y-2.425
X2.7Y-0.55
X2.7Y-1.45
X2.7Y-2.15
X2.7Y-3.05
X2.775Y-1.275
X2.775Y-2.875
X2.85Y-0.35
X2.85Y-1.35
X2.85Y-1.61
X2.85Y-1.95
X2.85Y-2.95
X2.85Y-3.2
X2.9Y-0.15
X2.9Y-0.475
X2.9Y-1.
X2.9Y-1.75
X2.9Y-2.075
X2.9Y-2.6
X2.95Y-0.05
X2.95Y-0.6
X2.95Y-1.65
X2.95Y-2.2
X3.Y-0.1
X3.Y-0.2
X3.Y-1.7
X3.Y-1.8
X3.03Y-0.305
X3.03Y-1.905
X3.05Y-0.2
X3.05Y-0.475
X3.05Y-0.575
X3.05Y-0.625
X3.05Y-0.9
X3.05Y-1.8
X3.05Y-2.075
X3.05Y-2.175
X3.05Y-2.225
X3.05Y-2.5
X3.125Y-0.625
X3.125Y-2.225
X3.175Y-1.1
X3.175Y-2.7
X3.25Y-0.2
X3.25Y-0.5
X3.25Y-1.175
X3.25Y-1.35
X3.25Y-1.61
X3.25Y-1.8
X3.25Y-2.1
X3.25Y-2.775
X3.25Y-2.95
X3.325Y-0.875
X3.325Y-2.475
X3.35Y-0.975
X3.35Y-1.61
X3.35Y-2.575
X3.4Y-3.2
X3.425Y-1.45
X3.45Y-1.35
X3.45Y-1.55
X3.45Y-3.05
X3.465Y-0.71
X3.465Y-2.31
X3.475Y-0.175
X3.475Y-0.35
X3.475Y-0.45
X3.475Y-0.6
X3.475Y-1.8
X3.475Y-1.95
X3.475Y-2.05
X3.475Y-2.2
X3.5Y-0.1
X3.5Y-1.7
X3.55Y-0.05
X3.55Y-1.55
X3.55Y-1.65
X3.575Y-1.325
X3.585Y-1.8
X3.6Y-0.175
X3.625Y-0.35
X3.625Y-0.475
X3.625Y-0.7
X3.625Y-0.975
X3.625Y-1.075
X3.625Y-1.175
X3.625Y-1.95
X3.625Y-2.075
X3.625Y-2.275
X3.625Y-2.4
X3.625Y-2.575
X3.625Y-2.675
X3.625Y-2.775
X3.65Y-3.2
X3.725Y-3.175
X3.825Y-1.5
X3.85Y-0.25
X3.85Y-0.35
X3.85Y-0.55
X3.85Y-0.65
X3.85Y-0.85
X3.85Y-1.25
X3.85Y-1.35
X3.85Y-1.85
X3.85Y-1.95
X3.85Y-2.15
X3.85Y-2.25
X3.85Y-2.45
X3.85Y-2.85
X3.85Y-2.95
X3.85Y-3.175
X3.9Y-1.575
X3.9Y-3.21
X3.925Y-2.175
X3.95Y-0.575
X3.95Y-1.425
X3.95Y-1.75
X3.95Y-2.725
X3.975Y-0.05
X3.975Y-0.15
X3.975Y-1.4
X3.975Y-1.65
X3.975Y-2.225
X3.975Y-2.75
X4.Y-1.725
X4.Y-1.775
X4.025Y-1.425
X4.035Y-2.175
X4.05Y-1.
X4.05Y-1.35
X4.05Y-1.725
X4.05Y-1.775
X4.075Y-0.45
X4.075Y-0.75
X4.075Y-1.5
X4.075Y-1.575
X4.075Y-2.675
X4.075Y-2.8
X4.1Y-1.725
X4.1Y-1.775
X4.1Y-2.125
X4.1Y-2.275
X4.1Y-3.21
X4.125Y-1.35
X4.15Y-1.575
X4.15Y-1.85
X4.15Y-2.7
X4.15Y-2.75
X4.15Y-2.8
X4.175Y-2.125
X4.175Y-2.175
X4.175Y-2.225
X4.2Y-0.45
X4.2Y-0.75
X4.2Y-1.
X4.2Y-1.35
X4.225Y-1.7
X4.225Y-1.75
X4.3Y-2.375
X4.3Y-2.8
X4.325Y-0.15
X4.375Y-1.5
X4.375Y-1.7
X4.4Y-1.525
X4.4Y-3.15
X4.4Y-3.285
X4.45Y-1.825
X4.5Y-0.5
X4.5Y-0.925
X4.5Y-1.35
X4.5Y-1.6
X4.5Y-1.875
X4.6Y-2.5
X4.6Y-2.8
X4.625Y-1.5
X4.625Y-2.225
X4.65Y-1.525
X4.65Y-1.65
X4.65Y-1.85
X4.65Y-2.7
X4.725Y-2.05
X4.8Y-3.285
X4.825Y-1.6
X4.825Y-1.8
X4.825Y-1.875
X4.85Y-2.05
X4.85Y-2.2
X4.85Y-2.375
X4.85Y-2.625
X4.9Y-2.05
X4.95Y-1.75
X4.95Y-2.75
X4.95Y-2.85
X4.95Y-3.2
X5.05Y-1.35
X5.05Y-1.575
X5.05Y-1.75
X5.075Y-0.45
X5.075Y-2.525
X5.075Y-2.85
X5.075Y-3.15
X5.085Y-1.875
X5.1Y-0.175
X5.15Y-1.575
X5.15Y-1.65
X5.15Y-1.725
X5.15Y-1.8
X5.175Y-1.83
X5.2Y-1.2
X5.2Y-1.425
X5.225Y-1.525
X5.225Y-3.15
X5.275Y-2.525
X5.275Y-2.75
X5.3Y-0.1
X5.3Y-0.35
X5.3Y-0.45
X5.3Y-0.65
X5.34Y-2.525
X5.35Y-1.525
X5.4Y-1.2
X5.4Y-1.4
X5.425Y-1.45
X5.425Y-1.485
X5.425Y-1.525
X5.425Y-2.525
X5.425Y-2.75
X5.475Y-2.375
X5.5Y-0.45
X5.5Y-2.15
X5.525Y-1.55
X5.525Y-1.85
X5.525Y-2.05
X5.575Y-2.05
X5.61Y-2.05
X5.625Y-1.475
X5.625Y-1.55
X5.64Y-1.85
X5.64Y-2.04
X5.75Y-0.175
X5.75Y-0.725
X5.775Y-1.525
X5.8Y-0.45
X5.86Y-1.785
X5.86Y-1.84
X5.86Y-1.99
X5.87Y-2.055
X5.885Y-1.76
X5.885Y-1.81
X5.885Y-1.96
X5.885Y-2.015
X5.895Y-2.555
X5.9Y-0.45
X5.9Y-2.425
X5.95Y-2.775
X5.95Y-2.875
X5.97Y-2.63
X6.Y-2.325
X6.025Y-2.45
X6.05Y-1.9
X6.05Y-1.95
X6.05Y-2.
X6.05Y-2.05
X6.05Y-2.575
X6.05Y-2.725
X6.075Y-1.65
X6.075Y-2.875
X6.075Y-2.925
X6.075Y-2.975
X6.16Y-1.76
X6.16Y-1.89
X6.16Y-1.95
X6.16Y-2.015
X6.175Y-1.65
X6.175Y-2.725
X6.175Y-2.825
X6.2Y-2.275
X6.2Y-2.6
X6.225Y-2.775
X6.225Y-2.875
X6.225Y-2.925
X6.225Y-2.975
X6.225Y-3.025
X6.23Y-2.645
X6.275Y-1.55
X6.275Y-1.675
X6.275Y-2.65
X6.275Y-2.875
X6.275Y-2.925
X6.275Y-2.975
X6.275Y-3.025
X6.3Y-0.1
X6.3Y-0.8
X6.3Y-2.275
X6.315Y-1.73
X6.315Y-1.775
X6.315Y-1.89
X6.325Y-1.945
X6.325Y-2.01
X6.325Y-2.1
X6.34Y-1.805
X6.345Y-1.91
X6.345Y-1.98
X6.35Y-2.75
X6.395Y-2.035
X6.425Y-2.5
X6.525Y-1.575
X6.525Y-1.625
X6.525Y-1.685
X6.525Y-1.85
X6.525Y-2.15
X6.55Y-1.55
X6.55Y-1.6
X6.7Y-0.55
T2
X0.3Y-0.4
X0.3Y-2.
X0.7Y-0.9
X0.7Y-1.2
X0.7Y-1.3
X0.7Y-2.5
X0.7Y-2.8
X0.7Y-2.9
X0.75Y-1.05
X0.75Y-2.65
X0.8Y-0.3
X0.8Y-0.65
X0.8Y-1.9
X0.8Y-2.25
X0.9378Y-0.3
X0.9378Y-0.65
X0.9378Y-1.9
X0.9378Y-2.25
X0.95Y-1.05
X0.95Y-2.65
X1.Y-0.9
X1.Y-1.2
X1.Y-1.3
X1.Y-2.5
X1.Y-2.8
X1.Y-2.9
X1.1Y-0.2
X1.1Y-0.3
X1.1Y-0.4
X1.1Y-0.5
X1.1Y-0.9
X1.1Y-1.2
X1.1Y-1.3
X1.1Y-1.8
X1.1Y-1.9
X1.1Y-2.
X1.1Y-2.1
X1.1Y-2.5
X1.1Y-2.8
X1.1Y-2.9
X1.15Y-0.6
X1.15Y-0.7969
X1.15Y-1.05
X1.15Y-2.2
X1.15Y-2.3969
X1.15Y-2.65
X1.35Y-0.6031
X1.35Y-0.8
X1.35Y-1.05
X1.35Y-2.2031
X1.35Y-2.4
X1.35Y-2.65
X1.4Y-0.2
X1.4Y-0.3
X1.4Y-0.4
X1.4Y-0.5
X1.4Y-0.9
X1.4Y-1.2
X1.4Y-1.3
X1.4Y-1.8
X1.4Y-1.9
X1.4Y-2.
X1.4Y-2.1
X1.4Y-2.5
X1.4Y-2.8
X1.4Y-2.9
X1.5Y-0.2
X1.5Y-0.4
X1.5Y-0.5
X1.5Y-0.6
X1.5Y-0.7
X1.5Y-0.8
X1.5Y-0.9
X1.5Y-1.
X1.5Y-1.1
X1.5Y-1.2
X1.5Y-1.8
X1.5Y-2.
X1.5Y-2.1
X1.5Y-2.2
X1.5Y-2.3
X1.5Y-2.4
X1.5Y-2.5
X1.5Y-2.6
X1.5Y-2.7
X1.5Y-2.8
X1.5984Y-0.2
X1.5984Y-1.8
X1.7Y-0.2
X1.7Y-1.8
X1.7984Y-0.2
X1.7984Y-1.8
X1.8Y-0.4
X1.8Y-0.5
X1.8Y-0.6
X1.8Y-0.7
X1.8Y-0.8
X1.8Y-0.9
X1.8Y-1.
X1.8Y-1.1
X1.8Y-1.2
X1.8Y-2.
X1.8Y-2.1
X1.8Y-2.2
X1.8Y-2.3
X1.8Y-2.4
X1.8Y-2.5
X1.8Y-2.6
X1.8Y-2.7
X1.8Y-2.8
X1.9Y-0.4
X1.9Y-0.5
X1.9Y-0.6
X1.9Y-0.7
X1.9Y-2.
X1.9Y-2.1
X1.9Y-2.2
X1.9Y-2.3
X1.9213Y-0.2
X1.9213Y-1.8
X2.Y-0.2
X2.Y-1.3
X2.Y-1.8
X2.Y-2.9
X2.1Y-1.375
X2.1Y-2.975
X2.1213Y-0.2
X2.1213Y-1.8
X2.2Y-0.2
X2.2Y-0.4
X2.2Y-0.5
X2.2Y-0.6
X2.2Y-0.7
X2.2Y-1.8
X2.2Y-2.
X2.2Y-2.1
X2.2Y-2.2
X2.2Y-2.3
X2.4Y-0.2
X2.4Y-0.3
X2.4Y-0.4
X2.4Y-0.7
X2.4Y-0.8
X2.4Y-0.9
X2.4Y-1.
X2.4Y-1.1
X2.4Y-1.2
X2.4Y-1.3
X2.4Y-1.8
X2.4Y-1.9
X2.4Y-2.
X2.4Y-2.3
X2.4Y-2.4
X2.4Y-2.5
X2.4Y-2.6
X2.4Y-2.7
X2.4Y-2.8
X2.4Y-2.9
X2.5Y-0.4
X2.5Y-0.7
X2.5Y-2.
X2.5Y-2.3
X2.5016Y-0.55
X2.5016Y-2.15
X2.6Y-0.4
X2.6Y-0.55
X2.6Y-0.7
X2.6Y-1.375
X2.6Y-2.
X2.6Y-2.15
X2.6Y-2.3
X2.6Y-2.975
X2.7Y-0.2
X2.7Y-0.3
X2.7Y-0.4
X2.7Y-0.7
X2.7Y-0.8
X2.7Y-0.9
X2.7Y-1.
X2.7Y-1.1
X2.7Y-1.2
X2.7Y-1.3
X2.7Y-1.8
X2.7Y-1.9
X2.7Y-2.
X2.7Y-2.3
X2.7Y-2.4
X2.7Y-2.5
X2.7Y-2.6
X2.7Y-2.7
X2.7Y-2.8
X2.7Y-2.9
X2.8Y-0.2
X2.8Y-0.4
X2.8Y-0.7
X2.8Y-1.8
X2.8Y-2.
X2.8Y-2.3
X2.9Y-0.3
X2.9Y-0.4
X2.9Y-0.7
X2.9Y-0.8
X2.9Y-0.9
X2.9Y-1.1
X2.9Y-1.2378
X2.9Y-1.9
X2.9Y-2.
X2.9Y-2.3
X2.9Y-2.4
X2.9Y-2.5
X2.9Y-2.7
X2.9Y-2.8378
X3.Y-0.4
X3.Y-0.7
X3.Y-2.
X3.Y-2.3
X3.0016Y-0.55
X3.0016Y-2.15
X3.1Y-0.4
X3.1Y-0.55
X3.1Y-0.7
X3.1Y-1.4
X3.1Y-1.5
X3.1Y-2.
X3.1Y-2.15
X3.1Y-2.3
X3.1Y-3.
X3.1Y-3.1
X3.2Y-0.3
X3.2Y-0.4
X3.2Y-0.7
X3.2Y-0.8
X3.2Y-0.9
X3.2Y-1.9
X3.2Y-2.
X3.2Y-2.3
X3.2Y-2.4
X3.2Y-2.5
X3.25Y-1.1
X3.25Y-1.2378
X3.25Y-2.7
X3.25Y-2.8378
X3.3Y-0.4
X3.3Y-0.7
X3.3Y-2.
X3.3Y-2.3
X3.4Y-0.2
X3.4Y-0.3
X3.4Y-0.4
X3.4Y-0.5
X3.4Y-0.6
X3.4Y-0.7
X3.4Y-0.8
X3.4Y-0.9
X3.4Y-1.4
X3.4Y-1.5
X3.4Y-1.8
X3.4Y-1.9
X3.4Y-2.
X3.4Y-2.1
X3.4Y-2.2
X3.4Y-2.3
X3.4Y-2.4
X3.4Y-2.5
X3.4Y-3.
X3.4Y-3.1
X3.5Y-1.
X3.5Y-1.1
X3.5Y-1.2
X3.5Y-1.3
X3.5Y-1.4
X3.5Y-1.5969
X3.5Y-2.6
X3.5Y-2.7
X3.5Y-2.8
X3.5Y-2.9
X3.5Y-3.
X3.5Y-3.1969
X3.55Y-0.7016
X3.55Y-0.8
X3.55Y-2.3016
X3.55Y-2.4
X3.6Y-1.4
X3.6Y-1.5
X3.6Y-3.
X3.6Y-3.1
X3.7Y-0.2
X3.7Y-0.3
X3.7Y-0.4
X3.7Y-0.5
X3.7Y-0.6
X3.7Y-0.7
X3.7Y-0.8
X3.7Y-0.9
X3.7Y-1.8
X3.7Y-1.9
X3.7Y-2.
X3.7Y-2.1
X3.7Y-2.2
X3.7Y-2.3
X3.7Y-2.4
X3.7Y-2.5
X3.8Y-0.2
X3.8Y-0.5
X3.8Y-0.6
X3.8Y-0.9
X3.8Y-1.
X3.8Y-1.1
X3.8Y-1.2
X3.8Y-1.3
X3.8Y-1.8
X3.8Y-2.1
X3.8Y-2.2
X3.8Y-2.5
X3.8Y-2.6
X3.8Y-2.7
X3.8Y-2.8
X3.8Y-2.9
X3.9Y-0.2031
X3.9Y-0.4
X3.9Y-0.5
X3.9Y-0.6969
X3.9Y-0.8031
X3.9Y-1.
X3.9Y-1.1031
X3.9Y-1.3
X3.9Y-1.4
X3.9Y-1.5
X3.9Y-1.8031
X3.9Y-2.
X3.9Y-2.1
X3.9Y-2.2969
X3.9Y-2.4031
X3.9Y-2.6
X3.9Y-2.7031
X3.9Y-2.9
X3.9Y-3.
X3.9Y-3.1
X4.175Y-1.4
X4.175Y-1.5
X4.2Y-1.6
X4.2Y-1.9
X4.2Y-2.
X4.2Y-2.3
X4.2Y-2.45
X4.2Y-2.55
X4.2Y-2.65
X4.2Y-2.95
X4.2Y-3.05
X4.2Y-3.15
X4.3Y-2.
X4.3Y-2.3
X4.3Y-2.65
X4.3Y-2.95
X4.35Y-2.7516
X4.35Y-2.85
X4.4Y-1.3
X4.4Y-1.6
X4.4Y-2.
X4.4Y-2.3
X4.4Y-2.65
X4.4Y-2.95
X4.4031Y-0.7
X4.4031Y-0.85
X4.4031Y-1.
X4.4031Y-1.15
X4.4031Y-1.45
X4.4031Y-1.75
X4.5Y-2.
X4.5Y-2.3
X4.5Y-2.45
X4.5Y-2.55
X4.5Y-2.65
X4.5Y-2.95
X4.5Y-3.05
X4.5Y-3.15
X4.5969Y-1.3
X4.5969Y-1.6
X4.6Y-0.7
X4.6Y-0.85
X4.6Y-1.
X4.6Y-1.15
X4.6Y-1.45
X4.6Y-1.75
X4.6Y-2.
X4.6Y-2.3
X4.7Y-0.7
X4.7Y-0.8
X4.7Y-0.9
X4.7Y-1.
X4.7Y-1.1
X4.7Y-1.2
X4.7Y-1.3
X4.7Y-1.4
X4.7Y-1.5
X4.7Y-1.6
X4.7Y-1.7
X4.7Y-1.8
X4.7Y-2.
X4.7Y-2.1
X4.7Y-2.2
X4.7Y-2.3
X4.7Y-2.45
X4.7Y-2.55
X4.7Y-2.65
X4.7Y-2.95
X4.7Y-3.05
X4.7Y-3.15
X4.8Y-2.65
X4.8Y-2.95
X4.8016Y-2.15
X4.85Y-2.7516
X4.85Y-2.85
X4.9Y-2.15
X4.9Y-2.65
X4.9Y-2.95
X5.Y-0.7
X5.Y-0.8
X5.Y-0.9
X5.Y-1.
X5.Y-1.1
X5.Y-1.2
X5.Y-1.3
X5.Y-1.4
X5.Y-1.5
X5.Y-1.6
X5.Y-1.7
X5.Y-1.8
X5.Y-2.
X5.Y-2.1
X5.Y-2.2
X5.Y-2.3
X5.Y-2.45
X5.Y-2.55
X5.Y-2.65
X5.Y-2.95
X5.Y-3.05
X5.Y-3.15
X5.2Y-0.15
X5.2Y-0.25
X5.2Y-0.35
X5.2Y-0.45
X5.2Y-0.55
X5.2Y-0.65
X5.2Y-1.05
X5.2Y-1.35
X5.225Y-0.75
X5.225Y-0.85
X5.225Y-0.95
X5.3Y-1.05
X5.3Y-1.35
X5.375Y-0.875
X5.5Y-0.1622
X5.5Y-0.3
X5.5Y-0.5622
X5.5Y-0.7
X5.5Y-1.4
X5.5Y-1.8
X5.5Y-2.225
X5.6Y-1.6
X5.6Y-1.6984
X5.6Y-1.8
X5.6Y-1.8984
X5.675Y-0.875
X5.7Y-1.3
X5.7Y-2.3516
X5.7Y-2.45
X5.7016Y-1.75
X5.7016Y-1.85
X5.7016Y-1.95
X5.75Y-0.1
X5.75Y-0.4
X5.75Y-0.5
X5.75Y-0.8
X5.75Y-2.1
X5.75Y-2.1984
X5.75Y-2.6
X5.75Y-2.7
X5.75Y-2.8
X5.75Y-2.9
X5.75Y-3.2
X5.7984Y-1.3
X5.8Y-1.75
X5.8Y-1.85
X5.8Y-1.95
X5.85Y-0.1
X5.85Y-0.4
X5.85Y-0.5
X5.85Y-0.8
X5.85Y-2.5
X5.875Y-2.7
X5.875Y-3.
X5.9Y-1.5213
X5.9Y-1.6
X5.9016Y-1.3
X5.975Y-3.1
X5.975Y-3.1984
X6.Y-1.3
X6.025Y-2.775
X6.0469Y-2.5
X6.075Y-2.225
X6.1Y-0.1622
X6.1Y-0.3
X6.1Y-0.5622
X6.1Y-0.7
X6.125Y-1.5213
X6.125Y-1.6
X6.125Y-2.775
X6.15Y-2.35
X6.15Y-2.4287
X6.15Y-2.55
X6.1579Y-3.2
X6.2484Y-2.55
X6.3Y-0.4016
X6.3Y-0.5
X6.3Y-0.6016
X6.3Y-0.7
X6.35Y-2.35
X6.35Y-2.45
X6.35Y-2.55
X6.35Y-3.2
X6.375Y-2.225
X6.4Y-0.925
X6.4Y-1.5516
X6.4Y-1.65
X6.4Y-1.8
X6.4Y-1.9
X6.45Y-2.05
X6.45Y-2.1484
X6.45Y-2.65
X6.45Y-2.7484
X6.4984Y-0.925
X6.4984Y-1.8
X6.4984Y-1.9
X6.5Y-2.8516
X6.5Y-2.95
X6.5713Y-2.7
X6.6Y-2.8516
X6.6Y-2.95
X6.65Y-2.7
T3
X0.2Y-0.4
X0.2Y-0.5
X0.2Y-0.6
X0.2Y-0.7
X0.2Y-0.8
X0.2Y-0.9
X0.2Y-1.
X0.2Y-1.1
X0.2Y-1.2
X0.2Y-1.3
X0.2Y-2.
X0.2Y-2.1
X0.2Y-2.2
X0.2Y-2.3
X0.2Y-2.4
X0.2Y-2.5
X0.2Y-2.6
X0.2Y-2.7
X0.2Y-2.8
X0.2Y-2.9
X0.3Y-0.5
X0.3Y-0.6
X0.3Y-0.7
X0.3Y-0.8
X0.3Y-0.9
X0.3Y-1.
X0.3Y-1.1
X0.3Y-1.2
X0.3Y-1.3
X0.3Y-2.1
X0.3Y-2.2
X0.3Y-2.3
X0.3Y-2.4
X0.3Y-2.5
X0.3Y-2.6
X0.3Y-2.7
X0.3Y-2.8
X0.3Y-2.9
X2.1Y-0.9031
X2.1Y-1.1
X2.1Y-2.5031
X2.1Y-2.7
X4.4Y-0.175
X4.4Y-0.275
X4.5Y-0.175
X4.5Y-0.275
X4.6Y-0.175
X4.6Y-0.275
X4.7Y-0.175
X4.7Y-0.275
X4.8Y-0.175
X4.8Y-0.275
X5.2531Y-1.6
X5.2531Y-2.025
X5.2531Y-2.45
X5.2531Y-2.875
X5.45Y-1.6
X5.45Y-2.025
X5.45Y-2.45
X5.45Y-2.875
X5.7Y-1.45
X5.7Y-1.55
X5.7Y-1.65
X5.75Y-1.1
X5.85Y-1.1
X5.95Y-1.1
X6.6Y-1.4
X6.65Y-1.6
X6.65Y-1.7
X6.65Y-1.8
X6.65Y-1.9
X6.65Y-2.
X6.65Y-2.1
X6.65Y-2.2
X6.65Y-2.3
X6.65Y-2.4
X6.65Y-2.5
X6.7Y-1.4
T4
X6.05Y-2.65
X6.3Y-1.05
X6.3Y-1.35
X6.35Y-2.65
T5
X6.6Y-0.5
X6.6Y-0.6
X6.6Y-0.7
T6
X0.1575Y-0.1575
X0.1575Y-3.189
X6.6535Y-0.1575
X6.6535Y-3.189
T0
M30
