G04 #@! TF.FileFunction,Soldermask,Bot*
%FSLAX46Y46*%
G04 Gerber Fmt 4.6, Leading zero omitted, Abs format (unit mm)*
G04 Created by KiCad (PCBNEW 4.0.6) date 11/03/19 12:25:45*
%MOMM*%
%LPD*%
G01*
G04 APERTURE LIST*
%ADD10C,0.100000*%
%ADD11C,2.000000*%
%ADD12O,2.000000X2.000000*%
%ADD13R,2.100000X2.100000*%
%ADD14O,2.100000X2.100000*%
%ADD15C,6.800000*%
%ADD16R,2.400000X2.400000*%
%ADD17C,2.400000*%
%ADD18R,2.600000X2.600000*%
%ADD19O,2.600000X2.600000*%
%ADD20R,2.000000X2.000000*%
%ADD21R,2.200000X2.200000*%
%ADD22O,2.200000X2.200000*%
%ADD23C,1.920000*%
%ADD24R,1.920000X1.920000*%
%ADD25R,3.000000X2.400000*%
%ADD26O,3.000000X2.400000*%
%ADD27C,1.900000*%
G04 APERTURE END LIST*
D10*
D11*
X71120000Y-10160000D03*
D12*
X71120000Y-17780000D03*
D13*
X168910000Y-40640000D03*
D14*
X168910000Y-43180000D03*
X168910000Y-45720000D03*
X168910000Y-48260000D03*
X168910000Y-50800000D03*
X168910000Y-53340000D03*
X168910000Y-55880000D03*
X168910000Y-58420000D03*
X168910000Y-60960000D03*
X168910000Y-63500000D03*
D15*
X169000000Y-81000000D03*
X169000000Y-4000000D03*
X4000000Y-4000000D03*
D13*
X5080000Y-25400000D03*
D14*
X7620000Y-25400000D03*
X5080000Y-27940000D03*
X7620000Y-27940000D03*
X5080000Y-30480000D03*
X7620000Y-30480000D03*
D16*
X138430000Y-40640000D03*
D17*
X133430000Y-40640000D03*
D18*
X160020000Y-26670000D03*
D19*
X160020000Y-34290000D03*
D11*
X29210000Y-15240000D03*
X29210000Y-20240000D03*
X144780000Y-33020000D03*
X147280000Y-33020000D03*
D20*
X162560000Y-23495000D03*
D11*
X165060000Y-23495000D03*
X152400000Y-33020000D03*
X149900000Y-33020000D03*
D20*
X154940000Y-17780000D03*
D11*
X154940000Y-14280000D03*
D20*
X154940000Y-7620000D03*
D11*
X154940000Y-4120000D03*
X160020000Y-17780000D03*
X160020000Y-15280000D03*
X160020000Y-12700000D03*
X160020000Y-10200000D03*
D20*
X139700000Y-17780000D03*
D11*
X139700000Y-14280000D03*
D20*
X139700000Y-7620000D03*
D11*
X139700000Y-4120000D03*
D20*
X168910000Y-68580000D03*
D11*
X166910000Y-68580000D03*
X163830000Y-67310000D03*
X163830000Y-69810000D03*
X156210000Y-64770000D03*
X158710000Y-64770000D03*
D20*
X156210000Y-59690000D03*
D11*
X156210000Y-61690000D03*
D20*
X20320000Y-7620000D03*
D11*
X23820000Y-7620000D03*
D20*
X20320000Y-16510000D03*
D11*
X23820000Y-16510000D03*
X34290000Y-20320000D03*
X34290000Y-15320000D03*
D20*
X50800000Y-5080000D03*
D11*
X48800000Y-5080000D03*
D20*
X55880000Y-5080000D03*
D11*
X53880000Y-5080000D03*
X66040000Y-13970000D03*
X63540000Y-13970000D03*
D20*
X73660000Y-27940000D03*
D11*
X73660000Y-31440000D03*
D20*
X82550000Y-27940000D03*
D11*
X82550000Y-31440000D03*
X78740000Y-13970000D03*
X76240000Y-13970000D03*
X90170000Y-20320000D03*
X90170000Y-17820000D03*
D20*
X20320000Y-48260000D03*
D11*
X23820000Y-48260000D03*
D20*
X20320000Y-57150000D03*
D11*
X23820000Y-57150000D03*
X29210000Y-55880000D03*
X29210000Y-60880000D03*
X34290000Y-60960000D03*
X34290000Y-55960000D03*
D20*
X50800000Y-45720000D03*
D11*
X48800000Y-45720000D03*
D20*
X55880000Y-45720000D03*
D11*
X53880000Y-45720000D03*
X66040000Y-54610000D03*
X63540000Y-54610000D03*
D20*
X73660000Y-68580000D03*
D11*
X73660000Y-72080000D03*
D20*
X82550000Y-68580000D03*
D11*
X82550000Y-72080000D03*
X78740000Y-54610000D03*
X76240000Y-54610000D03*
X90170000Y-60960000D03*
X90170000Y-58460000D03*
X165100000Y-74930000D03*
X165100000Y-72430000D03*
X167640000Y-74930000D03*
X167640000Y-72430000D03*
X151765000Y-78740000D03*
X151765000Y-81240000D03*
D20*
X163830000Y-52070000D03*
D11*
X163830000Y-54570000D03*
X162560000Y-48260000D03*
X165060000Y-48260000D03*
D20*
X162560000Y-41910000D03*
D11*
X162560000Y-39410000D03*
X162560000Y-45720000D03*
X165060000Y-45720000D03*
D20*
X155575000Y-40640000D03*
D11*
X155575000Y-38640000D03*
X147320000Y-46990000D03*
X144820000Y-46990000D03*
D20*
X149860000Y-40640000D03*
D11*
X149860000Y-38640000D03*
X147320000Y-44450000D03*
X144820000Y-44450000D03*
D20*
X146050000Y-53340000D03*
D11*
X146050000Y-55840000D03*
X147320000Y-49530000D03*
X144820000Y-49530000D03*
D16*
X138430000Y-51435000D03*
D17*
X133430000Y-51435000D03*
D11*
X124460000Y-54610000D03*
X121960000Y-54610000D03*
X123190000Y-72390000D03*
X123190000Y-69890000D03*
X110490000Y-72390000D03*
X110490000Y-69890000D03*
D16*
X138430000Y-62230000D03*
D17*
X133430000Y-62230000D03*
D16*
X138430000Y-73025000D03*
D17*
X133430000Y-73025000D03*
D18*
X161290000Y-67310000D03*
D19*
X153670000Y-67310000D03*
D20*
X27940000Y-30480000D03*
D12*
X35560000Y-30480000D03*
D20*
X27940000Y-33020000D03*
D12*
X35560000Y-33020000D03*
D20*
X17780000Y-30480000D03*
D12*
X25400000Y-30480000D03*
D20*
X17780000Y-33020000D03*
D12*
X25400000Y-33020000D03*
D20*
X91440000Y-35560000D03*
D12*
X99060000Y-35560000D03*
D20*
X91440000Y-38100000D03*
D12*
X99060000Y-38100000D03*
D20*
X78740000Y-35560000D03*
D12*
X86360000Y-35560000D03*
D20*
X78740000Y-38100000D03*
D12*
X86360000Y-38100000D03*
D20*
X68580000Y-30480000D03*
D12*
X60960000Y-30480000D03*
D20*
X68580000Y-33020000D03*
D12*
X60960000Y-33020000D03*
D20*
X60960000Y-27940000D03*
D12*
X68580000Y-27940000D03*
D20*
X60960000Y-25400000D03*
D12*
X68580000Y-25400000D03*
D20*
X27940000Y-71120000D03*
D12*
X35560000Y-71120000D03*
D20*
X27940000Y-73660000D03*
D12*
X35560000Y-73660000D03*
D20*
X17780000Y-71120000D03*
D12*
X25400000Y-71120000D03*
D20*
X17780000Y-73660000D03*
D12*
X25400000Y-73660000D03*
D20*
X91440000Y-76200000D03*
D12*
X99060000Y-76200000D03*
D20*
X91440000Y-78740000D03*
D12*
X99060000Y-78740000D03*
D20*
X78740000Y-76200000D03*
D12*
X86360000Y-76200000D03*
D20*
X78740000Y-78740000D03*
D12*
X86360000Y-78740000D03*
D20*
X68580000Y-71120000D03*
D12*
X60960000Y-71120000D03*
D20*
X68580000Y-73660000D03*
D12*
X60960000Y-73660000D03*
D20*
X60960000Y-68580000D03*
D12*
X68580000Y-68580000D03*
D20*
X60960000Y-66040000D03*
D12*
X68580000Y-66040000D03*
D21*
X146050000Y-27940000D03*
D22*
X148590000Y-27940000D03*
X151130000Y-27940000D03*
D23*
X161290000Y-62230000D03*
X161290000Y-64770000D03*
D24*
X161290000Y-59690000D03*
D20*
X45720000Y-27940000D03*
D12*
X38100000Y-10160000D03*
X45720000Y-25400000D03*
X38100000Y-12700000D03*
X45720000Y-22860000D03*
X38100000Y-15240000D03*
X45720000Y-20320000D03*
X38100000Y-17780000D03*
X45720000Y-17780000D03*
X38100000Y-20320000D03*
X45720000Y-15240000D03*
X38100000Y-22860000D03*
X45720000Y-12700000D03*
X38100000Y-25400000D03*
X45720000Y-10160000D03*
X38100000Y-27940000D03*
D20*
X68580000Y-10160000D03*
D12*
X60960000Y-17780000D03*
X66040000Y-10160000D03*
X63500000Y-17780000D03*
X63500000Y-10160000D03*
X66040000Y-17780000D03*
X60960000Y-10160000D03*
X68580000Y-17780000D03*
D20*
X81280000Y-10160000D03*
D12*
X73660000Y-17780000D03*
X78740000Y-10160000D03*
X76200000Y-17780000D03*
X76200000Y-10160000D03*
X78740000Y-17780000D03*
X73660000Y-10160000D03*
X81280000Y-17780000D03*
D20*
X93980000Y-22860000D03*
D12*
X86360000Y-15240000D03*
X93980000Y-20320000D03*
X86360000Y-17780000D03*
X93980000Y-17780000D03*
X86360000Y-20320000D03*
X93980000Y-15240000D03*
X86360000Y-22860000D03*
D20*
X45720000Y-68580000D03*
D12*
X38100000Y-50800000D03*
X45720000Y-66040000D03*
X38100000Y-53340000D03*
X45720000Y-63500000D03*
X38100000Y-55880000D03*
X45720000Y-60960000D03*
X38100000Y-58420000D03*
X45720000Y-58420000D03*
X38100000Y-60960000D03*
X45720000Y-55880000D03*
X38100000Y-63500000D03*
X45720000Y-53340000D03*
X38100000Y-66040000D03*
X45720000Y-50800000D03*
X38100000Y-68580000D03*
D20*
X68580000Y-50800000D03*
D12*
X60960000Y-58420000D03*
X66040000Y-50800000D03*
X63500000Y-58420000D03*
X63500000Y-50800000D03*
X66040000Y-58420000D03*
X60960000Y-50800000D03*
X68580000Y-58420000D03*
D20*
X81280000Y-50800000D03*
D12*
X73660000Y-58420000D03*
X78740000Y-50800000D03*
X76200000Y-58420000D03*
X76200000Y-50800000D03*
X78740000Y-58420000D03*
X73660000Y-50800000D03*
X81280000Y-58420000D03*
D20*
X93980000Y-63500000D03*
D12*
X86360000Y-55880000D03*
X93980000Y-60960000D03*
X86360000Y-58420000D03*
X93980000Y-58420000D03*
X86360000Y-60960000D03*
X93980000Y-55880000D03*
X86360000Y-63500000D03*
D20*
X127000000Y-58420000D03*
D12*
X119380000Y-50800000D03*
X127000000Y-55880000D03*
X119380000Y-53340000D03*
X127000000Y-53340000D03*
X119380000Y-55880000D03*
X127000000Y-50800000D03*
X119380000Y-58420000D03*
D20*
X119380000Y-74930000D03*
D12*
X127000000Y-67310000D03*
X121920000Y-74930000D03*
X124460000Y-67310000D03*
X124460000Y-74930000D03*
X121920000Y-67310000D03*
X127000000Y-74930000D03*
X119380000Y-67310000D03*
D20*
X106680000Y-74930000D03*
D12*
X114300000Y-67310000D03*
X109220000Y-74930000D03*
X111760000Y-67310000D03*
X111760000Y-74930000D03*
X109220000Y-67310000D03*
X114300000Y-74930000D03*
X106680000Y-67310000D03*
D11*
X24130000Y-26670000D03*
D12*
X19050000Y-26670000D03*
D11*
X29210000Y-26670000D03*
D12*
X34290000Y-26670000D03*
D11*
X24130000Y-67310000D03*
D12*
X19050000Y-67310000D03*
D11*
X29210000Y-67310000D03*
D12*
X34290000Y-67310000D03*
D25*
X167640000Y-17780000D03*
D26*
X167640000Y-15240000D03*
X167640000Y-12700000D03*
D13*
X5080000Y-10160000D03*
D14*
X5080000Y-12700000D03*
X5080000Y-15240000D03*
D13*
X5080000Y-50800000D03*
D14*
X5080000Y-53340000D03*
X5080000Y-55880000D03*
D13*
X5080000Y-17780000D03*
D14*
X7620000Y-17780000D03*
X5080000Y-20320000D03*
X7620000Y-20320000D03*
X5080000Y-22860000D03*
X7620000Y-22860000D03*
D13*
X5080000Y-58420000D03*
D14*
X7620000Y-58420000D03*
X5080000Y-60960000D03*
X7620000Y-60960000D03*
X5080000Y-63500000D03*
X7620000Y-63500000D03*
D13*
X7620000Y-12700000D03*
D14*
X7620000Y-15240000D03*
D13*
X7620000Y-53340000D03*
D14*
X7620000Y-55880000D03*
D13*
X5080000Y-33020000D03*
D14*
X7620000Y-33020000D03*
D13*
X5080000Y-73660000D03*
D14*
X7620000Y-73660000D03*
D13*
X121920000Y-4445000D03*
D14*
X119380000Y-4445000D03*
D13*
X121920000Y-6985000D03*
D14*
X119380000Y-6985000D03*
D13*
X116840000Y-4445000D03*
D14*
X114300000Y-4445000D03*
X111760000Y-4445000D03*
D13*
X116840000Y-6985000D03*
D14*
X114300000Y-6985000D03*
X111760000Y-6985000D03*
D23*
X132080000Y-13970000D03*
X132080000Y-11430000D03*
D24*
X132080000Y-16510000D03*
D23*
X132080000Y-6350000D03*
X132080000Y-8890000D03*
D24*
X132080000Y-3810000D03*
D23*
X146050000Y-68580000D03*
X146050000Y-66040000D03*
D24*
X146050000Y-71120000D03*
D11*
X148590000Y-20320000D03*
D12*
X148590000Y-12700000D03*
D11*
X148590000Y-2540000D03*
D12*
X148590000Y-10160000D03*
D11*
X146050000Y-12700000D03*
D12*
X146050000Y-20320000D03*
D11*
X146050000Y-10160000D03*
D12*
X146050000Y-2540000D03*
D11*
X27940000Y-5080000D03*
D12*
X35560000Y-5080000D03*
D11*
X35560000Y-7620000D03*
D12*
X27940000Y-7620000D03*
D11*
X35560000Y-10160000D03*
D12*
X27940000Y-10160000D03*
D11*
X35560000Y-12700000D03*
D12*
X27940000Y-12700000D03*
D11*
X25400000Y-22860000D03*
D12*
X17780000Y-22860000D03*
D11*
X27940000Y-22860000D03*
D12*
X35560000Y-22860000D03*
D11*
X45720000Y-30480000D03*
D12*
X38100000Y-30480000D03*
D11*
X48260000Y-10160000D03*
D12*
X55880000Y-10160000D03*
D11*
X48260000Y-17780000D03*
D12*
X55880000Y-17780000D03*
D11*
X55880000Y-12700000D03*
D12*
X48260000Y-12700000D03*
D11*
X48260000Y-15240000D03*
D12*
X55880000Y-15240000D03*
D11*
X68580000Y-5080000D03*
D12*
X60960000Y-5080000D03*
D11*
X68580000Y-7620000D03*
D12*
X60960000Y-7620000D03*
D11*
X68580000Y-22860000D03*
D12*
X60960000Y-22860000D03*
D11*
X68580000Y-20320000D03*
D12*
X60960000Y-20320000D03*
D11*
X73660000Y-22860000D03*
D12*
X81280000Y-22860000D03*
D11*
X73660000Y-7620000D03*
D12*
X81280000Y-7620000D03*
D11*
X83820000Y-10160000D03*
D12*
X83820000Y-17780000D03*
D11*
X81280000Y-20320000D03*
D12*
X73660000Y-20320000D03*
D11*
X93980000Y-7620000D03*
D12*
X86360000Y-7620000D03*
D11*
X93980000Y-5080000D03*
D12*
X86360000Y-5080000D03*
D11*
X93980000Y-10160000D03*
D12*
X86360000Y-10160000D03*
D11*
X93980000Y-12700000D03*
D12*
X86360000Y-12700000D03*
D11*
X96520000Y-15240000D03*
D12*
X96520000Y-22860000D03*
D11*
X96520000Y-12700000D03*
D12*
X96520000Y-5080000D03*
D11*
X88900000Y-25400000D03*
D12*
X96520000Y-25400000D03*
D11*
X88900000Y-33020000D03*
D12*
X96520000Y-33020000D03*
D11*
X88900000Y-27940000D03*
D12*
X96520000Y-27940000D03*
D11*
X88900000Y-30480000D03*
D12*
X96520000Y-30480000D03*
D11*
X27940000Y-45720000D03*
D12*
X35560000Y-45720000D03*
D11*
X35560000Y-48260000D03*
D12*
X27940000Y-48260000D03*
D11*
X35560000Y-50800000D03*
D12*
X27940000Y-50800000D03*
D11*
X35560000Y-53340000D03*
D12*
X27940000Y-53340000D03*
D11*
X25400000Y-63500000D03*
D12*
X17780000Y-63500000D03*
D11*
X27940000Y-63500000D03*
D12*
X35560000Y-63500000D03*
D11*
X45720000Y-71120000D03*
D12*
X38100000Y-71120000D03*
D11*
X48260000Y-50800000D03*
D12*
X55880000Y-50800000D03*
D11*
X48260000Y-58420000D03*
D12*
X55880000Y-58420000D03*
D11*
X55880000Y-53340000D03*
D12*
X48260000Y-53340000D03*
D11*
X48260000Y-55880000D03*
D12*
X55880000Y-55880000D03*
D11*
X68580000Y-45720000D03*
D12*
X60960000Y-45720000D03*
D11*
X68580000Y-48260000D03*
D12*
X60960000Y-48260000D03*
D11*
X68580000Y-63500000D03*
D12*
X60960000Y-63500000D03*
D11*
X68580000Y-60960000D03*
D12*
X60960000Y-60960000D03*
D11*
X73660000Y-63500000D03*
D12*
X81280000Y-63500000D03*
D11*
X73660000Y-48260000D03*
D12*
X81280000Y-48260000D03*
D11*
X71120000Y-50800000D03*
D12*
X71120000Y-58420000D03*
D11*
X83820000Y-50800000D03*
D12*
X83820000Y-58420000D03*
D11*
X81280000Y-60960000D03*
D12*
X73660000Y-60960000D03*
D11*
X93980000Y-48260000D03*
D12*
X86360000Y-48260000D03*
D11*
X93980000Y-45720000D03*
D12*
X86360000Y-45720000D03*
D11*
X93980000Y-50800000D03*
D12*
X86360000Y-50800000D03*
D11*
X93980000Y-53340000D03*
D12*
X86360000Y-53340000D03*
D11*
X96520000Y-55880000D03*
D12*
X96520000Y-63500000D03*
D11*
X96520000Y-53340000D03*
D12*
X96520000Y-45720000D03*
D11*
X88900000Y-66040000D03*
D12*
X96520000Y-66040000D03*
D11*
X88900000Y-73660000D03*
D12*
X96520000Y-73660000D03*
D11*
X88900000Y-68580000D03*
D12*
X96520000Y-68580000D03*
D11*
X88900000Y-71120000D03*
D12*
X96520000Y-71120000D03*
D11*
X149225000Y-68580000D03*
D12*
X149225000Y-76200000D03*
D11*
X146050000Y-81280000D03*
D12*
X146050000Y-73660000D03*
D11*
X119380000Y-20320000D03*
D12*
X127000000Y-20320000D03*
D11*
X119380000Y-17780000D03*
D12*
X127000000Y-17780000D03*
D11*
X119380000Y-27940000D03*
D12*
X127000000Y-27940000D03*
D11*
X127000000Y-35560000D03*
D12*
X119380000Y-35560000D03*
D11*
X119380000Y-30480000D03*
D12*
X127000000Y-30480000D03*
D11*
X119380000Y-33020000D03*
D12*
X127000000Y-33020000D03*
D11*
X127000000Y-77470000D03*
D12*
X119380000Y-77470000D03*
D11*
X119380000Y-80010000D03*
D12*
X127000000Y-80010000D03*
D11*
X114300000Y-77470000D03*
D12*
X106680000Y-77470000D03*
D11*
X114300000Y-80010000D03*
D12*
X106680000Y-80010000D03*
D11*
X114300000Y-50800000D03*
D12*
X114300000Y-58420000D03*
D11*
X106680000Y-50800000D03*
D12*
X106680000Y-58420000D03*
D11*
X106680000Y-40640000D03*
D12*
X106680000Y-48260000D03*
D11*
X119380000Y-25400000D03*
D12*
X127000000Y-25400000D03*
D11*
X119380000Y-22860000D03*
D12*
X127000000Y-22860000D03*
D11*
X119380000Y-38100000D03*
D12*
X127000000Y-38100000D03*
D11*
X127000000Y-45720000D03*
D12*
X119380000Y-45720000D03*
D11*
X119380000Y-40640000D03*
D12*
X127000000Y-40640000D03*
D11*
X119380000Y-43180000D03*
D12*
X127000000Y-43180000D03*
D11*
X127000000Y-62230000D03*
D12*
X119380000Y-62230000D03*
D11*
X119380000Y-64770000D03*
D12*
X127000000Y-64770000D03*
D11*
X114300000Y-62230000D03*
D12*
X106680000Y-62230000D03*
D11*
X106680000Y-64770000D03*
D12*
X114300000Y-64770000D03*
D11*
X116840000Y-50800000D03*
D12*
X116840000Y-58420000D03*
D11*
X109220000Y-50800000D03*
D12*
X109220000Y-58420000D03*
D11*
X111760000Y-50800000D03*
D12*
X111760000Y-58420000D03*
D27*
X161290000Y-81280000D03*
X156410000Y-81280000D03*
D11*
X144780000Y-62230000D03*
X144780000Y-59730000D03*
X142240000Y-40640000D03*
X142240000Y-43140000D03*
X142240000Y-45720000D03*
X142240000Y-48220000D03*
D13*
X144780000Y-36830000D03*
D14*
X144780000Y-39370000D03*
X144780000Y-41910000D03*
D27*
X106045000Y-35560000D03*
X106045000Y-38100000D03*
X139700000Y-56515000D03*
X139700000Y-45720000D03*
D13*
X167640000Y-35560000D03*
D14*
X170180000Y-35560000D03*
D27*
X7620000Y-50800000D03*
X7620000Y-10160000D03*
D13*
X5080000Y-66040000D03*
D14*
X7620000Y-66040000D03*
X5080000Y-68580000D03*
X7620000Y-68580000D03*
X5080000Y-71120000D03*
X7620000Y-71120000D03*
D20*
X148590000Y-63500000D03*
D11*
X153590000Y-63500000D03*
X134620000Y-26670000D03*
D12*
X134620000Y-34290000D03*
D11*
X132080000Y-34290000D03*
D12*
X132080000Y-26670000D03*
D11*
X136525000Y-22225000D03*
D12*
X144145000Y-22225000D03*
D23*
X132715000Y-21590000D03*
X132715000Y-24130000D03*
D24*
X132715000Y-19050000D03*
D11*
X153035000Y-70485000D03*
D12*
X155575000Y-70485000D03*
D15*
X4000000Y-81000000D03*
D20*
X38100000Y-5080000D03*
D11*
X40600000Y-5080000D03*
D20*
X43180000Y-5080000D03*
D11*
X45680000Y-5080000D03*
D20*
X38100000Y-45720000D03*
D11*
X40600000Y-45720000D03*
D20*
X43180000Y-45720000D03*
D11*
X45680000Y-45720000D03*
D16*
X53340000Y-27940000D03*
D17*
X53340000Y-22940000D03*
D16*
X53340000Y-68580000D03*
D17*
X53340000Y-63580000D03*
D27*
X139700000Y-35560000D03*
X53340000Y-34925000D03*
X50800000Y-33020000D03*
X71120000Y-5080000D03*
X66040000Y-34925000D03*
X53340000Y-75565000D03*
X50800000Y-73660000D03*
X71120000Y-45720000D03*
X66040000Y-75565000D03*
D11*
X99060000Y-12700000D03*
X99060000Y-17700000D03*
X99060000Y-10160000D03*
X99060000Y-5160000D03*
X99060000Y-25400000D03*
X99060000Y-20400000D03*
X99060000Y-33020000D03*
X99060000Y-28020000D03*
X88900000Y-35560000D03*
X88900000Y-40560000D03*
X99060000Y-53340000D03*
X99060000Y-58340000D03*
X99060000Y-50800000D03*
X99060000Y-45800000D03*
X99060000Y-66040000D03*
X99060000Y-61040000D03*
X99060000Y-73660000D03*
X99060000Y-68660000D03*
X88900000Y-76200000D03*
X88900000Y-81200000D03*
X116840000Y-17780000D03*
X111840000Y-17780000D03*
X116840000Y-25400000D03*
X111840000Y-25400000D03*
X111760000Y-33020000D03*
X116760000Y-33020000D03*
X116840000Y-36830000D03*
X111840000Y-36830000D03*
X116840000Y-21590000D03*
X111840000Y-21590000D03*
X116840000Y-29210000D03*
X111840000Y-29210000D03*
X116840000Y-44450000D03*
X111840000Y-44450000D03*
X111760000Y-40640000D03*
X116760000Y-40640000D03*
X154305000Y-56515000D03*
D12*
X161925000Y-56515000D03*
M02*
