M48
INCH,TZ
T1C0.016
T2C0.031
T3C0.039
T4C0.047
T5C0.126
%
G90
G05
T1
X0.075Y-0.35
X0.075Y-0.825
X0.1Y-2.675
X0.1Y-2.825
X0.1Y-2.875
X0.15Y-2.6
X0.2Y-1.175
X0.4Y-1.225
X0.45Y-2.6
X0.45Y-2.675
X0.45Y-2.825
X0.45Y-2.875
X0.475Y-2.3
X0.5Y-1.225
X0.55Y-1.225
X0.575Y-3.025
X0.575Y-3.075
X0.575Y-3.125
X0.575Y-3.175
X0.575Y-3.175
X0.575Y-3.225
X0.575Y-3.275
X0.575Y-3.325
X0.575Y-3.375
X0.575Y-3.425
X0.575Y-3.5
X0.575Y-3.6
X0.575Y-3.7
X0.575Y-3.775
X0.6Y-1.225
X0.65Y-1.225
X0.65Y-2.3
X0.75Y-2.6
X0.825Y-3.025
X0.825Y-3.075
X0.825Y-3.125
X0.825Y-3.175
X0.825Y-3.225
X0.825Y-3.275
X0.825Y-3.325
X0.825Y-3.375
X0.825Y-3.425
X0.825Y-3.5
X0.825Y-3.6
X0.825Y-3.7
X0.825Y-3.775
X0.875Y-2.5
X0.875Y-2.55
X0.875Y-2.6
X0.875Y-2.65
X0.875Y-2.825
X0.875Y-2.875
X0.925Y-2.81
X0.95Y-2.225
X0.95Y-2.325
X0.975Y-0.875
X0.975Y-2.5
X0.975Y-2.6
X1.05Y-1.225
X1.075Y-2.3
X1.075Y-2.475
X1.1Y-0.725
X1.1Y-0.8
X1.1Y-0.875
X1.1Y-1.225
X1.15Y-0.8
X1.15Y-0.875
X1.15Y-1.025
X1.175Y-1.25
X1.2Y-0.7
X1.2Y-0.875
X1.225Y-0.675
X1.225Y-0.825
X1.225Y-3.1
X1.225Y-3.2
X1.225Y-3.3
X1.225Y-3.4
X1.25Y-0.775
X1.25Y-1.025
X1.25Y-1.35
X1.3Y-1.25
X1.325Y-1.3
X1.325Y-2.475
X1.35Y-0.875
X1.35Y-1.25
X1.4Y-0.875
X1.4Y-2.3
X1.45Y-0.875
X1.475Y-3.1
X1.475Y-3.2
X1.475Y-3.3
X1.475Y-3.4
X1.5Y-0.775
X1.5Y-0.825
X1.575Y-0.4
X1.6Y-0.825
X1.6Y-1.35
X1.6Y-1.45
X1.6Y-1.6
X1.65Y-0.575
X1.65Y-0.7
X1.65Y-0.875
X1.675Y-0.8
X1.725Y-2.375
X1.75Y-0.8
X1.75Y-0.875
X1.8Y-0.475
X1.8Y-2.45
X1.825Y-2.1
X1.9Y-0.425
X1.9Y-0.725
X1.9Y-1.35
X1.9Y-1.45
X1.9Y-1.6
X1.9Y-1.825
X1.925Y-2.15
X1.95Y-2.8
X2.05Y-2.8
X2.15Y-1.6
X2.175Y-1.575
X2.175Y-2.275
X2.175Y-2.55
X2.175Y-2.625
X2.3Y-2.625
X2.325Y-2.95
X2.325Y-3.225
X2.4Y-2.575
X2.4Y-2.95
X2.4Y-3.225
X2.425Y-1.675
X2.425Y-1.775
X2.425Y-1.875
X2.425Y-1.975
X2.425Y-2.075
T2
X0.15Y-0.45
X0.15Y-0.55
X0.15Y-0.65
X0.25Y-0.4
X0.25Y-0.7
X0.35Y-0.4
X0.35Y-0.7
X0.4Y-1.45
X0.4Y-1.55
X0.4Y-1.65
X0.4Y-1.75
X0.4Y-1.85
X0.4Y-1.95
X0.4Y-2.05
X0.4Y-2.15
X0.4Y-2.25
X0.45Y-0.45
X0.45Y-0.55
X0.45Y-0.65
X0.5Y-1.45
X0.5Y-1.55
X0.5Y-1.65
X0.5Y-1.75
X0.5Y-1.85
X0.5Y-1.95
X0.5Y-2.05
X0.5Y-2.15
X0.55Y-0.4
X0.55Y-0.7
X0.6Y-1.45
X0.6Y-1.55
X0.6Y-1.65
X0.6Y-1.75
X0.6Y-1.85
X0.6Y-1.95
X0.6Y-2.05
X0.6Y-2.15
X0.65Y-0.4
X0.65Y-0.7
X0.7Y-1.45
X0.7Y-1.55
X0.7Y-1.65
X0.7Y-1.75
X0.7Y-1.85
X0.7Y-1.95
X0.7Y-2.05
X0.7Y-2.15
X0.7Y-2.25
X0.7Y-2.35
X0.7Y-2.45
X0.7Y-2.55
X0.7Y-2.65
X0.7Y-2.75
X0.75Y-0.45
X0.75Y-0.55
X0.75Y-0.65
X0.8Y-1.35
X0.8Y-1.55
X0.8Y-1.65
X0.8Y-1.75
X0.8Y-1.85
X0.8Y-1.95
X0.8Y-2.05
X0.8Y-2.15
X0.85Y-0.4
X0.85Y-0.7
X0.85Y-2.25
X0.85Y-2.3484
X0.8984Y-1.35
X0.8984Y-1.55
X0.8984Y-1.65
X0.8984Y-1.75
X0.8984Y-1.85
X0.8984Y-1.95
X0.8984Y-2.05
X0.8984Y-2.15
X0.9Y-2.95
X0.9Y-3.05
X0.9Y-3.15
X0.9Y-3.25
X0.9Y-3.35
X0.9Y-3.45
X0.9Y-3.55
X0.9Y-3.65
X0.9Y-3.75
X0.95Y-0.4
X0.95Y-0.7
X1.Y-1.45
X1.Y-1.55
X1.Y-1.65
X1.Y-1.75
X1.Y-1.85
X1.Y-1.95
X1.Y-2.05
X1.Y-2.15
X1.Y-2.25
X1.Y-2.35
X1.Y-2.45
X1.Y-2.55
X1.Y-2.65
X1.Y-2.75
X1.Y-3.05
X1.Y-3.15
X1.Y-3.25
X1.Y-3.35
X1.Y-3.45
X1.Y-3.55
X1.Y-3.65
X1.Y-3.75
X1.1Y-0.35
X1.1Y-0.45
X1.1Y-0.55
X1.1Y-0.65
X1.1Y-3.05
X1.1Y-3.15
X1.1Y-3.25
X1.1Y-3.35
X1.1Y-3.45
X1.1Y-3.55
X1.1Y-3.65
X1.1Y-3.75
X1.1016Y-1.45
X1.1016Y-1.55
X1.1016Y-1.65
X1.1016Y-1.75
X1.1016Y-1.85
X1.1016Y-1.95
X1.1016Y-2.05
X1.1016Y-2.15
X1.2Y-1.45
X1.2Y-1.55
X1.2Y-1.65
X1.2Y-1.75
X1.2Y-1.85
X1.2Y-1.95
X1.2Y-2.05
X1.2Y-2.15
X1.2Y-3.05
X1.2Y-3.15
X1.2Y-3.25
X1.2Y-3.35
X1.2Y-3.45
X1.2Y-3.55
X1.2Y-3.65
X1.2Y-3.75
X1.2984Y-3.05
X1.2984Y-3.15
X1.2984Y-3.25
X1.2984Y-3.35
X1.2984Y-3.45
X1.2984Y-3.55
X1.2984Y-3.65
X1.2984Y-3.75
X1.3Y-1.45
X1.3Y-1.55
X1.3Y-1.65
X1.3Y-1.75
X1.3Y-1.85
X1.3Y-1.95
X1.3Y-2.05
X1.3Y-2.15
X1.4Y-0.35
X1.4Y-0.45
X1.4Y-0.55
X1.4Y-0.65
X1.4Y-1.45
X1.4Y-1.55
X1.4Y-1.65
X1.4Y-1.75
X1.4Y-1.85
X1.4Y-1.95
X1.4Y-2.05
X1.4Y-2.15
X1.4Y-2.45
X1.4Y-2.55
X1.4Y-2.65
X1.4Y-2.75
X1.4Y-2.85
X1.4Y-2.95
X1.4Y-3.05
X1.4Y-3.15
X1.4Y-3.25
X1.4Y-3.35
X1.4Y-3.45
X1.4Y-3.55
X1.4Y-3.65
X1.4Y-3.75
X1.5Y-0.35
X1.5Y-0.45
X1.5Y-0.55
X1.5Y-0.65
X1.5Y-1.45
X1.5Y-1.55
X1.5Y-1.65
X1.5Y-1.75
X1.5Y-1.85
X1.5Y-1.95
X1.5Y-2.05
X1.5Y-2.15
X1.5Y-2.25
X1.5016Y-3.05
X1.5016Y-3.15
X1.5016Y-3.25
X1.5016Y-3.35
X1.5016Y-3.45
X1.5016Y-3.55
X1.5016Y-3.65
X1.5016Y-3.85
X1.55Y-2.8516
X1.55Y-2.95
X1.5984Y-0.35
X1.5984Y-0.45
X1.5984Y-0.55
X1.5984Y-0.65
X1.6Y-3.05
X1.6Y-3.15
X1.6Y-3.25
X1.6Y-3.35
X1.6Y-3.45
X1.6Y-3.55
X1.6Y-3.65
X1.6Y-3.85
X1.7Y-0.35
X1.7Y-0.65
X1.7Y-2.45
X1.7Y-2.55
X1.7Y-2.65
X1.7Y-2.75
X1.7Y-2.85
X1.7Y-2.95
X1.7Y-3.05
X1.7Y-3.15
X1.7Y-3.25
X1.7Y-3.35
X1.7Y-3.45
X1.7Y-3.55
X1.7Y-3.65
X1.7Y-3.75
X1.8Y-0.35
X1.8Y-0.65
X1.8Y-3.05
X1.8Y-3.15
X1.8Y-3.25
X1.8Y-3.35
X1.8Y-3.45
X1.8Y-3.55
X1.8Y-3.65
X1.8Y-3.75
X1.9Y-0.35
X1.9Y-0.65
X1.9Y-3.05
X1.9Y-3.15
X1.9Y-3.25
X1.9Y-3.35
X1.9Y-3.45
X1.9Y-3.55
X1.9Y-3.65
X1.9Y-3.75
X2.Y-0.35
X2.Y-0.65
X2.Y-2.1516
X2.Y-2.25
X2.Y-2.35
X2.Y-2.45
X2.Y-2.55
X2.Y-2.65
X2.Y-2.95
X2.Y-3.05
X2.Y-3.15
X2.Y-3.25
X2.Y-3.35
X2.Y-3.45
X2.Y-3.55
X2.Y-3.65
X2.Y-3.75
X2.1Y-0.35
X2.1Y-0.65
X2.1Y-2.1516
X2.1Y-2.25
X2.1Y-2.35
X2.1Y-2.45
X2.1Y-2.55
X2.1Y-2.65
X2.1016Y-0.475
X2.2Y-0.35
X2.2Y-0.475
X2.2Y-0.65
X2.3Y-0.35
X2.3Y-0.65
X2.4Y-0.35
X2.4Y-0.65
T3
X0.3Y-0.95
X0.3Y-1.05
X0.4Y-0.95
X0.4Y-1.05
X0.4Y-2.95
X0.4Y-3.05
X0.4Y-3.15
X0.4Y-3.25
X0.4Y-3.35
X0.4Y-3.45
X0.4Y-3.55
X0.4Y-3.65
X0.5Y-0.95
X0.5Y-1.05
X0.5Y-2.95
X0.5Y-3.05
X0.5Y-3.15
X0.5Y-3.25
X0.5Y-3.35
X0.5Y-3.45
X0.5Y-3.55
X0.5Y-3.65
X0.6Y-0.95
X0.6Y-1.05
X0.7Y-0.95
X0.7Y-1.05
X0.8Y-0.95
X0.8Y-1.05
X0.85Y-0.125
X0.85Y-0.225
X0.9Y-0.95
X0.9Y-1.05
X0.95Y-0.125
X0.95Y-0.225
X1.Y-0.95
X1.Y-1.05
X1.05Y-0.125
X1.05Y-0.225
X1.1Y-0.95
X1.1Y-1.05
X1.15Y-0.125
X1.15Y-0.225
X1.2Y-0.95
X1.2Y-1.05
X1.3Y-0.95
X1.3Y-1.05
X1.4Y-0.95
X1.4Y-1.05
X1.5Y-0.95
X1.5Y-1.05
X1.6Y-0.95
X1.6Y-1.05
X1.7Y-0.95
X1.7Y-1.05
X1.8Y-0.95
X1.8Y-1.05
X1.9Y-0.95
X1.9Y-1.05
X2.Y-0.95
X2.Y-1.05
X2.1Y-0.95
X2.1Y-1.05
X2.2Y-0.95
X2.2Y-1.05
X2.2Y-3.3
X2.2Y-3.4
X2.2Y-3.5
X2.2Y-3.6
X2.3Y-3.3
X2.3Y-3.4
X2.3Y-3.5
X2.3Y-3.6
X2.35Y-1.3
X2.35Y-1.4
X2.35Y-1.5
X2.35Y-1.6
X2.35Y-1.7
X2.35Y-1.8
X2.35Y-1.9
X2.35Y-2.
X2.35Y-2.1
X2.35Y-2.2
T4
X0.2Y-1.4
X0.2Y-1.5
X0.2Y-1.6
X0.2Y-1.75
X0.2Y-1.85
X0.2Y-1.95
X0.2Y-2.05
X0.2Y-2.2
X0.2Y-2.3
X0.2Y-2.4
X0.2Y-2.5
X0.4Y-0.15
X0.5Y-0.15
X0.6Y-0.15
X0.7Y-0.15
X1.3Y-0.15
X1.4Y-0.15
X1.5Y-0.15
X1.65Y-0.15
X1.75Y-0.15
X1.75Y-1.4
X1.75Y-1.5
X1.75Y-1.6
X1.75Y-1.775
X1.75Y-1.875
X1.75Y-1.975
X1.85Y-0.15
X2.Y-0.15
X2.05Y-1.4
X2.05Y-1.5
X2.05Y-1.6
X2.05Y-1.775
X2.05Y-1.875
X2.05Y-1.975
X2.1Y-0.15
X2.2Y-0.15
T5
X0.1181Y-0.1181
X0.1181Y-3.8189
X2.4409Y-0.1181
X2.4409Y-3.8189
T0
M30
